%TF.GenerationSoftware,KiCad,Pcbnew,7.0.9*%
%TF.CreationDate,2025-06-01T16:30:52+05:30*%
%TF.ProjectId,Board,426f6172-642e-46b6-9963-61645f706362,rev?*%
%TF.SameCoordinates,Original*%
%TF.FileFunction,Legend,Top*%
%TF.FilePolarity,Positive*%
%FSLAX46Y46*%
G04 Gerber Fmt 4.6, Leading zero omitted, Abs format (unit mm)*
G04 Created by KiCad (PCBNEW 7.0.9) date 2025-06-01 16:30:52*
%MOMM*%
%LPD*%
G01*
G04 APERTURE LIST*
G04 Aperture macros list*
%AMRoundRect*
0 Rectangle with rounded corners*
0 $1 Rounding radius*
0 $2 $3 $4 $5 $6 $7 $8 $9 X,Y pos of 4 corners*
0 Add a 4 corners polygon primitive as box body*
4,1,4,$2,$3,$4,$5,$6,$7,$8,$9,$2,$3,0*
0 Add four circle primitives for the rounded corners*
1,1,$1+$1,$2,$3*
1,1,$1+$1,$4,$5*
1,1,$1+$1,$6,$7*
1,1,$1+$1,$8,$9*
0 Add four rect primitives between the rounded corners*
20,1,$1+$1,$2,$3,$4,$5,0*
20,1,$1+$1,$4,$5,$6,$7,0*
20,1,$1+$1,$6,$7,$8,$9,0*
20,1,$1+$1,$8,$9,$2,$3,0*%
G04 Aperture macros list end*
%ADD10C,0.150000*%
%ADD11C,0.120000*%
%ADD12C,0.300000*%
%TA.AperFunction,NonConductor*%
%ADD13C,0.300000*%
%TD*%
%TA.AperFunction,ComponentPad*%
%ADD14C,1.600000*%
%TD*%
%TA.AperFunction,ComponentPad*%
%ADD15O,1.600000X1.600000*%
%TD*%
%TA.AperFunction,ComponentPad*%
%ADD16R,1.700000X1.700000*%
%TD*%
%TA.AperFunction,ComponentPad*%
%ADD17O,1.700000X1.700000*%
%TD*%
%TA.AperFunction,ComponentPad*%
%ADD18R,1.600000X1.600000*%
%TD*%
%TA.AperFunction,ComponentPad*%
%ADD19R,1.800000X1.800000*%
%TD*%
%TA.AperFunction,ComponentPad*%
%ADD20C,1.800000*%
%TD*%
%TA.AperFunction,ComponentPad*%
%ADD21R,2.000000X2.000000*%
%TD*%
%TA.AperFunction,ComponentPad*%
%ADD22C,2.000000*%
%TD*%
%TA.AperFunction,ComponentPad*%
%ADD23C,1.000000*%
%TD*%
%TA.AperFunction,ComponentPad*%
%ADD24C,2.340000*%
%TD*%
%TA.AperFunction,ComponentPad*%
%ADD25O,1.905000X2.000000*%
%TD*%
%TA.AperFunction,ComponentPad*%
%ADD26R,1.905000X2.000000*%
%TD*%
%TA.AperFunction,SMDPad,CuDef*%
%ADD27RoundRect,0.150000X0.150000X-0.587500X0.150000X0.587500X-0.150000X0.587500X-0.150000X-0.587500X0*%
%TD*%
%TA.AperFunction,Conductor*%
%ADD28C,0.300000*%
%TD*%
G04 APERTURE END LIST*
D10*
X127294619Y-40012857D02*
X126818428Y-40346190D01*
X127294619Y-40584285D02*
X126294619Y-40584285D01*
X126294619Y-40584285D02*
X126294619Y-40203333D01*
X126294619Y-40203333D02*
X126342238Y-40108095D01*
X126342238Y-40108095D02*
X126389857Y-40060476D01*
X126389857Y-40060476D02*
X126485095Y-40012857D01*
X126485095Y-40012857D02*
X126627952Y-40012857D01*
X126627952Y-40012857D02*
X126723190Y-40060476D01*
X126723190Y-40060476D02*
X126770809Y-40108095D01*
X126770809Y-40108095D02*
X126818428Y-40203333D01*
X126818428Y-40203333D02*
X126818428Y-40584285D01*
X127294619Y-39060476D02*
X127294619Y-39631904D01*
X127294619Y-39346190D02*
X126294619Y-39346190D01*
X126294619Y-39346190D02*
X126437476Y-39441428D01*
X126437476Y-39441428D02*
X126532714Y-39536666D01*
X126532714Y-39536666D02*
X126580333Y-39631904D01*
X126294619Y-38727142D02*
X126294619Y-38060476D01*
X126294619Y-38060476D02*
X127294619Y-38489047D01*
X38961095Y-95910619D02*
X38961095Y-94910619D01*
X39532523Y-95910619D02*
X39103952Y-95339190D01*
X39532523Y-94910619D02*
X38961095Y-95482047D01*
X38961095Y-99460619D02*
X38961095Y-98460619D01*
X39532523Y-99460619D02*
X39103952Y-98889190D01*
X39532523Y-98460619D02*
X38961095Y-99032047D01*
X68272695Y-92958219D02*
X68272695Y-91958219D01*
X68844123Y-92958219D02*
X68415552Y-92386790D01*
X68844123Y-91958219D02*
X68272695Y-92529647D01*
X26108695Y-80595219D02*
X26108695Y-79595219D01*
X26680123Y-80595219D02*
X26251552Y-80023790D01*
X26680123Y-79595219D02*
X26108695Y-80166647D01*
X84007095Y-48795819D02*
X84007095Y-47795819D01*
X84578523Y-48795819D02*
X84149952Y-48224390D01*
X84578523Y-47795819D02*
X84007095Y-48367247D01*
X26108695Y-74753219D02*
X26108695Y-73753219D01*
X26680123Y-74753219D02*
X26251552Y-74181790D01*
X26680123Y-73753219D02*
X26108695Y-74324647D01*
X84007095Y-51970819D02*
X84007095Y-50970819D01*
X84578523Y-51970819D02*
X84149952Y-51399390D01*
X84578523Y-50970819D02*
X84007095Y-51542247D01*
X43494095Y-55355819D02*
X43494095Y-54355819D01*
X44065523Y-55355819D02*
X43636952Y-54784390D01*
X44065523Y-54355819D02*
X43494095Y-54927247D01*
X68272695Y-85084219D02*
X68272695Y-84084219D01*
X68844123Y-85084219D02*
X68415552Y-84512790D01*
X68844123Y-84084219D02*
X68272695Y-84655647D01*
X43494095Y-43544819D02*
X43494095Y-42544819D01*
X44065523Y-43544819D02*
X43636952Y-42973390D01*
X44065523Y-42544819D02*
X43494095Y-43116247D01*
X56194095Y-61495819D02*
X56194095Y-60495819D01*
X56765523Y-61495819D02*
X56336952Y-60924390D01*
X56765523Y-60495819D02*
X56194095Y-61067247D01*
X68272695Y-98241419D02*
X68272695Y-97241419D01*
X68844123Y-98241419D02*
X68415552Y-97669990D01*
X68844123Y-97241419D02*
X68272695Y-97812847D01*
X84007095Y-62638819D02*
X84007095Y-61638819D01*
X84578523Y-62638819D02*
X84149952Y-62067390D01*
X84578523Y-61638819D02*
X84007095Y-62210247D01*
X68272695Y-90164219D02*
X68272695Y-89164219D01*
X68844123Y-90164219D02*
X68415552Y-89592790D01*
X68844123Y-89164219D02*
X68272695Y-89735647D01*
X56194095Y-64162819D02*
X56194095Y-63162819D01*
X56765523Y-64162819D02*
X56336952Y-63591390D01*
X56765523Y-63162819D02*
X56194095Y-63734247D01*
X71307095Y-56498819D02*
X71307095Y-55498819D01*
X71878523Y-56498819D02*
X71449952Y-55927390D01*
X71878523Y-55498819D02*
X71307095Y-56070247D01*
X84007095Y-57177819D02*
X84007095Y-56177819D01*
X84578523Y-57177819D02*
X84149952Y-56606390D01*
X84578523Y-56177819D02*
X84007095Y-56749247D01*
X43494095Y-51672819D02*
X43494095Y-50672819D01*
X44065523Y-51672819D02*
X43636952Y-51101390D01*
X44065523Y-50672819D02*
X43494095Y-51244247D01*
X71307095Y-61832819D02*
X71307095Y-60832819D01*
X71878523Y-61832819D02*
X71449952Y-61261390D01*
X71878523Y-60832819D02*
X71307095Y-61404247D01*
X84007095Y-54637819D02*
X84007095Y-53637819D01*
X84578523Y-54637819D02*
X84149952Y-54066390D01*
X84578523Y-53637819D02*
X84007095Y-54209247D01*
X26108695Y-85929219D02*
X26108695Y-84929219D01*
X26680123Y-85929219D02*
X26251552Y-85357790D01*
X26680123Y-84929219D02*
X26108695Y-85500647D01*
X26108695Y-77801219D02*
X26108695Y-76801219D01*
X26680123Y-77801219D02*
X26251552Y-77229790D01*
X26680123Y-76801219D02*
X26108695Y-77372647D01*
X26108695Y-83389219D02*
X26108695Y-82389219D01*
X26680123Y-83389219D02*
X26251552Y-82817790D01*
X26680123Y-82389219D02*
X26108695Y-82960647D01*
X68272695Y-95498219D02*
X68272695Y-94498219D01*
X68844123Y-95498219D02*
X68415552Y-94926790D01*
X68844123Y-94498219D02*
X68272695Y-95069647D01*
D11*
%TO.C,R17*%
X129209800Y-35330000D02*
X129209800Y-36100000D01*
X129209800Y-43410000D02*
X129209800Y-42640000D01*
X127839800Y-42640000D02*
X130579800Y-42640000D01*
X130579800Y-36100000D02*
X127839800Y-36100000D01*
X130579800Y-42640000D02*
X130579800Y-36100000D01*
X127839800Y-36100000D02*
X127839800Y-42640000D01*
%TO.C,J2*%
X90826600Y-94319400D02*
X90826600Y-92989400D01*
X90826600Y-91719400D02*
X90826600Y-81499400D01*
X93486600Y-91719400D02*
X93486600Y-81499400D01*
X93486600Y-91719400D02*
X90826600Y-91719400D01*
X93486600Y-81499400D02*
X90826600Y-81499400D01*
X92156600Y-94319400D02*
X90826600Y-94319400D01*
%TO.C,C10*%
X99372800Y-47244000D02*
G75*
G03*
X99372800Y-47244000I-3270000J0D01*
G01*
%TO.C,U2*%
X42551600Y-73878400D02*
X42551600Y-94438400D01*
X42551600Y-94438400D02*
X52831600Y-94438400D01*
X45041600Y-73938400D02*
X45041600Y-94378400D01*
X45041600Y-94378400D02*
X50341600Y-94378400D01*
X46691600Y-73938400D02*
X45041600Y-73938400D01*
X50341600Y-73938400D02*
X48691600Y-73938400D01*
X50341600Y-94378400D02*
X50341600Y-73938400D01*
X52831600Y-73878400D02*
X42551600Y-73878400D01*
X52831600Y-94438400D02*
X52831600Y-73878400D01*
X46691600Y-73938400D02*
G75*
G03*
X48691600Y-73938400I1000000J0D01*
G01*
%TO.C,R23*%
X84004600Y-107086400D02*
X83234600Y-107086400D01*
X75924600Y-107086400D02*
X76694600Y-107086400D01*
X76694600Y-105716400D02*
X76694600Y-108456400D01*
X83234600Y-108456400D02*
X83234600Y-105716400D01*
X76694600Y-108456400D02*
X83234600Y-108456400D01*
X83234600Y-105716400D02*
X76694600Y-105716400D01*
%TO.C,R22*%
X103764400Y-83894800D02*
X103764400Y-84664800D01*
X103764400Y-91974800D02*
X103764400Y-91204800D01*
X102394400Y-91204800D02*
X105134400Y-91204800D01*
X105134400Y-84664800D02*
X102394400Y-84664800D01*
X105134400Y-91204800D02*
X105134400Y-84664800D01*
X102394400Y-84664800D02*
X102394400Y-91204800D01*
%TO.C,R20*%
X29950600Y-90352400D02*
X30720600Y-90352400D01*
X38030600Y-90352400D02*
X37260600Y-90352400D01*
X37260600Y-91722400D02*
X37260600Y-88982400D01*
X30720600Y-88982400D02*
X30720600Y-91722400D01*
X37260600Y-88982400D02*
X30720600Y-88982400D01*
X30720600Y-91722400D02*
X37260600Y-91722400D01*
%TO.C,R2*%
X108077000Y-68429000D02*
X108077000Y-67659000D01*
X108077000Y-60349000D02*
X108077000Y-61119000D01*
X109447000Y-61119000D02*
X106707000Y-61119000D01*
X106707000Y-67659000D02*
X109447000Y-67659000D01*
X106707000Y-61119000D02*
X106707000Y-67659000D01*
X109447000Y-67659000D02*
X109447000Y-61119000D01*
%TO.C,Q1*%
X69867600Y-106537400D02*
X69711600Y-106537400D01*
X72183600Y-106537400D02*
X72027600Y-106537400D01*
X69867601Y-107056440D02*
G75*
G03*
X69867764Y-109138529I1079999J-1040960D01*
G01*
X72026208Y-109769734D02*
G75*
G03*
X72183115Y-106537401I-1078608J1672334D01*
G01*
X69712085Y-106537401D02*
G75*
G03*
X69868992Y-109769734I1235515J-1559999D01*
G01*
X72027436Y-109138529D02*
G75*
G03*
X72027599Y-107056440I-1079836J1041129D01*
G01*
%TO.C,D12*%
X30753000Y-92535800D02*
X30753000Y-94775800D01*
X34153000Y-94775800D02*
X34153000Y-92535800D01*
X38183000Y-93655800D02*
X34993000Y-93655800D01*
X34273000Y-94775800D02*
X34273000Y-92535800D01*
X30753000Y-94775800D02*
X34993000Y-94775800D01*
X34993000Y-94775800D02*
X34993000Y-92535800D01*
X34993000Y-92535800D02*
X30753000Y-92535800D01*
X27563000Y-93655800D02*
X30753000Y-93655800D01*
X34393000Y-94775800D02*
X34393000Y-92535800D01*
%TO.C,D11*%
X30753000Y-96085800D02*
X30753000Y-98325800D01*
X34153000Y-98325800D02*
X34153000Y-96085800D01*
X38183000Y-97205800D02*
X34993000Y-97205800D01*
X34273000Y-98325800D02*
X34273000Y-96085800D01*
X30753000Y-98325800D02*
X34993000Y-98325800D01*
X34993000Y-98325800D02*
X34993000Y-96085800D01*
X34993000Y-96085800D02*
X30753000Y-96085800D01*
X27563000Y-97205800D02*
X30753000Y-97205800D01*
X34393000Y-98325800D02*
X34393000Y-96085800D01*
%TO.C,R8*%
X83229000Y-67242000D02*
X82459000Y-67242000D01*
X82459000Y-68612000D02*
X82459000Y-65872000D01*
X82459000Y-65872000D02*
X75919000Y-65872000D01*
X75919000Y-68612000D02*
X82459000Y-68612000D01*
X75919000Y-65872000D02*
X75919000Y-68612000D01*
X75149000Y-67242000D02*
X75919000Y-67242000D01*
%TO.C,R5*%
X61306000Y-40699000D02*
X62076000Y-40699000D01*
X62076000Y-39329000D02*
X62076000Y-42069000D01*
X62076000Y-42069000D02*
X68616000Y-42069000D01*
X68616000Y-39329000D02*
X62076000Y-39329000D01*
X68616000Y-42069000D02*
X68616000Y-39329000D01*
X69386000Y-40699000D02*
X68616000Y-40699000D01*
%TO.C,D31*%
X67494600Y-90703400D02*
X64304600Y-90703400D01*
X64304600Y-91823400D02*
X64304600Y-89583400D01*
X64304600Y-89583400D02*
X60064600Y-89583400D01*
X63704600Y-91823400D02*
X63704600Y-89583400D01*
X63584600Y-91823400D02*
X63584600Y-89583400D01*
X63464600Y-91823400D02*
X63464600Y-89583400D01*
X60064600Y-91823400D02*
X64304600Y-91823400D01*
X60064600Y-89583400D02*
X60064600Y-91823400D01*
X56874600Y-90703400D02*
X60064600Y-90703400D01*
%TO.C,C8*%
X66076000Y-67877000D02*
G75*
G03*
X66076000Y-67877000I-3270000J0D01*
G01*
%TO.C,D26*%
X110537000Y-77117000D02*
X110693000Y-77117000D01*
X112853000Y-77117000D02*
X113009000Y-77117000D01*
X110694392Y-73884666D02*
G75*
G03*
X110537485Y-77116999I1078608J-1672334D01*
G01*
X110693164Y-74515871D02*
G75*
G03*
X110693001Y-76597960I1079836J-1041129D01*
G01*
X112852999Y-76597960D02*
G75*
G03*
X112852836Y-74515871I-1079999J1040960D01*
G01*
X113008515Y-77116999D02*
G75*
G03*
X112851608Y-73884666I-1235515J1559999D01*
G01*
%TO.C,D33*%
X27410600Y-81940400D02*
X30600600Y-81940400D01*
X30600600Y-80820400D02*
X30600600Y-83060400D01*
X30600600Y-83060400D02*
X34840600Y-83060400D01*
X31200600Y-80820400D02*
X31200600Y-83060400D01*
X31320600Y-80820400D02*
X31320600Y-83060400D01*
X31440600Y-80820400D02*
X31440600Y-83060400D01*
X34840600Y-80820400D02*
X30600600Y-80820400D01*
X34840600Y-83060400D02*
X34840600Y-80820400D01*
X38030600Y-81940400D02*
X34840600Y-81940400D01*
%TO.C,C11*%
X68329800Y-73712400D02*
X65589800Y-73712400D01*
X68329800Y-73712400D02*
X68329800Y-78952400D01*
X65589800Y-73712400D02*
X65589800Y-78952400D01*
X68329800Y-78952400D02*
X65589800Y-78952400D01*
%TO.C,R9*%
X89942800Y-40741600D02*
X89172800Y-40741600D01*
X89172800Y-42111600D02*
X89172800Y-39371600D01*
X89172800Y-39371600D02*
X82632800Y-39371600D01*
X82632800Y-42111600D02*
X89172800Y-42111600D01*
X82632800Y-39371600D02*
X82632800Y-42111600D01*
X81862800Y-40741600D02*
X82632800Y-40741600D01*
%TO.C,D25*%
X115490000Y-77117000D02*
X115646000Y-77117000D01*
X117806000Y-77117000D02*
X117962000Y-77117000D01*
X115647392Y-73884666D02*
G75*
G03*
X115490485Y-77116999I1078608J-1672334D01*
G01*
X115646164Y-74515871D02*
G75*
G03*
X115646001Y-76597960I1079836J-1041129D01*
G01*
X117805999Y-76597960D02*
G75*
G03*
X117805836Y-74515871I-1079999J1040960D01*
G01*
X117961515Y-77116999D02*
G75*
G03*
X117804608Y-73884666I-1235515J1559999D01*
G01*
%TO.C,U11*%
X39869000Y-64050000D02*
X39869000Y-43490000D01*
X39869000Y-43490000D02*
X29589000Y-43490000D01*
X37379000Y-63990000D02*
X37379000Y-43550000D01*
X37379000Y-43550000D02*
X32079000Y-43550000D01*
X35729000Y-63990000D02*
X37379000Y-63990000D01*
X32079000Y-63990000D02*
X33729000Y-63990000D01*
X32079000Y-43550000D02*
X32079000Y-63990000D01*
X29589000Y-64050000D02*
X39869000Y-64050000D01*
X29589000Y-43490000D02*
X29589000Y-64050000D01*
X35729000Y-63990000D02*
G75*
G03*
X33729000Y-63990000I-1000000J0D01*
G01*
%TO.C,R10*%
X123893000Y-68610000D02*
X123893000Y-67840000D01*
X122523000Y-67840000D02*
X125263000Y-67840000D01*
X125263000Y-67840000D02*
X125263000Y-61300000D01*
X122523000Y-61300000D02*
X122523000Y-67840000D01*
X125263000Y-61300000D02*
X122523000Y-61300000D01*
X123893000Y-60530000D02*
X123893000Y-61300000D01*
%TO.C,C15*%
X54178800Y-108436646D02*
X54178800Y-107436646D01*
X53678800Y-107936646D02*
X54678800Y-107936646D01*
X51973800Y-102957000D02*
X62133800Y-102957000D01*
X51973800Y-102917000D02*
X62133800Y-102917000D01*
X51973800Y-102877000D02*
X62133800Y-102877000D01*
X51974800Y-102837000D02*
X62132800Y-102837000D01*
X51975800Y-102797000D02*
X62131800Y-102797000D01*
X51976800Y-102757000D02*
X62130800Y-102757000D01*
X51978800Y-102717000D02*
X62128800Y-102717000D01*
X51980800Y-102677000D02*
X62126800Y-102677000D01*
X51983800Y-102637000D02*
X62123800Y-102637000D01*
X51985800Y-102597000D02*
X62121800Y-102597000D01*
X51988800Y-102557000D02*
X62118800Y-102557000D01*
X51991800Y-102517000D02*
X62115800Y-102517000D01*
X51995800Y-102477000D02*
X62111800Y-102477000D01*
X51999800Y-102437000D02*
X62107800Y-102437000D01*
X52003800Y-102397000D02*
X62103800Y-102397000D01*
X52008800Y-102357000D02*
X62098800Y-102357000D01*
X52013800Y-102317000D02*
X62093800Y-102317000D01*
X52018800Y-102277000D02*
X62088800Y-102277000D01*
X52023800Y-102236000D02*
X62083800Y-102236000D01*
X52029800Y-102196000D02*
X62077800Y-102196000D01*
X52035800Y-102156000D02*
X62071800Y-102156000D01*
X52042800Y-102116000D02*
X62064800Y-102116000D01*
X52049800Y-102076000D02*
X62057800Y-102076000D01*
X52056800Y-102036000D02*
X62050800Y-102036000D01*
X52063800Y-101996000D02*
X62043800Y-101996000D01*
X52071800Y-101956000D02*
X62035800Y-101956000D01*
X52079800Y-101916000D02*
X62027800Y-101916000D01*
X52088800Y-101876000D02*
X62018800Y-101876000D01*
X52097800Y-101836000D02*
X62009800Y-101836000D01*
X52106800Y-101796000D02*
X62000800Y-101796000D01*
X52115800Y-101756000D02*
X61991800Y-101756000D01*
X52125800Y-101716000D02*
X61981800Y-101716000D01*
X52135800Y-101676000D02*
X55812800Y-101676000D01*
X58294800Y-101676000D02*
X61971800Y-101676000D01*
X52146800Y-101636000D02*
X55812800Y-101636000D01*
X58294800Y-101636000D02*
X61960800Y-101636000D01*
X52156800Y-101596000D02*
X55812800Y-101596000D01*
X58294800Y-101596000D02*
X61950800Y-101596000D01*
X52168800Y-101556000D02*
X55812800Y-101556000D01*
X58294800Y-101556000D02*
X61938800Y-101556000D01*
X52179800Y-101516000D02*
X55812800Y-101516000D01*
X58294800Y-101516000D02*
X61927800Y-101516000D01*
X52191800Y-101476000D02*
X55812800Y-101476000D01*
X58294800Y-101476000D02*
X61915800Y-101476000D01*
X52203800Y-101436000D02*
X55812800Y-101436000D01*
X58294800Y-101436000D02*
X61903800Y-101436000D01*
X52216800Y-101396000D02*
X55812800Y-101396000D01*
X58294800Y-101396000D02*
X61890800Y-101396000D01*
X52229800Y-101356000D02*
X55812800Y-101356000D01*
X58294800Y-101356000D02*
X61877800Y-101356000D01*
X52242800Y-101316000D02*
X55812800Y-101316000D01*
X58294800Y-101316000D02*
X61864800Y-101316000D01*
X52256800Y-101276000D02*
X55812800Y-101276000D01*
X58294800Y-101276000D02*
X61850800Y-101276000D01*
X52270800Y-101236000D02*
X55812800Y-101236000D01*
X58294800Y-101236000D02*
X61836800Y-101236000D01*
X52285800Y-101196000D02*
X55812800Y-101196000D01*
X58294800Y-101196000D02*
X61821800Y-101196000D01*
X52299800Y-101156000D02*
X55812800Y-101156000D01*
X58294800Y-101156000D02*
X61807800Y-101156000D01*
X52315800Y-101116000D02*
X55812800Y-101116000D01*
X58294800Y-101116000D02*
X61791800Y-101116000D01*
X52330800Y-101076000D02*
X55812800Y-101076000D01*
X58294800Y-101076000D02*
X61776800Y-101076000D01*
X52346800Y-101036000D02*
X55812800Y-101036000D01*
X58294800Y-101036000D02*
X61760800Y-101036000D01*
X52363800Y-100996000D02*
X55812800Y-100996000D01*
X58294800Y-100996000D02*
X61743800Y-100996000D01*
X52379800Y-100956000D02*
X55812800Y-100956000D01*
X58294800Y-100956000D02*
X61727800Y-100956000D01*
X52396800Y-100916000D02*
X55812800Y-100916000D01*
X58294800Y-100916000D02*
X61710800Y-100916000D01*
X52414800Y-100876000D02*
X55812800Y-100876000D01*
X58294800Y-100876000D02*
X61692800Y-100876000D01*
X52432800Y-100836000D02*
X55812800Y-100836000D01*
X58294800Y-100836000D02*
X61674800Y-100836000D01*
X52450800Y-100796000D02*
X55812800Y-100796000D01*
X58294800Y-100796000D02*
X61656800Y-100796000D01*
X52469800Y-100756000D02*
X55812800Y-100756000D01*
X58294800Y-100756000D02*
X61637800Y-100756000D01*
X52489800Y-100716000D02*
X55812800Y-100716000D01*
X58294800Y-100716000D02*
X61617800Y-100716000D01*
X52508800Y-100676000D02*
X55812800Y-100676000D01*
X58294800Y-100676000D02*
X61598800Y-100676000D01*
X52528800Y-100636000D02*
X55812800Y-100636000D01*
X58294800Y-100636000D02*
X61578800Y-100636000D01*
X52549800Y-100596000D02*
X55812800Y-100596000D01*
X58294800Y-100596000D02*
X61557800Y-100596000D01*
X52570800Y-100556000D02*
X55812800Y-100556000D01*
X58294800Y-100556000D02*
X61536800Y-100556000D01*
X52591800Y-100516000D02*
X55812800Y-100516000D01*
X58294800Y-100516000D02*
X61515800Y-100516000D01*
X52613800Y-100476000D02*
X55812800Y-100476000D01*
X58294800Y-100476000D02*
X61493800Y-100476000D01*
X52636800Y-100436000D02*
X55812800Y-100436000D01*
X58294800Y-100436000D02*
X61470800Y-100436000D01*
X52658800Y-100396000D02*
X55812800Y-100396000D01*
X58294800Y-100396000D02*
X61448800Y-100396000D01*
X52682800Y-100356000D02*
X55812800Y-100356000D01*
X58294800Y-100356000D02*
X61424800Y-100356000D01*
X52706800Y-100316000D02*
X55812800Y-100316000D01*
X58294800Y-100316000D02*
X61400800Y-100316000D01*
X52730800Y-100276000D02*
X55812800Y-100276000D01*
X58294800Y-100276000D02*
X61376800Y-100276000D01*
X52755800Y-100236000D02*
X55812800Y-100236000D01*
X58294800Y-100236000D02*
X61351800Y-100236000D01*
X52780800Y-100196000D02*
X55812800Y-100196000D01*
X58294800Y-100196000D02*
X61326800Y-100196000D01*
X52806800Y-100156000D02*
X55812800Y-100156000D01*
X58294800Y-100156000D02*
X61300800Y-100156000D01*
X52832800Y-100116000D02*
X55812800Y-100116000D01*
X58294800Y-100116000D02*
X61274800Y-100116000D01*
X52859800Y-100076000D02*
X55812800Y-100076000D01*
X58294800Y-100076000D02*
X61247800Y-100076000D01*
X52887800Y-100036000D02*
X55812800Y-100036000D01*
X58294800Y-100036000D02*
X61219800Y-100036000D01*
X52915800Y-99996000D02*
X55812800Y-99996000D01*
X58294800Y-99996000D02*
X61191800Y-99996000D01*
X52943800Y-99956000D02*
X55812800Y-99956000D01*
X58294800Y-99956000D02*
X61163800Y-99956000D01*
X52973800Y-99916000D02*
X55812800Y-99916000D01*
X58294800Y-99916000D02*
X61133800Y-99916000D01*
X53003800Y-99876000D02*
X55812800Y-99876000D01*
X58294800Y-99876000D02*
X61103800Y-99876000D01*
X53033800Y-99836000D02*
X55812800Y-99836000D01*
X58294800Y-99836000D02*
X61073800Y-99836000D01*
X53064800Y-99796000D02*
X55812800Y-99796000D01*
X58294800Y-99796000D02*
X61042800Y-99796000D01*
X53096800Y-99756000D02*
X55812800Y-99756000D01*
X58294800Y-99756000D02*
X61010800Y-99756000D01*
X53128800Y-99716000D02*
X55812800Y-99716000D01*
X58294800Y-99716000D02*
X60978800Y-99716000D01*
X53161800Y-99676000D02*
X55812800Y-99676000D01*
X58294800Y-99676000D02*
X60945800Y-99676000D01*
X53195800Y-99636000D02*
X55812800Y-99636000D01*
X58294800Y-99636000D02*
X60911800Y-99636000D01*
X53229800Y-99596000D02*
X55812800Y-99596000D01*
X58294800Y-99596000D02*
X60877800Y-99596000D01*
X53264800Y-99556000D02*
X55812800Y-99556000D01*
X58294800Y-99556000D02*
X60842800Y-99556000D01*
X53300800Y-99516000D02*
X55812800Y-99516000D01*
X58294800Y-99516000D02*
X60806800Y-99516000D01*
X53337800Y-99476000D02*
X55812800Y-99476000D01*
X58294800Y-99476000D02*
X60769800Y-99476000D01*
X53374800Y-99436000D02*
X55812800Y-99436000D01*
X58294800Y-99436000D02*
X60732800Y-99436000D01*
X53413800Y-99396000D02*
X55812800Y-99396000D01*
X58294800Y-99396000D02*
X60693800Y-99396000D01*
X53452800Y-99356000D02*
X55812800Y-99356000D01*
X58294800Y-99356000D02*
X60654800Y-99356000D01*
X53492800Y-99316000D02*
X55812800Y-99316000D01*
X58294800Y-99316000D02*
X60614800Y-99316000D01*
X53533800Y-99276000D02*
X55812800Y-99276000D01*
X58294800Y-99276000D02*
X60573800Y-99276000D01*
X53575800Y-99236000D02*
X55812800Y-99236000D01*
X58294800Y-99236000D02*
X60531800Y-99236000D01*
X53617800Y-99196000D02*
X60489800Y-99196000D01*
X53661800Y-99156000D02*
X60445800Y-99156000D01*
X53706800Y-99116000D02*
X60400800Y-99116000D01*
X53752800Y-99076000D02*
X60354800Y-99076000D01*
X53799800Y-99036000D02*
X60307800Y-99036000D01*
X53847800Y-98996000D02*
X60259800Y-98996000D01*
X53897800Y-98956000D02*
X60209800Y-98956000D01*
X53947800Y-98916000D02*
X60159800Y-98916000D01*
X53999800Y-98876000D02*
X60107800Y-98876000D01*
X54053800Y-98836000D02*
X60053800Y-98836000D01*
X54108800Y-98796000D02*
X59998800Y-98796000D01*
X54164800Y-98756000D02*
X59942800Y-98756000D01*
X54223800Y-98716000D02*
X59883800Y-98716000D01*
X54283800Y-98676000D02*
X59823800Y-98676000D01*
X54344800Y-98636000D02*
X59762800Y-98636000D01*
X54408800Y-98596000D02*
X59698800Y-98596000D01*
X54474800Y-98556000D02*
X59632800Y-98556000D01*
X54543800Y-98516000D02*
X59563800Y-98516000D01*
X54614800Y-98476000D02*
X59492800Y-98476000D01*
X54688800Y-98436000D02*
X59418800Y-98436000D01*
X54764800Y-98396000D02*
X59342800Y-98396000D01*
X54844800Y-98356000D02*
X59262800Y-98356000D01*
X54928800Y-98316000D02*
X59178800Y-98316000D01*
X55016800Y-98276000D02*
X59090800Y-98276000D01*
X55109800Y-98236000D02*
X58997800Y-98236000D01*
X55207800Y-98196000D02*
X58899800Y-98196000D01*
X55311800Y-98156000D02*
X58795800Y-98156000D01*
X55423800Y-98116000D02*
X58683800Y-98116000D01*
X55543800Y-98076000D02*
X58563800Y-98076000D01*
X55675800Y-98036000D02*
X58431800Y-98036000D01*
X55823800Y-97996000D02*
X58283800Y-97996000D01*
X55991800Y-97956000D02*
X58115800Y-97956000D01*
X56191800Y-97916000D02*
X57915800Y-97916000D01*
X56454800Y-97876000D02*
X57652800Y-97876000D01*
X62173800Y-102957000D02*
G75*
G03*
X62173800Y-102957000I-5120000J0D01*
G01*
%TO.C,Y1*%
X27978863Y-47090217D02*
G75*
G03*
X27979144Y-45190000I-732863J950217D01*
G01*
X26512856Y-45190000D02*
G75*
G03*
X26513137Y-47090217I733144J-950000D01*
G01*
%TO.C,D4*%
X83229000Y-46541000D02*
X80039000Y-46541000D01*
X80039000Y-47661000D02*
X80039000Y-45421000D01*
X80039000Y-45421000D02*
X75799000Y-45421000D01*
X79439000Y-47661000D02*
X79439000Y-45421000D01*
X79319000Y-47661000D02*
X79319000Y-45421000D01*
X79199000Y-47661000D02*
X79199000Y-45421000D01*
X75799000Y-47661000D02*
X80039000Y-47661000D01*
X75799000Y-45421000D02*
X75799000Y-47661000D01*
X72609000Y-46541000D02*
X75799000Y-46541000D01*
%TO.C,RV1*%
X36045400Y-105556400D02*
X37140400Y-105556400D01*
X36045400Y-105556400D02*
X36045400Y-100515400D01*
X39992400Y-105556400D02*
X42141400Y-105556400D01*
X39992400Y-105556400D02*
X42141400Y-105556400D01*
X44991400Y-105556400D02*
X46086400Y-105556400D01*
X46086400Y-105556400D02*
X46086400Y-100515400D01*
X39446400Y-104198400D02*
X39446400Y-100515400D01*
X42686400Y-104198400D02*
X42686400Y-100515400D01*
X36045400Y-100515400D02*
X39994400Y-100515400D01*
X39446400Y-100515400D02*
X39994400Y-100515400D01*
X42139400Y-100515400D02*
X42686400Y-100515400D01*
X42139400Y-100515400D02*
X46086400Y-100515400D01*
%TO.C,C27*%
X36612000Y-67877000D02*
G75*
G03*
X36612000Y-67877000I-3270000J0D01*
G01*
%TO.C,D30*%
X27410600Y-76098400D02*
X30600600Y-76098400D01*
X30600600Y-74978400D02*
X30600600Y-77218400D01*
X30600600Y-77218400D02*
X34840600Y-77218400D01*
X31200600Y-74978400D02*
X31200600Y-77218400D01*
X31320600Y-74978400D02*
X31320600Y-77218400D01*
X31440600Y-74978400D02*
X31440600Y-77218400D01*
X34840600Y-74978400D02*
X30600600Y-74978400D01*
X34840600Y-77218400D02*
X34840600Y-74978400D01*
X38030600Y-76098400D02*
X34840600Y-76098400D01*
%TO.C,R3*%
X129989000Y-48851000D02*
X129989000Y-49621000D01*
X131359000Y-49621000D02*
X128619000Y-49621000D01*
X128619000Y-49621000D02*
X128619000Y-56161000D01*
X131359000Y-56161000D02*
X131359000Y-49621000D01*
X128619000Y-56161000D02*
X131359000Y-56161000D01*
X129989000Y-56931000D02*
X129989000Y-56161000D01*
%TO.C,D5*%
X83229000Y-49716000D02*
X80039000Y-49716000D01*
X80039000Y-50836000D02*
X80039000Y-48596000D01*
X80039000Y-48596000D02*
X75799000Y-48596000D01*
X79439000Y-50836000D02*
X79439000Y-48596000D01*
X79319000Y-50836000D02*
X79319000Y-48596000D01*
X79199000Y-50836000D02*
X79199000Y-48596000D01*
X75799000Y-50836000D02*
X80039000Y-50836000D01*
X75799000Y-48596000D02*
X75799000Y-50836000D01*
X72609000Y-49716000D02*
X75799000Y-49716000D01*
%TO.C,C6*%
X114151800Y-88569800D02*
G75*
G03*
X114151800Y-88569800I-3270000J0D01*
G01*
%TO.C,U8*%
X107178800Y-102888800D02*
X107178800Y-98247800D01*
X110447800Y-102888800D02*
X110447800Y-101378800D01*
X114148800Y-102888800D02*
X114148800Y-101378800D01*
X117418800Y-98247800D02*
X107178800Y-98247800D01*
X117418800Y-101378800D02*
X107178800Y-101378800D01*
X117418800Y-102888800D02*
X107178800Y-102888800D01*
X117418800Y-102888800D02*
X117418800Y-98247800D01*
%TO.C,D9*%
X44796000Y-56701000D02*
X47986000Y-56701000D01*
X47986000Y-55581000D02*
X47986000Y-57821000D01*
X47986000Y-57821000D02*
X52226000Y-57821000D01*
X48586000Y-55581000D02*
X48586000Y-57821000D01*
X48706000Y-55581000D02*
X48706000Y-57821000D01*
X48826000Y-55581000D02*
X48826000Y-57821000D01*
X52226000Y-55581000D02*
X47986000Y-55581000D01*
X52226000Y-57821000D02*
X52226000Y-55581000D01*
X55416000Y-56701000D02*
X52226000Y-56701000D01*
%TO.C,C26*%
X36925000Y-70517000D02*
X39665000Y-70517000D01*
X36925000Y-70517000D02*
X36925000Y-65277000D01*
X39665000Y-70517000D02*
X39665000Y-65277000D01*
X36925000Y-65277000D02*
X39665000Y-65277000D01*
%TO.C,D28*%
X67494600Y-82829400D02*
X64304600Y-82829400D01*
X64304600Y-83949400D02*
X64304600Y-81709400D01*
X64304600Y-81709400D02*
X60064600Y-81709400D01*
X63704600Y-83949400D02*
X63704600Y-81709400D01*
X63584600Y-83949400D02*
X63584600Y-81709400D01*
X63464600Y-83949400D02*
X63464600Y-81709400D01*
X60064600Y-83949400D02*
X64304600Y-83949400D01*
X60064600Y-81709400D02*
X60064600Y-83949400D01*
X56874600Y-82829400D02*
X60064600Y-82829400D01*
%TO.C,Q7*%
X63799600Y-107848400D02*
X63799600Y-109523400D01*
X63799600Y-107848400D02*
X63799600Y-107198400D01*
X66919600Y-107848400D02*
X66919600Y-108498400D01*
X66919600Y-107848400D02*
X66919600Y-107198400D01*
%TO.C,R21*%
X110709000Y-43991000D02*
X111479000Y-43991000D01*
X111479000Y-42621000D02*
X111479000Y-45361000D01*
X111479000Y-45361000D02*
X118019000Y-45361000D01*
X118019000Y-42621000D02*
X111479000Y-42621000D01*
X118019000Y-45361000D02*
X118019000Y-42621000D01*
X118789000Y-43991000D02*
X118019000Y-43991000D01*
%TO.C,J1*%
X86508600Y-84099400D02*
X86508600Y-94319400D01*
X86508600Y-84099400D02*
X89168600Y-84099400D01*
X86508600Y-94319400D02*
X89168600Y-94319400D01*
X87838600Y-81499400D02*
X89168600Y-81499400D01*
X89168600Y-81499400D02*
X89168600Y-82829400D01*
X89168600Y-84099400D02*
X89168600Y-94319400D01*
%TO.C,D3*%
X44796000Y-44890000D02*
X47986000Y-44890000D01*
X47986000Y-43770000D02*
X47986000Y-46010000D01*
X47986000Y-46010000D02*
X52226000Y-46010000D01*
X48586000Y-43770000D02*
X48586000Y-46010000D01*
X48706000Y-43770000D02*
X48706000Y-46010000D01*
X48826000Y-43770000D02*
X48826000Y-46010000D01*
X52226000Y-43770000D02*
X47986000Y-43770000D01*
X52226000Y-46010000D02*
X52226000Y-43770000D01*
X55416000Y-44890000D02*
X52226000Y-44890000D01*
%TO.C,D24*%
X120189000Y-77117000D02*
X120345000Y-77117000D01*
X122505000Y-77117000D02*
X122661000Y-77117000D01*
X120346392Y-73884666D02*
G75*
G03*
X120189485Y-77116999I1078608J-1672334D01*
G01*
X120345164Y-74515871D02*
G75*
G03*
X120345001Y-76597960I1079836J-1041129D01*
G01*
X122504999Y-76597960D02*
G75*
G03*
X122504836Y-74515871I-1079999J1040960D01*
G01*
X122660515Y-77116999D02*
G75*
G03*
X122503608Y-73884666I-1235515J1559999D01*
G01*
%TO.C,Q5*%
X69643600Y-101203400D02*
X69487600Y-101203400D01*
X67327600Y-101203400D02*
X67171600Y-101203400D01*
X69486208Y-104435734D02*
G75*
G03*
X69643115Y-101203401I-1078608J1672334D01*
G01*
X69487436Y-103804529D02*
G75*
G03*
X69487599Y-101722440I-1079836J1041129D01*
G01*
X67327601Y-101722440D02*
G75*
G03*
X67327764Y-103804529I1079999J-1040960D01*
G01*
X67172085Y-101203401D02*
G75*
G03*
X67328992Y-104435734I1235515J-1559999D01*
G01*
%TO.C,D22*%
X127542000Y-66914200D02*
X127698000Y-66914200D01*
X129858000Y-66914200D02*
X130014000Y-66914200D01*
X127699392Y-63681866D02*
G75*
G03*
X127542485Y-66914199I1078608J-1672334D01*
G01*
X127698164Y-64313071D02*
G75*
G03*
X127698001Y-66395160I1079836J-1041129D01*
G01*
X129857999Y-66395160D02*
G75*
G03*
X129857836Y-64313071I-1079999J1040960D01*
G01*
X130013515Y-66914199D02*
G75*
G03*
X129856608Y-63681866I-1235515J1559999D01*
G01*
%TO.C,D1*%
X123896800Y-33884000D02*
X120806800Y-33884000D01*
X122351338Y-39433999D02*
G75*
G03*
X123896630Y-33884001I462J2989999D01*
G01*
X120806970Y-33884000D02*
G75*
G03*
X122352262Y-39434000I1544830J-2560000D01*
G01*
X124851800Y-36444000D02*
G75*
G03*
X124851800Y-36444000I-2500000J0D01*
G01*
%TO.C,U1*%
X69333000Y-64197000D02*
X69333000Y-43637000D01*
X69333000Y-43637000D02*
X59053000Y-43637000D01*
X66843000Y-64137000D02*
X66843000Y-43697000D01*
X66843000Y-43697000D02*
X61543000Y-43697000D01*
X65193000Y-64137000D02*
X66843000Y-64137000D01*
X61543000Y-64137000D02*
X63193000Y-64137000D01*
X61543000Y-43697000D02*
X61543000Y-64137000D01*
X59053000Y-64197000D02*
X69333000Y-64197000D01*
X59053000Y-43637000D02*
X59053000Y-64197000D01*
X65193000Y-64137000D02*
G75*
G03*
X63193000Y-64137000I-1000000J0D01*
G01*
%TO.C,D20*%
X55416000Y-59241000D02*
X52226000Y-59241000D01*
X52226000Y-60361000D02*
X52226000Y-58121000D01*
X52226000Y-58121000D02*
X47986000Y-58121000D01*
X51626000Y-60361000D02*
X51626000Y-58121000D01*
X51506000Y-60361000D02*
X51506000Y-58121000D01*
X51386000Y-60361000D02*
X51386000Y-58121000D01*
X47986000Y-60361000D02*
X52226000Y-60361000D01*
X47986000Y-58121000D02*
X47986000Y-60361000D01*
X44796000Y-59241000D02*
X47986000Y-59241000D01*
%TO.C,C7*%
X66643000Y-70497000D02*
X69383000Y-70497000D01*
X66643000Y-70497000D02*
X66643000Y-65257000D01*
X69383000Y-70497000D02*
X69383000Y-65257000D01*
X66643000Y-65257000D02*
X69383000Y-65257000D01*
%TO.C,D13*%
X116911800Y-33889000D02*
X113821800Y-33889000D01*
X115366338Y-39438999D02*
G75*
G03*
X116911630Y-33889001I462J2989999D01*
G01*
X113821970Y-33889000D02*
G75*
G03*
X115367262Y-39439000I1544830J-2560000D01*
G01*
X117866800Y-36449000D02*
G75*
G03*
X117866800Y-36449000I-2500000J0D01*
G01*
%TO.C,D32*%
X67494600Y-95986600D02*
X64304600Y-95986600D01*
X64304600Y-97106600D02*
X64304600Y-94866600D01*
X64304600Y-94866600D02*
X60064600Y-94866600D01*
X63704600Y-97106600D02*
X63704600Y-94866600D01*
X63584600Y-97106600D02*
X63584600Y-94866600D01*
X63464600Y-97106600D02*
X63464600Y-94866600D01*
X60064600Y-97106600D02*
X64304600Y-97106600D01*
X60064600Y-94866600D02*
X60064600Y-97106600D01*
X56874600Y-95986600D02*
X60064600Y-95986600D01*
%TO.C,D7*%
X83229000Y-60384000D02*
X80039000Y-60384000D01*
X80039000Y-61504000D02*
X80039000Y-59264000D01*
X80039000Y-59264000D02*
X75799000Y-59264000D01*
X79439000Y-61504000D02*
X79439000Y-59264000D01*
X79319000Y-61504000D02*
X79319000Y-59264000D01*
X79199000Y-61504000D02*
X79199000Y-59264000D01*
X75799000Y-61504000D02*
X80039000Y-61504000D01*
X75799000Y-59264000D02*
X75799000Y-61504000D01*
X72609000Y-60384000D02*
X75799000Y-60384000D01*
%TO.C,R18*%
X112082000Y-68610000D02*
X112082000Y-67840000D01*
X110712000Y-67840000D02*
X113452000Y-67840000D01*
X113452000Y-67840000D02*
X113452000Y-61300000D01*
X110712000Y-61300000D02*
X110712000Y-67840000D01*
X113452000Y-61300000D02*
X110712000Y-61300000D01*
X112082000Y-60530000D02*
X112082000Y-61300000D01*
%TO.C,R1*%
X95966600Y-92178000D02*
X95966600Y-91408000D01*
X94596600Y-91408000D02*
X97336600Y-91408000D01*
X97336600Y-91408000D02*
X97336600Y-84868000D01*
X94596600Y-84868000D02*
X94596600Y-91408000D01*
X97336600Y-84868000D02*
X94596600Y-84868000D01*
X95966600Y-84098000D02*
X95966600Y-84868000D01*
%TO.C,C1*%
X107443000Y-39021000D02*
X107443000Y-36281000D01*
X107443000Y-39021000D02*
X102203000Y-39021000D01*
X107443000Y-36281000D02*
X102203000Y-36281000D01*
X102203000Y-39021000D02*
X102203000Y-36281000D01*
%TO.C,D29*%
X67494600Y-87909400D02*
X64304600Y-87909400D01*
X64304600Y-89029400D02*
X64304600Y-86789400D01*
X64304600Y-86789400D02*
X60064600Y-86789400D01*
X63704600Y-89029400D02*
X63704600Y-86789400D01*
X63584600Y-89029400D02*
X63584600Y-86789400D01*
X63464600Y-89029400D02*
X63464600Y-86789400D01*
X60064600Y-89029400D02*
X64304600Y-89029400D01*
X60064600Y-86789400D02*
X60064600Y-89029400D01*
X56874600Y-87909400D02*
X60064600Y-87909400D01*
%TO.C,C3*%
X121233000Y-92760800D02*
G75*
G03*
X121233000Y-92760800I-3270000J0D01*
G01*
%TO.C,R12*%
X116781000Y-68610000D02*
X116781000Y-67840000D01*
X115411000Y-67840000D02*
X118151000Y-67840000D01*
X118151000Y-67840000D02*
X118151000Y-61300000D01*
X115411000Y-61300000D02*
X115411000Y-67840000D01*
X118151000Y-61300000D02*
X115411000Y-61300000D01*
X116781000Y-60530000D02*
X116781000Y-61300000D01*
%TO.C,R4*%
X90389000Y-69655000D02*
X91159000Y-69655000D01*
X91159000Y-68285000D02*
X91159000Y-71025000D01*
X91159000Y-71025000D02*
X97699000Y-71025000D01*
X97699000Y-68285000D02*
X91159000Y-68285000D01*
X97699000Y-71025000D02*
X97699000Y-68285000D01*
X98469000Y-69655000D02*
X97699000Y-69655000D01*
%TO.C,R16*%
X26974800Y-58672600D02*
X26974800Y-59442600D01*
X28344800Y-59442600D02*
X25604800Y-59442600D01*
X25604800Y-59442600D02*
X25604800Y-65982600D01*
X28344800Y-65982600D02*
X28344800Y-59442600D01*
X25604800Y-65982600D02*
X28344800Y-65982600D01*
X26974800Y-66752600D02*
X26974800Y-65982600D01*
%TO.C,R11*%
X120337000Y-68610000D02*
X120337000Y-67840000D01*
X118967000Y-67840000D02*
X121707000Y-67840000D01*
X121707000Y-67840000D02*
X121707000Y-61300000D01*
X118967000Y-61300000D02*
X118967000Y-67840000D01*
X121707000Y-61300000D02*
X118967000Y-61300000D01*
X120337000Y-60530000D02*
X120337000Y-61300000D01*
%TO.C,R33*%
X52876000Y-48065000D02*
X52106000Y-48065000D01*
X52106000Y-49435000D02*
X52106000Y-46695000D01*
X52106000Y-46695000D02*
X45566000Y-46695000D01*
X45566000Y-49435000D02*
X52106000Y-49435000D01*
X45566000Y-46695000D02*
X45566000Y-49435000D01*
X44796000Y-48065000D02*
X45566000Y-48065000D01*
%TO.C,C9*%
X98702800Y-43280000D02*
X98702800Y-40540000D01*
X98702800Y-43280000D02*
X93462800Y-43280000D01*
X98702800Y-40540000D02*
X93462800Y-40540000D01*
X93462800Y-43280000D02*
X93462800Y-40540000D01*
%TO.C,R13*%
X99903600Y-83945600D02*
X99903600Y-84715600D01*
X101273600Y-84715600D02*
X98533600Y-84715600D01*
X98533600Y-84715600D02*
X98533600Y-91255600D01*
X101273600Y-91255600D02*
X101273600Y-84715600D01*
X98533600Y-91255600D02*
X101273600Y-91255600D01*
X99903600Y-92025600D02*
X99903600Y-91255600D01*
%TO.C,D19*%
X55416000Y-61908000D02*
X52226000Y-61908000D01*
X52226000Y-63028000D02*
X52226000Y-60788000D01*
X52226000Y-60788000D02*
X47986000Y-60788000D01*
X51626000Y-63028000D02*
X51626000Y-60788000D01*
X51506000Y-63028000D02*
X51506000Y-60788000D01*
X51386000Y-63028000D02*
X51386000Y-60788000D01*
X47986000Y-63028000D02*
X52226000Y-63028000D01*
X47986000Y-60788000D02*
X47986000Y-63028000D01*
X44796000Y-61908000D02*
X47986000Y-61908000D01*
%TO.C,C4*%
X120583000Y-88796800D02*
X120583000Y-86056800D01*
X120583000Y-88796800D02*
X115343000Y-88796800D01*
X120583000Y-86056800D02*
X115343000Y-86056800D01*
X115343000Y-88796800D02*
X115343000Y-86056800D01*
%TO.C,D21*%
X72609000Y-57844000D02*
X75799000Y-57844000D01*
X75799000Y-56724000D02*
X75799000Y-58964000D01*
X75799000Y-58964000D02*
X80039000Y-58964000D01*
X76399000Y-56724000D02*
X76399000Y-58964000D01*
X76519000Y-56724000D02*
X76519000Y-58964000D01*
X76639000Y-56724000D02*
X76639000Y-58964000D01*
X80039000Y-56724000D02*
X75799000Y-56724000D01*
X80039000Y-58964000D02*
X80039000Y-56724000D01*
X83229000Y-57844000D02*
X80039000Y-57844000D01*
%TO.C,U5*%
X105765000Y-56701000D02*
X126325000Y-56701000D01*
X126325000Y-56701000D02*
X126325000Y-46421000D01*
X105825000Y-54211000D02*
X126265000Y-54211000D01*
X126265000Y-54211000D02*
X126265000Y-48911000D01*
X105825000Y-52561000D02*
X105825000Y-54211000D01*
X105825000Y-48911000D02*
X105825000Y-50561000D01*
X126265000Y-48911000D02*
X105825000Y-48911000D01*
X105765000Y-46421000D02*
X105765000Y-56701000D01*
X126325000Y-46421000D02*
X105765000Y-46421000D01*
X105825000Y-52561000D02*
G75*
G03*
X105825000Y-50561000I0J1000000D01*
G01*
%TO.C,U10*%
X74301600Y-84038400D02*
X74301600Y-104598400D01*
X74301600Y-104598400D02*
X84581600Y-104598400D01*
X76791600Y-84098400D02*
X76791600Y-104538400D01*
X76791600Y-104538400D02*
X82091600Y-104538400D01*
X78441600Y-84098400D02*
X76791600Y-84098400D01*
X82091600Y-84098400D02*
X80441600Y-84098400D01*
X82091600Y-104538400D02*
X82091600Y-84098400D01*
X84581600Y-84038400D02*
X74301600Y-84038400D01*
X84581600Y-104598400D02*
X84581600Y-84038400D01*
X78441600Y-84098400D02*
G75*
G03*
X80441600Y-84098400I1000000J0D01*
G01*
%TO.C,D8*%
X83229000Y-54923000D02*
X80039000Y-54923000D01*
X80039000Y-56043000D02*
X80039000Y-53803000D01*
X80039000Y-53803000D02*
X75799000Y-53803000D01*
X79439000Y-56043000D02*
X79439000Y-53803000D01*
X79319000Y-56043000D02*
X79319000Y-53803000D01*
X79199000Y-56043000D02*
X79199000Y-53803000D01*
X75799000Y-56043000D02*
X80039000Y-56043000D01*
X75799000Y-53803000D02*
X75799000Y-56043000D01*
X72609000Y-54923000D02*
X75799000Y-54923000D01*
%TO.C,C5*%
X113501800Y-81357800D02*
X113501800Y-84097800D01*
X108261800Y-84097800D02*
X113501800Y-84097800D01*
X108261800Y-81357800D02*
X113501800Y-81357800D01*
X108261800Y-81357800D02*
X108261800Y-84097800D01*
%TO.C,R15*%
X22834600Y-58672600D02*
X22834600Y-59442600D01*
X24204600Y-59442600D02*
X21464600Y-59442600D01*
X21464600Y-59442600D02*
X21464600Y-65982600D01*
X24204600Y-65982600D02*
X24204600Y-59442600D01*
X21464600Y-65982600D02*
X24204600Y-65982600D01*
X22834600Y-66752600D02*
X22834600Y-65982600D01*
%TO.C,D10*%
X44796000Y-53018000D02*
X47986000Y-53018000D01*
X47986000Y-51898000D02*
X47986000Y-54138000D01*
X47986000Y-54138000D02*
X52226000Y-54138000D01*
X48586000Y-51898000D02*
X48586000Y-54138000D01*
X48706000Y-51898000D02*
X48706000Y-54138000D01*
X48826000Y-51898000D02*
X48826000Y-54138000D01*
X52226000Y-51898000D02*
X47986000Y-51898000D01*
X52226000Y-54138000D02*
X52226000Y-51898000D01*
X55416000Y-53018000D02*
X52226000Y-53018000D01*
%TO.C,C12*%
X64286200Y-76296200D02*
G75*
G03*
X64286200Y-76296200I-3270000J0D01*
G01*
%TO.C,J3*%
X117963000Y-81651800D02*
X120563000Y-81651800D01*
X115363000Y-81651800D02*
X116693000Y-81651800D01*
X115363000Y-82981800D02*
X115363000Y-81651800D01*
X120563000Y-84311800D02*
X120563000Y-81651800D01*
X117963000Y-84311800D02*
X117963000Y-81651800D01*
X117963000Y-84311800D02*
X120563000Y-84311800D01*
%TO.C,U9*%
X88135000Y-50971000D02*
X88135000Y-61371000D01*
X88135000Y-61371000D02*
X98415000Y-61371000D01*
X90625000Y-51031000D02*
X90625000Y-61311000D01*
X90625000Y-61311000D02*
X95925000Y-61311000D01*
X92275000Y-51031000D02*
X90625000Y-51031000D01*
X95925000Y-51031000D02*
X94275000Y-51031000D01*
X95925000Y-61311000D02*
X95925000Y-51031000D01*
X98415000Y-50971000D02*
X88135000Y-50971000D01*
X98415000Y-61371000D02*
X98415000Y-50971000D01*
X92275000Y-51031000D02*
G75*
G03*
X94275000Y-51031000I1000000J0D01*
G01*
%TO.C,D18*%
X72609000Y-63178000D02*
X75799000Y-63178000D01*
X75799000Y-62058000D02*
X75799000Y-64298000D01*
X75799000Y-64298000D02*
X80039000Y-64298000D01*
X76399000Y-62058000D02*
X76399000Y-64298000D01*
X76519000Y-62058000D02*
X76519000Y-64298000D01*
X76639000Y-62058000D02*
X76639000Y-64298000D01*
X80039000Y-62058000D02*
X75799000Y-62058000D01*
X80039000Y-64298000D02*
X80039000Y-62058000D01*
X83229000Y-63178000D02*
X80039000Y-63178000D01*
%TO.C,C2*%
X108133000Y-42604000D02*
G75*
G03*
X108133000Y-42604000I-3270000J0D01*
G01*
%TO.C,R14*%
X104267000Y-68429000D02*
X104267000Y-67659000D01*
X102897000Y-67659000D02*
X105637000Y-67659000D01*
X105637000Y-67659000D02*
X105637000Y-61119000D01*
X102897000Y-61119000D02*
X102897000Y-67659000D01*
X105637000Y-61119000D02*
X102897000Y-61119000D01*
X104267000Y-60349000D02*
X104267000Y-61119000D01*
%TO.C,R6*%
X22801000Y-50307000D02*
X22801000Y-49537000D01*
X21431000Y-49537000D02*
X24171000Y-49537000D01*
X24171000Y-49537000D02*
X24171000Y-42997000D01*
X21431000Y-42997000D02*
X21431000Y-49537000D01*
X24171000Y-42997000D02*
X21431000Y-42997000D01*
X22801000Y-42227000D02*
X22801000Y-42997000D01*
%TO.C,C24*%
X28616000Y-49469000D02*
X25876000Y-49469000D01*
X28616000Y-49469000D02*
X28616000Y-54709000D01*
X25876000Y-49469000D02*
X25876000Y-54709000D01*
X28616000Y-54709000D02*
X25876000Y-54709000D01*
%TO.C,D6*%
X83229000Y-52383000D02*
X80039000Y-52383000D01*
X80039000Y-53503000D02*
X80039000Y-51263000D01*
X80039000Y-51263000D02*
X75799000Y-51263000D01*
X79439000Y-53503000D02*
X79439000Y-51263000D01*
X79319000Y-53503000D02*
X79319000Y-51263000D01*
X79199000Y-53503000D02*
X79199000Y-51263000D01*
X75799000Y-53503000D02*
X80039000Y-53503000D01*
X75799000Y-51263000D02*
X75799000Y-53503000D01*
X72609000Y-52383000D02*
X75799000Y-52383000D01*
%TO.C,D2*%
X72811200Y-39505600D02*
X72811200Y-39661600D01*
X72811200Y-41821600D02*
X72811200Y-41977600D01*
X76043534Y-39662992D02*
G75*
G03*
X72811201Y-39506085I-1672334J-1078608D01*
G01*
X75412329Y-39661764D02*
G75*
G03*
X73330240Y-39661601I-1041129J-1079836D01*
G01*
X73330240Y-41821599D02*
G75*
G03*
X75412329Y-41821436I1040960J1079999D01*
G01*
X72811201Y-41977115D02*
G75*
G03*
X76043534Y-41820208I1559999J1235515D01*
G01*
%TO.C,R7*%
X90321000Y-73660000D02*
X91091000Y-73660000D01*
X91091000Y-72290000D02*
X91091000Y-75030000D01*
X91091000Y-75030000D02*
X97631000Y-75030000D01*
X97631000Y-72290000D02*
X91091000Y-72290000D01*
X97631000Y-75030000D02*
X97631000Y-72290000D01*
X98401000Y-73660000D02*
X97631000Y-73660000D01*
%TO.C,D15*%
X27410600Y-87274400D02*
X30600600Y-87274400D01*
X30600600Y-86154400D02*
X30600600Y-88394400D01*
X30600600Y-88394400D02*
X34840600Y-88394400D01*
X31200600Y-86154400D02*
X31200600Y-88394400D01*
X31320600Y-86154400D02*
X31320600Y-88394400D01*
X31440600Y-86154400D02*
X31440600Y-88394400D01*
X34840600Y-86154400D02*
X30600600Y-86154400D01*
X34840600Y-88394400D02*
X34840600Y-86154400D01*
X38030600Y-87274400D02*
X34840600Y-87274400D01*
%TO.C,C25*%
X25876000Y-43299000D02*
X28616000Y-43299000D01*
X25876000Y-43299000D02*
X25876000Y-38059000D01*
X28616000Y-43299000D02*
X28616000Y-38059000D01*
X25876000Y-38059000D02*
X28616000Y-38059000D01*
%TO.C,D23*%
X125142000Y-77117000D02*
X125298000Y-77117000D01*
X127458000Y-77117000D02*
X127614000Y-77117000D01*
X125299392Y-73884666D02*
G75*
G03*
X125142485Y-77116999I1078608J-1672334D01*
G01*
X125298164Y-74515871D02*
G75*
G03*
X125298001Y-76597960I1079836J-1041129D01*
G01*
X127457999Y-76597960D02*
G75*
G03*
X127457836Y-74515871I-1079999J1040960D01*
G01*
X127613515Y-77116999D02*
G75*
G03*
X127456608Y-73884666I-1235515J1559999D01*
G01*
%TO.C,D17*%
X27410600Y-79146400D02*
X30600600Y-79146400D01*
X30600600Y-78026400D02*
X30600600Y-80266400D01*
X30600600Y-80266400D02*
X34840600Y-80266400D01*
X31200600Y-78026400D02*
X31200600Y-80266400D01*
X31320600Y-78026400D02*
X31320600Y-80266400D01*
X31440600Y-78026400D02*
X31440600Y-80266400D01*
X34840600Y-78026400D02*
X30600600Y-78026400D01*
X34840600Y-80266400D02*
X34840600Y-78026400D01*
X38030600Y-79146400D02*
X34840600Y-79146400D01*
%TO.C,D14*%
X27410600Y-84734400D02*
X30600600Y-84734400D01*
X30600600Y-83614400D02*
X30600600Y-85854400D01*
X30600600Y-85854400D02*
X34840600Y-85854400D01*
X31200600Y-83614400D02*
X31200600Y-85854400D01*
X31320600Y-83614400D02*
X31320600Y-85854400D01*
X31440600Y-83614400D02*
X31440600Y-85854400D01*
X34840600Y-83614400D02*
X30600600Y-83614400D01*
X34840600Y-85854400D02*
X34840600Y-83614400D01*
X38030600Y-84734400D02*
X34840600Y-84734400D01*
%TO.C,D27*%
X67494600Y-93243400D02*
X64304600Y-93243400D01*
X64304600Y-94363400D02*
X64304600Y-92123400D01*
X64304600Y-92123400D02*
X60064600Y-92123400D01*
X63704600Y-94363400D02*
X63704600Y-92123400D01*
X63584600Y-94363400D02*
X63584600Y-92123400D01*
X63464600Y-94363400D02*
X63464600Y-92123400D01*
X60064600Y-94363400D02*
X64304600Y-94363400D01*
X60064600Y-92123400D02*
X60064600Y-94363400D01*
X56874600Y-93243400D02*
X60064600Y-93243400D01*
%TD*%
D12*
D13*
X132967796Y-30685828D02*
X132253510Y-30685828D01*
X132253510Y-30685828D02*
X132182082Y-31400114D01*
X132182082Y-31400114D02*
X132253510Y-31328685D01*
X132253510Y-31328685D02*
X132396368Y-31257257D01*
X132396368Y-31257257D02*
X132753510Y-31257257D01*
X132753510Y-31257257D02*
X132896368Y-31328685D01*
X132896368Y-31328685D02*
X132967796Y-31400114D01*
X132967796Y-31400114D02*
X133039225Y-31542971D01*
X133039225Y-31542971D02*
X133039225Y-31900114D01*
X133039225Y-31900114D02*
X132967796Y-32042971D01*
X132967796Y-32042971D02*
X132896368Y-32114400D01*
X132896368Y-32114400D02*
X132753510Y-32185828D01*
X132753510Y-32185828D02*
X132396368Y-32185828D01*
X132396368Y-32185828D02*
X132253510Y-32114400D01*
X132253510Y-32114400D02*
X132182082Y-32042971D01*
X133467796Y-30685828D02*
X133967796Y-32185828D01*
X133967796Y-32185828D02*
X134467796Y-30685828D01*
D12*
D13*
X77163996Y-71605228D02*
X76449710Y-71605228D01*
X76449710Y-71605228D02*
X76378282Y-72319514D01*
X76378282Y-72319514D02*
X76449710Y-72248085D01*
X76449710Y-72248085D02*
X76592568Y-72176657D01*
X76592568Y-72176657D02*
X76949710Y-72176657D01*
X76949710Y-72176657D02*
X77092568Y-72248085D01*
X77092568Y-72248085D02*
X77163996Y-72319514D01*
X77163996Y-72319514D02*
X77235425Y-72462371D01*
X77235425Y-72462371D02*
X77235425Y-72819514D01*
X77235425Y-72819514D02*
X77163996Y-72962371D01*
X77163996Y-72962371D02*
X77092568Y-73033800D01*
X77092568Y-73033800D02*
X76949710Y-73105228D01*
X76949710Y-73105228D02*
X76592568Y-73105228D01*
X76592568Y-73105228D02*
X76449710Y-73033800D01*
X76449710Y-73033800D02*
X76378282Y-72962371D01*
X77663996Y-71605228D02*
X78163996Y-73105228D01*
X78163996Y-73105228D02*
X78663996Y-71605228D01*
D12*
D13*
X22936682Y-33724285D02*
X23008110Y-33652857D01*
X23008110Y-33652857D02*
X23150968Y-33581428D01*
X23150968Y-33581428D02*
X23508110Y-33581428D01*
X23508110Y-33581428D02*
X23650968Y-33652857D01*
X23650968Y-33652857D02*
X23722396Y-33724285D01*
X23722396Y-33724285D02*
X23793825Y-33867142D01*
X23793825Y-33867142D02*
X23793825Y-34010000D01*
X23793825Y-34010000D02*
X23722396Y-34224285D01*
X23722396Y-34224285D02*
X22865253Y-35081428D01*
X22865253Y-35081428D02*
X23793825Y-35081428D01*
X24365253Y-33724285D02*
X24436681Y-33652857D01*
X24436681Y-33652857D02*
X24579539Y-33581428D01*
X24579539Y-33581428D02*
X24936681Y-33581428D01*
X24936681Y-33581428D02*
X25079539Y-33652857D01*
X25079539Y-33652857D02*
X25150967Y-33724285D01*
X25150967Y-33724285D02*
X25222396Y-33867142D01*
X25222396Y-33867142D02*
X25222396Y-34010000D01*
X25222396Y-34010000D02*
X25150967Y-34224285D01*
X25150967Y-34224285D02*
X24293824Y-35081428D01*
X24293824Y-35081428D02*
X25222396Y-35081428D01*
X25865252Y-34081428D02*
X25865252Y-35581428D01*
X25865252Y-34152857D02*
X26008110Y-34081428D01*
X26008110Y-34081428D02*
X26293824Y-34081428D01*
X26293824Y-34081428D02*
X26436681Y-34152857D01*
X26436681Y-34152857D02*
X26508110Y-34224285D01*
X26508110Y-34224285D02*
X26579538Y-34367142D01*
X26579538Y-34367142D02*
X26579538Y-34795714D01*
X26579538Y-34795714D02*
X26508110Y-34938571D01*
X26508110Y-34938571D02*
X26436681Y-35010000D01*
X26436681Y-35010000D02*
X26293824Y-35081428D01*
X26293824Y-35081428D02*
X26008110Y-35081428D01*
X26008110Y-35081428D02*
X25865252Y-35010000D01*
X27722395Y-34295714D02*
X27222395Y-34295714D01*
X27222395Y-35081428D02*
X27222395Y-33581428D01*
X27222395Y-33581428D02*
X27936681Y-33581428D01*
X29508109Y-35081428D02*
X30293824Y-34081428D01*
X29508109Y-34081428D02*
X30293824Y-35081428D01*
X31936681Y-33724285D02*
X32008109Y-33652857D01*
X32008109Y-33652857D02*
X32150967Y-33581428D01*
X32150967Y-33581428D02*
X32508109Y-33581428D01*
X32508109Y-33581428D02*
X32650967Y-33652857D01*
X32650967Y-33652857D02*
X32722395Y-33724285D01*
X32722395Y-33724285D02*
X32793824Y-33867142D01*
X32793824Y-33867142D02*
X32793824Y-34010000D01*
X32793824Y-34010000D02*
X32722395Y-34224285D01*
X32722395Y-34224285D02*
X31865252Y-35081428D01*
X31865252Y-35081428D02*
X32793824Y-35081428D01*
D12*
D13*
X23092168Y-89986828D02*
X23092168Y-90986828D01*
X22735025Y-89415400D02*
X22377882Y-90486828D01*
X22377882Y-90486828D02*
X23306453Y-90486828D01*
X23735024Y-89486828D02*
X24735024Y-89486828D01*
X24735024Y-89486828D02*
X24092167Y-90986828D01*
X25306452Y-90986828D02*
X25306452Y-89486828D01*
X26163595Y-90986828D02*
X25520738Y-90129685D01*
X26163595Y-89486828D02*
X25306452Y-90343971D01*
D12*
D13*
X69642510Y-115091428D02*
X69642510Y-113591428D01*
X71213939Y-115091428D02*
X70713939Y-114377142D01*
X70356796Y-115091428D02*
X70356796Y-113591428D01*
X70356796Y-113591428D02*
X70928225Y-113591428D01*
X70928225Y-113591428D02*
X71071082Y-113662857D01*
X71071082Y-113662857D02*
X71142511Y-113734285D01*
X71142511Y-113734285D02*
X71213939Y-113877142D01*
X71213939Y-113877142D02*
X71213939Y-114091428D01*
X71213939Y-114091428D02*
X71142511Y-114234285D01*
X71142511Y-114234285D02*
X71071082Y-114305714D01*
X71071082Y-114305714D02*
X70928225Y-114377142D01*
X70928225Y-114377142D02*
X70356796Y-114377142D01*
X71499654Y-115234285D02*
X72642511Y-115234285D01*
X72785368Y-113591428D02*
X73642511Y-113591428D01*
X73213939Y-115091428D02*
X73213939Y-113591428D01*
X74999653Y-115091428D02*
X74499653Y-114377142D01*
X74142510Y-115091428D02*
X74142510Y-113591428D01*
X74142510Y-113591428D02*
X74713939Y-113591428D01*
X74713939Y-113591428D02*
X74856796Y-113662857D01*
X74856796Y-113662857D02*
X74928225Y-113734285D01*
X74928225Y-113734285D02*
X74999653Y-113877142D01*
X74999653Y-113877142D02*
X74999653Y-114091428D01*
X74999653Y-114091428D02*
X74928225Y-114234285D01*
X74928225Y-114234285D02*
X74856796Y-114305714D01*
X74856796Y-114305714D02*
X74713939Y-114377142D01*
X74713939Y-114377142D02*
X74142510Y-114377142D01*
X75571082Y-114662857D02*
X76285368Y-114662857D01*
X75428225Y-115091428D02*
X75928225Y-113591428D01*
X75928225Y-113591428D02*
X76428225Y-115091428D01*
X76928224Y-115091428D02*
X76928224Y-113591428D01*
X76928224Y-113591428D02*
X77785367Y-115091428D01*
X77785367Y-115091428D02*
X77785367Y-113591428D01*
X78428225Y-115020000D02*
X78642511Y-115091428D01*
X78642511Y-115091428D02*
X78999653Y-115091428D01*
X78999653Y-115091428D02*
X79142511Y-115020000D01*
X79142511Y-115020000D02*
X79213939Y-114948571D01*
X79213939Y-114948571D02*
X79285368Y-114805714D01*
X79285368Y-114805714D02*
X79285368Y-114662857D01*
X79285368Y-114662857D02*
X79213939Y-114520000D01*
X79213939Y-114520000D02*
X79142511Y-114448571D01*
X79142511Y-114448571D02*
X78999653Y-114377142D01*
X78999653Y-114377142D02*
X78713939Y-114305714D01*
X78713939Y-114305714D02*
X78571082Y-114234285D01*
X78571082Y-114234285D02*
X78499653Y-114162857D01*
X78499653Y-114162857D02*
X78428225Y-114020000D01*
X78428225Y-114020000D02*
X78428225Y-113877142D01*
X78428225Y-113877142D02*
X78499653Y-113734285D01*
X78499653Y-113734285D02*
X78571082Y-113662857D01*
X78571082Y-113662857D02*
X78713939Y-113591428D01*
X78713939Y-113591428D02*
X79071082Y-113591428D01*
X79071082Y-113591428D02*
X79285368Y-113662857D01*
X79928224Y-115091428D02*
X79928224Y-113591428D01*
X80571082Y-115020000D02*
X80785368Y-115091428D01*
X80785368Y-115091428D02*
X81142510Y-115091428D01*
X81142510Y-115091428D02*
X81285368Y-115020000D01*
X81285368Y-115020000D02*
X81356796Y-114948571D01*
X81356796Y-114948571D02*
X81428225Y-114805714D01*
X81428225Y-114805714D02*
X81428225Y-114662857D01*
X81428225Y-114662857D02*
X81356796Y-114520000D01*
X81356796Y-114520000D02*
X81285368Y-114448571D01*
X81285368Y-114448571D02*
X81142510Y-114377142D01*
X81142510Y-114377142D02*
X80856796Y-114305714D01*
X80856796Y-114305714D02*
X80713939Y-114234285D01*
X80713939Y-114234285D02*
X80642510Y-114162857D01*
X80642510Y-114162857D02*
X80571082Y-114020000D01*
X80571082Y-114020000D02*
X80571082Y-113877142D01*
X80571082Y-113877142D02*
X80642510Y-113734285D01*
X80642510Y-113734285D02*
X80713939Y-113662857D01*
X80713939Y-113662857D02*
X80856796Y-113591428D01*
X80856796Y-113591428D02*
X81213939Y-113591428D01*
X81213939Y-113591428D02*
X81428225Y-113662857D01*
X81856796Y-113591428D02*
X82713939Y-113591428D01*
X82285367Y-115091428D02*
X82285367Y-113591428D01*
X83499653Y-113591428D02*
X83785367Y-113591428D01*
X83785367Y-113591428D02*
X83928224Y-113662857D01*
X83928224Y-113662857D02*
X84071081Y-113805714D01*
X84071081Y-113805714D02*
X84142510Y-114091428D01*
X84142510Y-114091428D02*
X84142510Y-114591428D01*
X84142510Y-114591428D02*
X84071081Y-114877142D01*
X84071081Y-114877142D02*
X83928224Y-115020000D01*
X83928224Y-115020000D02*
X83785367Y-115091428D01*
X83785367Y-115091428D02*
X83499653Y-115091428D01*
X83499653Y-115091428D02*
X83356796Y-115020000D01*
X83356796Y-115020000D02*
X83213938Y-114877142D01*
X83213938Y-114877142D02*
X83142510Y-114591428D01*
X83142510Y-114591428D02*
X83142510Y-114091428D01*
X83142510Y-114091428D02*
X83213938Y-113805714D01*
X83213938Y-113805714D02*
X83356796Y-113662857D01*
X83356796Y-113662857D02*
X83499653Y-113591428D01*
X85642510Y-115091428D02*
X85142510Y-114377142D01*
X84785367Y-115091428D02*
X84785367Y-113591428D01*
X84785367Y-113591428D02*
X85356796Y-113591428D01*
X85356796Y-113591428D02*
X85499653Y-113662857D01*
X85499653Y-113662857D02*
X85571082Y-113734285D01*
X85571082Y-113734285D02*
X85642510Y-113877142D01*
X85642510Y-113877142D02*
X85642510Y-114091428D01*
X85642510Y-114091428D02*
X85571082Y-114234285D01*
X85571082Y-114234285D02*
X85499653Y-114305714D01*
X85499653Y-114305714D02*
X85356796Y-114377142D01*
X85356796Y-114377142D02*
X84785367Y-114377142D01*
D12*
D13*
X114321110Y-31754028D02*
X114321110Y-30254028D01*
X115892539Y-31754028D02*
X115392539Y-31039742D01*
X115035396Y-31754028D02*
X115035396Y-30254028D01*
X115035396Y-30254028D02*
X115606825Y-30254028D01*
X115606825Y-30254028D02*
X115749682Y-30325457D01*
X115749682Y-30325457D02*
X115821111Y-30396885D01*
X115821111Y-30396885D02*
X115892539Y-30539742D01*
X115892539Y-30539742D02*
X115892539Y-30754028D01*
X115892539Y-30754028D02*
X115821111Y-30896885D01*
X115821111Y-30896885D02*
X115749682Y-30968314D01*
X115749682Y-30968314D02*
X115606825Y-31039742D01*
X115606825Y-31039742D02*
X115035396Y-31039742D01*
X116178254Y-31896885D02*
X117321111Y-31896885D01*
X117678253Y-31754028D02*
X117678253Y-30254028D01*
X117678253Y-30254028D02*
X118035396Y-30254028D01*
X118035396Y-30254028D02*
X118249682Y-30325457D01*
X118249682Y-30325457D02*
X118392539Y-30468314D01*
X118392539Y-30468314D02*
X118463968Y-30611171D01*
X118463968Y-30611171D02*
X118535396Y-30896885D01*
X118535396Y-30896885D02*
X118535396Y-31111171D01*
X118535396Y-31111171D02*
X118463968Y-31396885D01*
X118463968Y-31396885D02*
X118392539Y-31539742D01*
X118392539Y-31539742D02*
X118249682Y-31682600D01*
X118249682Y-31682600D02*
X118035396Y-31754028D01*
X118035396Y-31754028D02*
X117678253Y-31754028D01*
X119178253Y-31754028D02*
X119178253Y-30254028D01*
X120178254Y-30254028D02*
X120463968Y-30254028D01*
X120463968Y-30254028D02*
X120606825Y-30325457D01*
X120606825Y-30325457D02*
X120749682Y-30468314D01*
X120749682Y-30468314D02*
X120821111Y-30754028D01*
X120821111Y-30754028D02*
X120821111Y-31254028D01*
X120821111Y-31254028D02*
X120749682Y-31539742D01*
X120749682Y-31539742D02*
X120606825Y-31682600D01*
X120606825Y-31682600D02*
X120463968Y-31754028D01*
X120463968Y-31754028D02*
X120178254Y-31754028D01*
X120178254Y-31754028D02*
X120035397Y-31682600D01*
X120035397Y-31682600D02*
X119892539Y-31539742D01*
X119892539Y-31539742D02*
X119821111Y-31254028D01*
X119821111Y-31254028D02*
X119821111Y-30754028D01*
X119821111Y-30754028D02*
X119892539Y-30468314D01*
X119892539Y-30468314D02*
X120035397Y-30325457D01*
X120035397Y-30325457D02*
X120178254Y-30254028D01*
X121463968Y-31754028D02*
X121463968Y-30254028D01*
X121463968Y-30254028D02*
X121821111Y-30254028D01*
X121821111Y-30254028D02*
X122035397Y-30325457D01*
X122035397Y-30325457D02*
X122178254Y-30468314D01*
X122178254Y-30468314D02*
X122249683Y-30611171D01*
X122249683Y-30611171D02*
X122321111Y-30896885D01*
X122321111Y-30896885D02*
X122321111Y-31111171D01*
X122321111Y-31111171D02*
X122249683Y-31396885D01*
X122249683Y-31396885D02*
X122178254Y-31539742D01*
X122178254Y-31539742D02*
X122035397Y-31682600D01*
X122035397Y-31682600D02*
X121821111Y-31754028D01*
X121821111Y-31754028D02*
X121463968Y-31754028D01*
X122963968Y-30968314D02*
X123463968Y-30968314D01*
X123678254Y-31754028D02*
X122963968Y-31754028D01*
X122963968Y-31754028D02*
X122963968Y-30254028D01*
X122963968Y-30254028D02*
X123678254Y-30254028D01*
D12*
D13*
X18368228Y-48113574D02*
X18368228Y-48970717D01*
X18368228Y-48542146D02*
X16868228Y-48542146D01*
X16868228Y-48542146D02*
X17082514Y-48685003D01*
X17082514Y-48685003D02*
X17225371Y-48827860D01*
X17225371Y-48827860D02*
X17296800Y-48970717D01*
X18368228Y-47470718D02*
X16868228Y-47470718D01*
X16868228Y-47470718D02*
X17939657Y-46970718D01*
X17939657Y-46970718D02*
X16868228Y-46470718D01*
X16868228Y-46470718D02*
X18368228Y-46470718D01*
X17582514Y-45756432D02*
X17582514Y-45256432D01*
X18368228Y-45042146D02*
X18368228Y-45756432D01*
X18368228Y-45756432D02*
X16868228Y-45756432D01*
X16868228Y-45756432D02*
X16868228Y-45042146D01*
X16939657Y-43613574D02*
X16868228Y-43756432D01*
X16868228Y-43756432D02*
X16868228Y-43970717D01*
X16868228Y-43970717D02*
X16939657Y-44185003D01*
X16939657Y-44185003D02*
X17082514Y-44327860D01*
X17082514Y-44327860D02*
X17225371Y-44399289D01*
X17225371Y-44399289D02*
X17511085Y-44470717D01*
X17511085Y-44470717D02*
X17725371Y-44470717D01*
X17725371Y-44470717D02*
X18011085Y-44399289D01*
X18011085Y-44399289D02*
X18153942Y-44327860D01*
X18153942Y-44327860D02*
X18296800Y-44185003D01*
X18296800Y-44185003D02*
X18368228Y-43970717D01*
X18368228Y-43970717D02*
X18368228Y-43827860D01*
X18368228Y-43827860D02*
X18296800Y-43613574D01*
X18296800Y-43613574D02*
X18225371Y-43542146D01*
X18225371Y-43542146D02*
X17725371Y-43542146D01*
X17725371Y-43542146D02*
X17725371Y-43827860D01*
D12*
D13*
X120156653Y-41618771D02*
X120085225Y-41690200D01*
X120085225Y-41690200D02*
X119870939Y-41761628D01*
X119870939Y-41761628D02*
X119728082Y-41761628D01*
X119728082Y-41761628D02*
X119513796Y-41690200D01*
X119513796Y-41690200D02*
X119370939Y-41547342D01*
X119370939Y-41547342D02*
X119299510Y-41404485D01*
X119299510Y-41404485D02*
X119228082Y-41118771D01*
X119228082Y-41118771D02*
X119228082Y-40904485D01*
X119228082Y-40904485D02*
X119299510Y-40618771D01*
X119299510Y-40618771D02*
X119370939Y-40475914D01*
X119370939Y-40475914D02*
X119513796Y-40333057D01*
X119513796Y-40333057D02*
X119728082Y-40261628D01*
X119728082Y-40261628D02*
X119870939Y-40261628D01*
X119870939Y-40261628D02*
X120085225Y-40333057D01*
X120085225Y-40333057D02*
X120156653Y-40404485D01*
X121085225Y-40261628D02*
X121370939Y-40261628D01*
X121370939Y-40261628D02*
X121513796Y-40333057D01*
X121513796Y-40333057D02*
X121656653Y-40475914D01*
X121656653Y-40475914D02*
X121728082Y-40761628D01*
X121728082Y-40761628D02*
X121728082Y-41261628D01*
X121728082Y-41261628D02*
X121656653Y-41547342D01*
X121656653Y-41547342D02*
X121513796Y-41690200D01*
X121513796Y-41690200D02*
X121370939Y-41761628D01*
X121370939Y-41761628D02*
X121085225Y-41761628D01*
X121085225Y-41761628D02*
X120942368Y-41690200D01*
X120942368Y-41690200D02*
X120799510Y-41547342D01*
X120799510Y-41547342D02*
X120728082Y-41261628D01*
X120728082Y-41261628D02*
X120728082Y-40761628D01*
X120728082Y-40761628D02*
X120799510Y-40475914D01*
X120799510Y-40475914D02*
X120942368Y-40333057D01*
X120942368Y-40333057D02*
X121085225Y-40261628D01*
X122370939Y-41761628D02*
X122370939Y-40261628D01*
X122370939Y-40261628D02*
X122870939Y-41333057D01*
X122870939Y-41333057D02*
X123370939Y-40261628D01*
X123370939Y-40261628D02*
X123370939Y-41761628D01*
X124085225Y-41761628D02*
X124085225Y-40261628D01*
X124085225Y-40261628D02*
X124656654Y-40261628D01*
X124656654Y-40261628D02*
X124799511Y-40333057D01*
X124799511Y-40333057D02*
X124870940Y-40404485D01*
X124870940Y-40404485D02*
X124942368Y-40547342D01*
X124942368Y-40547342D02*
X124942368Y-40761628D01*
X124942368Y-40761628D02*
X124870940Y-40904485D01*
X124870940Y-40904485D02*
X124799511Y-40975914D01*
X124799511Y-40975914D02*
X124656654Y-41047342D01*
X124656654Y-41047342D02*
X124085225Y-41047342D01*
X125442368Y-40261628D02*
X126442368Y-40261628D01*
X126442368Y-40261628D02*
X125799511Y-41761628D01*
D12*
D13*
X110082396Y-39626628D02*
X109368110Y-39626628D01*
X109368110Y-39626628D02*
X109296682Y-40340914D01*
X109296682Y-40340914D02*
X109368110Y-40269485D01*
X109368110Y-40269485D02*
X109510968Y-40198057D01*
X109510968Y-40198057D02*
X109868110Y-40198057D01*
X109868110Y-40198057D02*
X110010968Y-40269485D01*
X110010968Y-40269485D02*
X110082396Y-40340914D01*
X110082396Y-40340914D02*
X110153825Y-40483771D01*
X110153825Y-40483771D02*
X110153825Y-40840914D01*
X110153825Y-40840914D02*
X110082396Y-40983771D01*
X110082396Y-40983771D02*
X110010968Y-41055200D01*
X110010968Y-41055200D02*
X109868110Y-41126628D01*
X109868110Y-41126628D02*
X109510968Y-41126628D01*
X109510968Y-41126628D02*
X109368110Y-41055200D01*
X109368110Y-41055200D02*
X109296682Y-40983771D01*
X110582396Y-39626628D02*
X111082396Y-41126628D01*
X111082396Y-41126628D02*
X111582396Y-39626628D01*
D12*
D13*
X53592796Y-64747228D02*
X52878510Y-64747228D01*
X52878510Y-64747228D02*
X52807082Y-65461514D01*
X52807082Y-65461514D02*
X52878510Y-65390085D01*
X52878510Y-65390085D02*
X53021368Y-65318657D01*
X53021368Y-65318657D02*
X53378510Y-65318657D01*
X53378510Y-65318657D02*
X53521368Y-65390085D01*
X53521368Y-65390085D02*
X53592796Y-65461514D01*
X53592796Y-65461514D02*
X53664225Y-65604371D01*
X53664225Y-65604371D02*
X53664225Y-65961514D01*
X53664225Y-65961514D02*
X53592796Y-66104371D01*
X53592796Y-66104371D02*
X53521368Y-66175800D01*
X53521368Y-66175800D02*
X53378510Y-66247228D01*
X53378510Y-66247228D02*
X53021368Y-66247228D01*
X53021368Y-66247228D02*
X52878510Y-66175800D01*
X52878510Y-66175800D02*
X52807082Y-66104371D01*
X54092796Y-64747228D02*
X54592796Y-66247228D01*
X54592796Y-66247228D02*
X55092796Y-64747228D01*
D12*
D13*
X95777425Y-77772657D02*
X95634568Y-77701228D01*
X95634568Y-77701228D02*
X95420282Y-77701228D01*
X95420282Y-77701228D02*
X95205996Y-77772657D01*
X95205996Y-77772657D02*
X95063139Y-77915514D01*
X95063139Y-77915514D02*
X94991710Y-78058371D01*
X94991710Y-78058371D02*
X94920282Y-78344085D01*
X94920282Y-78344085D02*
X94920282Y-78558371D01*
X94920282Y-78558371D02*
X94991710Y-78844085D01*
X94991710Y-78844085D02*
X95063139Y-78986942D01*
X95063139Y-78986942D02*
X95205996Y-79129800D01*
X95205996Y-79129800D02*
X95420282Y-79201228D01*
X95420282Y-79201228D02*
X95563139Y-79201228D01*
X95563139Y-79201228D02*
X95777425Y-79129800D01*
X95777425Y-79129800D02*
X95848853Y-79058371D01*
X95848853Y-79058371D02*
X95848853Y-78558371D01*
X95848853Y-78558371D02*
X95563139Y-78558371D01*
X96491710Y-79201228D02*
X96491710Y-77701228D01*
X96491710Y-77701228D02*
X97348853Y-79201228D01*
X97348853Y-79201228D02*
X97348853Y-77701228D01*
X98063139Y-79201228D02*
X98063139Y-77701228D01*
X98063139Y-77701228D02*
X98420282Y-77701228D01*
X98420282Y-77701228D02*
X98634568Y-77772657D01*
X98634568Y-77772657D02*
X98777425Y-77915514D01*
X98777425Y-77915514D02*
X98848854Y-78058371D01*
X98848854Y-78058371D02*
X98920282Y-78344085D01*
X98920282Y-78344085D02*
X98920282Y-78558371D01*
X98920282Y-78558371D02*
X98848854Y-78844085D01*
X98848854Y-78844085D02*
X98777425Y-78986942D01*
X98777425Y-78986942D02*
X98634568Y-79129800D01*
X98634568Y-79129800D02*
X98420282Y-79201228D01*
X98420282Y-79201228D02*
X98063139Y-79201228D01*
D12*
D13*
X94409657Y-64750574D02*
X94338228Y-64893432D01*
X94338228Y-64893432D02*
X94338228Y-65107717D01*
X94338228Y-65107717D02*
X94409657Y-65322003D01*
X94409657Y-65322003D02*
X94552514Y-65464860D01*
X94552514Y-65464860D02*
X94695371Y-65536289D01*
X94695371Y-65536289D02*
X94981085Y-65607717D01*
X94981085Y-65607717D02*
X95195371Y-65607717D01*
X95195371Y-65607717D02*
X95481085Y-65536289D01*
X95481085Y-65536289D02*
X95623942Y-65464860D01*
X95623942Y-65464860D02*
X95766800Y-65322003D01*
X95766800Y-65322003D02*
X95838228Y-65107717D01*
X95838228Y-65107717D02*
X95838228Y-64964860D01*
X95838228Y-64964860D02*
X95766800Y-64750574D01*
X95766800Y-64750574D02*
X95695371Y-64679146D01*
X95695371Y-64679146D02*
X95195371Y-64679146D01*
X95195371Y-64679146D02*
X95195371Y-64964860D01*
X95838228Y-64036289D02*
X94338228Y-64036289D01*
X94338228Y-64036289D02*
X95838228Y-63179146D01*
X95838228Y-63179146D02*
X94338228Y-63179146D01*
X95838228Y-62464860D02*
X94338228Y-62464860D01*
X94338228Y-62464860D02*
X94338228Y-62107717D01*
X94338228Y-62107717D02*
X94409657Y-61893431D01*
X94409657Y-61893431D02*
X94552514Y-61750574D01*
X94552514Y-61750574D02*
X94695371Y-61679145D01*
X94695371Y-61679145D02*
X94981085Y-61607717D01*
X94981085Y-61607717D02*
X95195371Y-61607717D01*
X95195371Y-61607717D02*
X95481085Y-61679145D01*
X95481085Y-61679145D02*
X95623942Y-61750574D01*
X95623942Y-61750574D02*
X95766800Y-61893431D01*
X95766800Y-61893431D02*
X95838228Y-62107717D01*
X95838228Y-62107717D02*
X95838228Y-62464860D01*
D12*
D13*
X46382425Y-38737628D02*
X46525282Y-38737628D01*
X46525282Y-38737628D02*
X46668139Y-38809057D01*
X46668139Y-38809057D02*
X46739568Y-38880485D01*
X46739568Y-38880485D02*
X46810996Y-39023342D01*
X46810996Y-39023342D02*
X46882425Y-39309057D01*
X46882425Y-39309057D02*
X46882425Y-39666200D01*
X46882425Y-39666200D02*
X46810996Y-39951914D01*
X46810996Y-39951914D02*
X46739568Y-40094771D01*
X46739568Y-40094771D02*
X46668139Y-40166200D01*
X46668139Y-40166200D02*
X46525282Y-40237628D01*
X46525282Y-40237628D02*
X46382425Y-40237628D01*
X46382425Y-40237628D02*
X46239568Y-40166200D01*
X46239568Y-40166200D02*
X46168139Y-40094771D01*
X46168139Y-40094771D02*
X46096710Y-39951914D01*
X46096710Y-39951914D02*
X46025282Y-39666200D01*
X46025282Y-39666200D02*
X46025282Y-39309057D01*
X46025282Y-39309057D02*
X46096710Y-39023342D01*
X46096710Y-39023342D02*
X46168139Y-38880485D01*
X46168139Y-38880485D02*
X46239568Y-38809057D01*
X46239568Y-38809057D02*
X46382425Y-38737628D01*
X48025281Y-39451914D02*
X48239567Y-39523342D01*
X48239567Y-39523342D02*
X48310996Y-39594771D01*
X48310996Y-39594771D02*
X48382424Y-39737628D01*
X48382424Y-39737628D02*
X48382424Y-39951914D01*
X48382424Y-39951914D02*
X48310996Y-40094771D01*
X48310996Y-40094771D02*
X48239567Y-40166200D01*
X48239567Y-40166200D02*
X48096710Y-40237628D01*
X48096710Y-40237628D02*
X47525281Y-40237628D01*
X47525281Y-40237628D02*
X47525281Y-38737628D01*
X47525281Y-38737628D02*
X48025281Y-38737628D01*
X48025281Y-38737628D02*
X48168139Y-38809057D01*
X48168139Y-38809057D02*
X48239567Y-38880485D01*
X48239567Y-38880485D02*
X48310996Y-39023342D01*
X48310996Y-39023342D02*
X48310996Y-39166200D01*
X48310996Y-39166200D02*
X48239567Y-39309057D01*
X48239567Y-39309057D02*
X48168139Y-39380485D01*
X48168139Y-39380485D02*
X48025281Y-39451914D01*
X48025281Y-39451914D02*
X47525281Y-39451914D01*
X49025281Y-40237628D02*
X49025281Y-38737628D01*
X49525282Y-38737628D02*
X50382425Y-38737628D01*
X49953853Y-40237628D02*
X49953853Y-38737628D01*
D12*
D13*
X78513425Y-43030228D02*
X78656282Y-43030228D01*
X78656282Y-43030228D02*
X78799139Y-43101657D01*
X78799139Y-43101657D02*
X78870568Y-43173085D01*
X78870568Y-43173085D02*
X78941996Y-43315942D01*
X78941996Y-43315942D02*
X79013425Y-43601657D01*
X79013425Y-43601657D02*
X79013425Y-43958800D01*
X79013425Y-43958800D02*
X78941996Y-44244514D01*
X78941996Y-44244514D02*
X78870568Y-44387371D01*
X78870568Y-44387371D02*
X78799139Y-44458800D01*
X78799139Y-44458800D02*
X78656282Y-44530228D01*
X78656282Y-44530228D02*
X78513425Y-44530228D01*
X78513425Y-44530228D02*
X78370568Y-44458800D01*
X78370568Y-44458800D02*
X78299139Y-44387371D01*
X78299139Y-44387371D02*
X78227710Y-44244514D01*
X78227710Y-44244514D02*
X78156282Y-43958800D01*
X78156282Y-43958800D02*
X78156282Y-43601657D01*
X78156282Y-43601657D02*
X78227710Y-43315942D01*
X78227710Y-43315942D02*
X78299139Y-43173085D01*
X78299139Y-43173085D02*
X78370568Y-43101657D01*
X78370568Y-43101657D02*
X78513425Y-43030228D01*
X80156281Y-43744514D02*
X80370567Y-43815942D01*
X80370567Y-43815942D02*
X80441996Y-43887371D01*
X80441996Y-43887371D02*
X80513424Y-44030228D01*
X80513424Y-44030228D02*
X80513424Y-44244514D01*
X80513424Y-44244514D02*
X80441996Y-44387371D01*
X80441996Y-44387371D02*
X80370567Y-44458800D01*
X80370567Y-44458800D02*
X80227710Y-44530228D01*
X80227710Y-44530228D02*
X79656281Y-44530228D01*
X79656281Y-44530228D02*
X79656281Y-43030228D01*
X79656281Y-43030228D02*
X80156281Y-43030228D01*
X80156281Y-43030228D02*
X80299139Y-43101657D01*
X80299139Y-43101657D02*
X80370567Y-43173085D01*
X80370567Y-43173085D02*
X80441996Y-43315942D01*
X80441996Y-43315942D02*
X80441996Y-43458800D01*
X80441996Y-43458800D02*
X80370567Y-43601657D01*
X80370567Y-43601657D02*
X80299139Y-43673085D01*
X80299139Y-43673085D02*
X80156281Y-43744514D01*
X80156281Y-43744514D02*
X79656281Y-43744514D01*
X81156281Y-44530228D02*
X81156281Y-43030228D01*
X81656282Y-43030228D02*
X82513425Y-43030228D01*
X82084853Y-44530228D02*
X82084853Y-43030228D01*
D12*
D13*
X46501425Y-66069428D02*
X45644282Y-66069428D01*
X46072853Y-66069428D02*
X46072853Y-64569428D01*
X46072853Y-64569428D02*
X45929996Y-64783714D01*
X45929996Y-64783714D02*
X45787139Y-64926571D01*
X45787139Y-64926571D02*
X45644282Y-64998000D01*
X47644281Y-65283714D02*
X47858567Y-65355142D01*
X47858567Y-65355142D02*
X47929996Y-65426571D01*
X47929996Y-65426571D02*
X48001424Y-65569428D01*
X48001424Y-65569428D02*
X48001424Y-65783714D01*
X48001424Y-65783714D02*
X47929996Y-65926571D01*
X47929996Y-65926571D02*
X47858567Y-65998000D01*
X47858567Y-65998000D02*
X47715710Y-66069428D01*
X47715710Y-66069428D02*
X47144281Y-66069428D01*
X47144281Y-66069428D02*
X47144281Y-64569428D01*
X47144281Y-64569428D02*
X47644281Y-64569428D01*
X47644281Y-64569428D02*
X47787139Y-64640857D01*
X47787139Y-64640857D02*
X47858567Y-64712285D01*
X47858567Y-64712285D02*
X47929996Y-64855142D01*
X47929996Y-64855142D02*
X47929996Y-64998000D01*
X47929996Y-64998000D02*
X47858567Y-65140857D01*
X47858567Y-65140857D02*
X47787139Y-65212285D01*
X47787139Y-65212285D02*
X47644281Y-65283714D01*
X47644281Y-65283714D02*
X47144281Y-65283714D01*
X48644281Y-66069428D02*
X48644281Y-64569428D01*
X49144282Y-64569428D02*
X50001425Y-64569428D01*
X49572853Y-66069428D02*
X49572853Y-64569428D01*
D12*
D13*
X87547825Y-65840828D02*
X86690682Y-65840828D01*
X87119253Y-65840828D02*
X87119253Y-64340828D01*
X87119253Y-64340828D02*
X86976396Y-64555114D01*
X86976396Y-64555114D02*
X86833539Y-64697971D01*
X86833539Y-64697971D02*
X86690682Y-64769400D01*
X88690681Y-65055114D02*
X88904967Y-65126542D01*
X88904967Y-65126542D02*
X88976396Y-65197971D01*
X88976396Y-65197971D02*
X89047824Y-65340828D01*
X89047824Y-65340828D02*
X89047824Y-65555114D01*
X89047824Y-65555114D02*
X88976396Y-65697971D01*
X88976396Y-65697971D02*
X88904967Y-65769400D01*
X88904967Y-65769400D02*
X88762110Y-65840828D01*
X88762110Y-65840828D02*
X88190681Y-65840828D01*
X88190681Y-65840828D02*
X88190681Y-64340828D01*
X88190681Y-64340828D02*
X88690681Y-64340828D01*
X88690681Y-64340828D02*
X88833539Y-64412257D01*
X88833539Y-64412257D02*
X88904967Y-64483685D01*
X88904967Y-64483685D02*
X88976396Y-64626542D01*
X88976396Y-64626542D02*
X88976396Y-64769400D01*
X88976396Y-64769400D02*
X88904967Y-64912257D01*
X88904967Y-64912257D02*
X88833539Y-64983685D01*
X88833539Y-64983685D02*
X88690681Y-65055114D01*
X88690681Y-65055114D02*
X88190681Y-65055114D01*
X89690681Y-65840828D02*
X89690681Y-64340828D01*
X90190682Y-64340828D02*
X91047825Y-64340828D01*
X90619253Y-65840828D02*
X90619253Y-64340828D01*
D12*
D13*
X78281596Y-36629428D02*
X77567310Y-36629428D01*
X77567310Y-36629428D02*
X77495882Y-37343714D01*
X77495882Y-37343714D02*
X77567310Y-37272285D01*
X77567310Y-37272285D02*
X77710168Y-37200857D01*
X77710168Y-37200857D02*
X78067310Y-37200857D01*
X78067310Y-37200857D02*
X78210168Y-37272285D01*
X78210168Y-37272285D02*
X78281596Y-37343714D01*
X78281596Y-37343714D02*
X78353025Y-37486571D01*
X78353025Y-37486571D02*
X78353025Y-37843714D01*
X78353025Y-37843714D02*
X78281596Y-37986571D01*
X78281596Y-37986571D02*
X78210168Y-38058000D01*
X78210168Y-38058000D02*
X78067310Y-38129428D01*
X78067310Y-38129428D02*
X77710168Y-38129428D01*
X77710168Y-38129428D02*
X77567310Y-38058000D01*
X77567310Y-38058000D02*
X77495882Y-37986571D01*
X78781596Y-36629428D02*
X79281596Y-38129428D01*
X79281596Y-38129428D02*
X79781596Y-36629428D01*
D12*
D13*
X49096996Y-71173428D02*
X48382710Y-71173428D01*
X48382710Y-71173428D02*
X48311282Y-71887714D01*
X48311282Y-71887714D02*
X48382710Y-71816285D01*
X48382710Y-71816285D02*
X48525568Y-71744857D01*
X48525568Y-71744857D02*
X48882710Y-71744857D01*
X48882710Y-71744857D02*
X49025568Y-71816285D01*
X49025568Y-71816285D02*
X49096996Y-71887714D01*
X49096996Y-71887714D02*
X49168425Y-72030571D01*
X49168425Y-72030571D02*
X49168425Y-72387714D01*
X49168425Y-72387714D02*
X49096996Y-72530571D01*
X49096996Y-72530571D02*
X49025568Y-72602000D01*
X49025568Y-72602000D02*
X48882710Y-72673428D01*
X48882710Y-72673428D02*
X48525568Y-72673428D01*
X48525568Y-72673428D02*
X48382710Y-72602000D01*
X48382710Y-72602000D02*
X48311282Y-72530571D01*
X49596996Y-71173428D02*
X50096996Y-72673428D01*
X50096996Y-72673428D02*
X50596996Y-71173428D01*
D12*
D13*
X86532428Y-50974232D02*
X87532428Y-50974232D01*
X85961000Y-51331374D02*
X87032428Y-51688517D01*
X87032428Y-51688517D02*
X87032428Y-50759946D01*
X86032428Y-49902803D02*
X86032428Y-49759946D01*
X86032428Y-49759946D02*
X86103857Y-49617089D01*
X86103857Y-49617089D02*
X86175285Y-49545661D01*
X86175285Y-49545661D02*
X86318142Y-49474232D01*
X86318142Y-49474232D02*
X86603857Y-49402803D01*
X86603857Y-49402803D02*
X86961000Y-49402803D01*
X86961000Y-49402803D02*
X87246714Y-49474232D01*
X87246714Y-49474232D02*
X87389571Y-49545661D01*
X87389571Y-49545661D02*
X87461000Y-49617089D01*
X87461000Y-49617089D02*
X87532428Y-49759946D01*
X87532428Y-49759946D02*
X87532428Y-49902803D01*
X87532428Y-49902803D02*
X87461000Y-50045661D01*
X87461000Y-50045661D02*
X87389571Y-50117089D01*
X87389571Y-50117089D02*
X87246714Y-50188518D01*
X87246714Y-50188518D02*
X86961000Y-50259946D01*
X86961000Y-50259946D02*
X86603857Y-50259946D01*
X86603857Y-50259946D02*
X86318142Y-50188518D01*
X86318142Y-50188518D02*
X86175285Y-50117089D01*
X86175285Y-50117089D02*
X86103857Y-50045661D01*
X86103857Y-50045661D02*
X86032428Y-49902803D01*
X86532428Y-48117090D02*
X87532428Y-48117090D01*
X85961000Y-48474232D02*
X87032428Y-48831375D01*
X87032428Y-48831375D02*
X87032428Y-47902804D01*
X86032428Y-47045661D02*
X86032428Y-46902804D01*
X86032428Y-46902804D02*
X86103857Y-46759947D01*
X86103857Y-46759947D02*
X86175285Y-46688519D01*
X86175285Y-46688519D02*
X86318142Y-46617090D01*
X86318142Y-46617090D02*
X86603857Y-46545661D01*
X86603857Y-46545661D02*
X86961000Y-46545661D01*
X86961000Y-46545661D02*
X87246714Y-46617090D01*
X87246714Y-46617090D02*
X87389571Y-46688519D01*
X87389571Y-46688519D02*
X87461000Y-46759947D01*
X87461000Y-46759947D02*
X87532428Y-46902804D01*
X87532428Y-46902804D02*
X87532428Y-47045661D01*
X87532428Y-47045661D02*
X87461000Y-47188519D01*
X87461000Y-47188519D02*
X87389571Y-47259947D01*
X87389571Y-47259947D02*
X87246714Y-47331376D01*
X87246714Y-47331376D02*
X86961000Y-47402804D01*
X86961000Y-47402804D02*
X86603857Y-47402804D01*
X86603857Y-47402804D02*
X86318142Y-47331376D01*
X86318142Y-47331376D02*
X86175285Y-47259947D01*
X86175285Y-47259947D02*
X86103857Y-47188519D01*
X86103857Y-47188519D02*
X86032428Y-47045661D01*
X87675285Y-46259948D02*
X87675285Y-45117090D01*
X87532428Y-43974233D02*
X87532428Y-44831376D01*
X87532428Y-44402805D02*
X86032428Y-44402805D01*
X86032428Y-44402805D02*
X86246714Y-44545662D01*
X86246714Y-44545662D02*
X86389571Y-44688519D01*
X86389571Y-44688519D02*
X86461000Y-44831376D01*
X87532428Y-42545662D02*
X87532428Y-43402805D01*
X87532428Y-42974234D02*
X86032428Y-42974234D01*
X86032428Y-42974234D02*
X86246714Y-43117091D01*
X86246714Y-43117091D02*
X86389571Y-43259948D01*
X86389571Y-43259948D02*
X86461000Y-43402805D01*
D12*
D13*
X15159510Y-78158428D02*
X15159510Y-79372714D01*
X15159510Y-79372714D02*
X15230939Y-79515571D01*
X15230939Y-79515571D02*
X15302368Y-79587000D01*
X15302368Y-79587000D02*
X15445225Y-79658428D01*
X15445225Y-79658428D02*
X15730939Y-79658428D01*
X15730939Y-79658428D02*
X15873796Y-79587000D01*
X15873796Y-79587000D02*
X15945225Y-79515571D01*
X15945225Y-79515571D02*
X16016653Y-79372714D01*
X16016653Y-79372714D02*
X16016653Y-78158428D01*
X17445225Y-79658428D02*
X16730939Y-79658428D01*
X16730939Y-79658428D02*
X16730939Y-78158428D01*
X17945225Y-79658428D02*
X17945225Y-78158428D01*
X17945225Y-78158428D02*
X18802368Y-79658428D01*
X18802368Y-79658428D02*
X18802368Y-78158428D01*
X19373797Y-78158428D02*
X20302369Y-78158428D01*
X20302369Y-78158428D02*
X19802369Y-78729857D01*
X19802369Y-78729857D02*
X20016654Y-78729857D01*
X20016654Y-78729857D02*
X20159512Y-78801285D01*
X20159512Y-78801285D02*
X20230940Y-78872714D01*
X20230940Y-78872714D02*
X20302369Y-79015571D01*
X20302369Y-79015571D02*
X20302369Y-79372714D01*
X20302369Y-79372714D02*
X20230940Y-79515571D01*
X20230940Y-79515571D02*
X20159512Y-79587000D01*
X20159512Y-79587000D02*
X20016654Y-79658428D01*
X20016654Y-79658428D02*
X19588083Y-79658428D01*
X19588083Y-79658428D02*
X19445226Y-79587000D01*
X19445226Y-79587000D02*
X19373797Y-79515571D01*
D12*
D13*
X58364910Y-79657028D02*
X58364910Y-80871314D01*
X58364910Y-80871314D02*
X58436339Y-81014171D01*
X58436339Y-81014171D02*
X58507768Y-81085600D01*
X58507768Y-81085600D02*
X58650625Y-81157028D01*
X58650625Y-81157028D02*
X58936339Y-81157028D01*
X58936339Y-81157028D02*
X59079196Y-81085600D01*
X59079196Y-81085600D02*
X59150625Y-81014171D01*
X59150625Y-81014171D02*
X59222053Y-80871314D01*
X59222053Y-80871314D02*
X59222053Y-79657028D01*
X60650625Y-81157028D02*
X59936339Y-81157028D01*
X59936339Y-81157028D02*
X59936339Y-79657028D01*
X61150625Y-81157028D02*
X61150625Y-79657028D01*
X61150625Y-79657028D02*
X62007768Y-81157028D01*
X62007768Y-81157028D02*
X62007768Y-79657028D01*
X63507769Y-81157028D02*
X62650626Y-81157028D01*
X63079197Y-81157028D02*
X63079197Y-79657028D01*
X63079197Y-79657028D02*
X62936340Y-79871314D01*
X62936340Y-79871314D02*
X62793483Y-80014171D01*
X62793483Y-80014171D02*
X62650626Y-80085600D01*
X64936340Y-81157028D02*
X64079197Y-81157028D01*
X64507768Y-81157028D02*
X64507768Y-79657028D01*
X64507768Y-79657028D02*
X64364911Y-79871314D01*
X64364911Y-79871314D02*
X64222054Y-80014171D01*
X64222054Y-80014171D02*
X64079197Y-80085600D01*
D12*
D13*
X53005510Y-71986228D02*
X53005510Y-73200514D01*
X53005510Y-73200514D02*
X53076939Y-73343371D01*
X53076939Y-73343371D02*
X53148368Y-73414800D01*
X53148368Y-73414800D02*
X53291225Y-73486228D01*
X53291225Y-73486228D02*
X53576939Y-73486228D01*
X53576939Y-73486228D02*
X53719796Y-73414800D01*
X53719796Y-73414800D02*
X53791225Y-73343371D01*
X53791225Y-73343371D02*
X53862653Y-73200514D01*
X53862653Y-73200514D02*
X53862653Y-71986228D01*
X55291225Y-73486228D02*
X54576939Y-73486228D01*
X54576939Y-73486228D02*
X54576939Y-71986228D01*
X55791225Y-73486228D02*
X55791225Y-71986228D01*
X55791225Y-71986228D02*
X56648368Y-73486228D01*
X56648368Y-73486228D02*
X56648368Y-71986228D01*
X58148369Y-73486228D02*
X57291226Y-73486228D01*
X57719797Y-73486228D02*
X57719797Y-71986228D01*
X57719797Y-71986228D02*
X57576940Y-72200514D01*
X57576940Y-72200514D02*
X57434083Y-72343371D01*
X57434083Y-72343371D02*
X57291226Y-72414800D01*
X58719797Y-72129085D02*
X58791225Y-72057657D01*
X58791225Y-72057657D02*
X58934083Y-71986228D01*
X58934083Y-71986228D02*
X59291225Y-71986228D01*
X59291225Y-71986228D02*
X59434083Y-72057657D01*
X59434083Y-72057657D02*
X59505511Y-72129085D01*
X59505511Y-72129085D02*
X59576940Y-72271942D01*
X59576940Y-72271942D02*
X59576940Y-72414800D01*
X59576940Y-72414800D02*
X59505511Y-72629085D01*
X59505511Y-72629085D02*
X58648368Y-73486228D01*
X58648368Y-73486228D02*
X59576940Y-73486228D01*
D12*
D13*
X15438910Y-74958028D02*
X15438910Y-76172314D01*
X15438910Y-76172314D02*
X15510339Y-76315171D01*
X15510339Y-76315171D02*
X15581768Y-76386600D01*
X15581768Y-76386600D02*
X15724625Y-76458028D01*
X15724625Y-76458028D02*
X16010339Y-76458028D01*
X16010339Y-76458028D02*
X16153196Y-76386600D01*
X16153196Y-76386600D02*
X16224625Y-76315171D01*
X16224625Y-76315171D02*
X16296053Y-76172314D01*
X16296053Y-76172314D02*
X16296053Y-74958028D01*
X17724625Y-76458028D02*
X17010339Y-76458028D01*
X17010339Y-76458028D02*
X17010339Y-74958028D01*
X18224625Y-76458028D02*
X18224625Y-74958028D01*
X18224625Y-74958028D02*
X19081768Y-76458028D01*
X19081768Y-76458028D02*
X19081768Y-74958028D01*
X20581769Y-76458028D02*
X19724626Y-76458028D01*
X20153197Y-76458028D02*
X20153197Y-74958028D01*
X20153197Y-74958028D02*
X20010340Y-75172314D01*
X20010340Y-75172314D02*
X19867483Y-75315171D01*
X19867483Y-75315171D02*
X19724626Y-75386600D01*
D12*
D13*
X82218596Y-76634428D02*
X81504310Y-76634428D01*
X81504310Y-76634428D02*
X81432882Y-77348714D01*
X81432882Y-77348714D02*
X81504310Y-77277285D01*
X81504310Y-77277285D02*
X81647168Y-77205857D01*
X81647168Y-77205857D02*
X82004310Y-77205857D01*
X82004310Y-77205857D02*
X82147168Y-77277285D01*
X82147168Y-77277285D02*
X82218596Y-77348714D01*
X82218596Y-77348714D02*
X82290025Y-77491571D01*
X82290025Y-77491571D02*
X82290025Y-77848714D01*
X82290025Y-77848714D02*
X82218596Y-77991571D01*
X82218596Y-77991571D02*
X82147168Y-78063000D01*
X82147168Y-78063000D02*
X82004310Y-78134428D01*
X82004310Y-78134428D02*
X81647168Y-78134428D01*
X81647168Y-78134428D02*
X81504310Y-78063000D01*
X81504310Y-78063000D02*
X81432882Y-77991571D01*
X82718596Y-76634428D02*
X83218596Y-78134428D01*
X83218596Y-78134428D02*
X83718596Y-76634428D01*
D12*
D13*
X47141196Y-107724028D02*
X46426910Y-107724028D01*
X46426910Y-107724028D02*
X46355482Y-108438314D01*
X46355482Y-108438314D02*
X46426910Y-108366885D01*
X46426910Y-108366885D02*
X46569768Y-108295457D01*
X46569768Y-108295457D02*
X46926910Y-108295457D01*
X46926910Y-108295457D02*
X47069768Y-108366885D01*
X47069768Y-108366885D02*
X47141196Y-108438314D01*
X47141196Y-108438314D02*
X47212625Y-108581171D01*
X47212625Y-108581171D02*
X47212625Y-108938314D01*
X47212625Y-108938314D02*
X47141196Y-109081171D01*
X47141196Y-109081171D02*
X47069768Y-109152600D01*
X47069768Y-109152600D02*
X46926910Y-109224028D01*
X46926910Y-109224028D02*
X46569768Y-109224028D01*
X46569768Y-109224028D02*
X46426910Y-109152600D01*
X46426910Y-109152600D02*
X46355482Y-109081171D01*
X47641196Y-107724028D02*
X48141196Y-109224028D01*
X48141196Y-109224028D02*
X48641196Y-107724028D01*
D12*
D13*
X108258828Y-80096946D02*
X107544542Y-80596946D01*
X108258828Y-80954089D02*
X106758828Y-80954089D01*
X106758828Y-80954089D02*
X106758828Y-80382660D01*
X106758828Y-80382660D02*
X106830257Y-80239803D01*
X106830257Y-80239803D02*
X106901685Y-80168374D01*
X106901685Y-80168374D02*
X107044542Y-80096946D01*
X107044542Y-80096946D02*
X107258828Y-80096946D01*
X107258828Y-80096946D02*
X107401685Y-80168374D01*
X107401685Y-80168374D02*
X107473114Y-80239803D01*
X107473114Y-80239803D02*
X107544542Y-80382660D01*
X107544542Y-80382660D02*
X107544542Y-80954089D01*
X108115971Y-78596946D02*
X108187400Y-78668374D01*
X108187400Y-78668374D02*
X108258828Y-78882660D01*
X108258828Y-78882660D02*
X108258828Y-79025517D01*
X108258828Y-79025517D02*
X108187400Y-79239803D01*
X108187400Y-79239803D02*
X108044542Y-79382660D01*
X108044542Y-79382660D02*
X107901685Y-79454089D01*
X107901685Y-79454089D02*
X107615971Y-79525517D01*
X107615971Y-79525517D02*
X107401685Y-79525517D01*
X107401685Y-79525517D02*
X107115971Y-79454089D01*
X107115971Y-79454089D02*
X106973114Y-79382660D01*
X106973114Y-79382660D02*
X106830257Y-79239803D01*
X106830257Y-79239803D02*
X106758828Y-79025517D01*
X106758828Y-79025517D02*
X106758828Y-78882660D01*
X106758828Y-78882660D02*
X106830257Y-78668374D01*
X106830257Y-78668374D02*
X106901685Y-78596946D01*
X108258828Y-77239803D02*
X108258828Y-77954089D01*
X108258828Y-77954089D02*
X106758828Y-77954089D01*
X108258828Y-76739803D02*
X106758828Y-76739803D01*
X108258828Y-75882660D02*
X107401685Y-76525517D01*
X106758828Y-75882660D02*
X107615971Y-76739803D01*
X107473114Y-74739803D02*
X107544542Y-74525517D01*
X107544542Y-74525517D02*
X107615971Y-74454088D01*
X107615971Y-74454088D02*
X107758828Y-74382660D01*
X107758828Y-74382660D02*
X107973114Y-74382660D01*
X107973114Y-74382660D02*
X108115971Y-74454088D01*
X108115971Y-74454088D02*
X108187400Y-74525517D01*
X108187400Y-74525517D02*
X108258828Y-74668374D01*
X108258828Y-74668374D02*
X108258828Y-75239803D01*
X108258828Y-75239803D02*
X106758828Y-75239803D01*
X106758828Y-75239803D02*
X106758828Y-74739803D01*
X106758828Y-74739803D02*
X106830257Y-74596946D01*
X106830257Y-74596946D02*
X106901685Y-74525517D01*
X106901685Y-74525517D02*
X107044542Y-74454088D01*
X107044542Y-74454088D02*
X107187400Y-74454088D01*
X107187400Y-74454088D02*
X107330257Y-74525517D01*
X107330257Y-74525517D02*
X107401685Y-74596946D01*
X107401685Y-74596946D02*
X107473114Y-74739803D01*
X107473114Y-74739803D02*
X107473114Y-75239803D01*
D12*
D13*
X103940828Y-80096946D02*
X103226542Y-80596946D01*
X103940828Y-80954089D02*
X102440828Y-80954089D01*
X102440828Y-80954089D02*
X102440828Y-80382660D01*
X102440828Y-80382660D02*
X102512257Y-80239803D01*
X102512257Y-80239803D02*
X102583685Y-80168374D01*
X102583685Y-80168374D02*
X102726542Y-80096946D01*
X102726542Y-80096946D02*
X102940828Y-80096946D01*
X102940828Y-80096946D02*
X103083685Y-80168374D01*
X103083685Y-80168374D02*
X103155114Y-80239803D01*
X103155114Y-80239803D02*
X103226542Y-80382660D01*
X103226542Y-80382660D02*
X103226542Y-80954089D01*
X103797971Y-78596946D02*
X103869400Y-78668374D01*
X103869400Y-78668374D02*
X103940828Y-78882660D01*
X103940828Y-78882660D02*
X103940828Y-79025517D01*
X103940828Y-79025517D02*
X103869400Y-79239803D01*
X103869400Y-79239803D02*
X103726542Y-79382660D01*
X103726542Y-79382660D02*
X103583685Y-79454089D01*
X103583685Y-79454089D02*
X103297971Y-79525517D01*
X103297971Y-79525517D02*
X103083685Y-79525517D01*
X103083685Y-79525517D02*
X102797971Y-79454089D01*
X102797971Y-79454089D02*
X102655114Y-79382660D01*
X102655114Y-79382660D02*
X102512257Y-79239803D01*
X102512257Y-79239803D02*
X102440828Y-79025517D01*
X102440828Y-79025517D02*
X102440828Y-78882660D01*
X102440828Y-78882660D02*
X102512257Y-78668374D01*
X102512257Y-78668374D02*
X102583685Y-78596946D01*
X103940828Y-77239803D02*
X103940828Y-77954089D01*
X103940828Y-77954089D02*
X102440828Y-77954089D01*
X103940828Y-76739803D02*
X102440828Y-76739803D01*
X103940828Y-75882660D02*
X103083685Y-76525517D01*
X102440828Y-75882660D02*
X103297971Y-76739803D01*
X103512257Y-75311231D02*
X103512257Y-74596946D01*
X103940828Y-75454088D02*
X102440828Y-74954088D01*
X102440828Y-74954088D02*
X103940828Y-74454088D01*
D12*
D13*
X63794053Y-99521228D02*
X63294053Y-98806942D01*
X62936910Y-99521228D02*
X62936910Y-98021228D01*
X62936910Y-98021228D02*
X63508339Y-98021228D01*
X63508339Y-98021228D02*
X63651196Y-98092657D01*
X63651196Y-98092657D02*
X63722625Y-98164085D01*
X63722625Y-98164085D02*
X63794053Y-98306942D01*
X63794053Y-98306942D02*
X63794053Y-98521228D01*
X63794053Y-98521228D02*
X63722625Y-98664085D01*
X63722625Y-98664085D02*
X63651196Y-98735514D01*
X63651196Y-98735514D02*
X63508339Y-98806942D01*
X63508339Y-98806942D02*
X62936910Y-98806942D01*
X65294053Y-99378371D02*
X65222625Y-99449800D01*
X65222625Y-99449800D02*
X65008339Y-99521228D01*
X65008339Y-99521228D02*
X64865482Y-99521228D01*
X64865482Y-99521228D02*
X64651196Y-99449800D01*
X64651196Y-99449800D02*
X64508339Y-99306942D01*
X64508339Y-99306942D02*
X64436910Y-99164085D01*
X64436910Y-99164085D02*
X64365482Y-98878371D01*
X64365482Y-98878371D02*
X64365482Y-98664085D01*
X64365482Y-98664085D02*
X64436910Y-98378371D01*
X64436910Y-98378371D02*
X64508339Y-98235514D01*
X64508339Y-98235514D02*
X64651196Y-98092657D01*
X64651196Y-98092657D02*
X64865482Y-98021228D01*
X64865482Y-98021228D02*
X65008339Y-98021228D01*
X65008339Y-98021228D02*
X65222625Y-98092657D01*
X65222625Y-98092657D02*
X65294053Y-98164085D01*
X66651196Y-99521228D02*
X65936910Y-99521228D01*
X65936910Y-99521228D02*
X65936910Y-98021228D01*
X67151196Y-99521228D02*
X67151196Y-98021228D01*
X68008339Y-99521228D02*
X67365482Y-98664085D01*
X68008339Y-98021228D02*
X67151196Y-98878371D01*
X68579768Y-99092657D02*
X69294054Y-99092657D01*
X68436911Y-99521228D02*
X68936911Y-98021228D01*
X68936911Y-98021228D02*
X69436911Y-99521228D01*
D12*
D13*
X15108710Y-86616628D02*
X15108710Y-87830914D01*
X15108710Y-87830914D02*
X15180139Y-87973771D01*
X15180139Y-87973771D02*
X15251568Y-88045200D01*
X15251568Y-88045200D02*
X15394425Y-88116628D01*
X15394425Y-88116628D02*
X15680139Y-88116628D01*
X15680139Y-88116628D02*
X15822996Y-88045200D01*
X15822996Y-88045200D02*
X15894425Y-87973771D01*
X15894425Y-87973771D02*
X15965853Y-87830914D01*
X15965853Y-87830914D02*
X15965853Y-86616628D01*
X17394425Y-88116628D02*
X16680139Y-88116628D01*
X16680139Y-88116628D02*
X16680139Y-86616628D01*
X17894425Y-88116628D02*
X17894425Y-86616628D01*
X17894425Y-86616628D02*
X18751568Y-88116628D01*
X18751568Y-88116628D02*
X18751568Y-86616628D01*
X20180140Y-86616628D02*
X19465854Y-86616628D01*
X19465854Y-86616628D02*
X19394426Y-87330914D01*
X19394426Y-87330914D02*
X19465854Y-87259485D01*
X19465854Y-87259485D02*
X19608712Y-87188057D01*
X19608712Y-87188057D02*
X19965854Y-87188057D01*
X19965854Y-87188057D02*
X20108712Y-87259485D01*
X20108712Y-87259485D02*
X20180140Y-87330914D01*
X20180140Y-87330914D02*
X20251569Y-87473771D01*
X20251569Y-87473771D02*
X20251569Y-87830914D01*
X20251569Y-87830914D02*
X20180140Y-87973771D01*
X20180140Y-87973771D02*
X20108712Y-88045200D01*
X20108712Y-88045200D02*
X19965854Y-88116628D01*
X19965854Y-88116628D02*
X19608712Y-88116628D01*
X19608712Y-88116628D02*
X19465854Y-88045200D01*
X19465854Y-88045200D02*
X19394426Y-87973771D01*
D12*
D13*
X15210310Y-81257228D02*
X15210310Y-82471514D01*
X15210310Y-82471514D02*
X15281739Y-82614371D01*
X15281739Y-82614371D02*
X15353168Y-82685800D01*
X15353168Y-82685800D02*
X15496025Y-82757228D01*
X15496025Y-82757228D02*
X15781739Y-82757228D01*
X15781739Y-82757228D02*
X15924596Y-82685800D01*
X15924596Y-82685800D02*
X15996025Y-82614371D01*
X15996025Y-82614371D02*
X16067453Y-82471514D01*
X16067453Y-82471514D02*
X16067453Y-81257228D01*
X17496025Y-82757228D02*
X16781739Y-82757228D01*
X16781739Y-82757228D02*
X16781739Y-81257228D01*
X17996025Y-82757228D02*
X17996025Y-81257228D01*
X17996025Y-81257228D02*
X18853168Y-82757228D01*
X18853168Y-82757228D02*
X18853168Y-81257228D01*
X19496026Y-81400085D02*
X19567454Y-81328657D01*
X19567454Y-81328657D02*
X19710312Y-81257228D01*
X19710312Y-81257228D02*
X20067454Y-81257228D01*
X20067454Y-81257228D02*
X20210312Y-81328657D01*
X20210312Y-81328657D02*
X20281740Y-81400085D01*
X20281740Y-81400085D02*
X20353169Y-81542942D01*
X20353169Y-81542942D02*
X20353169Y-81685800D01*
X20353169Y-81685800D02*
X20281740Y-81900085D01*
X20281740Y-81900085D02*
X19424597Y-82757228D01*
X19424597Y-82757228D02*
X20353169Y-82757228D01*
D12*
D13*
X13914910Y-72089228D02*
X13914910Y-70589228D01*
X13914910Y-70589228D02*
X14414910Y-71660657D01*
X14414910Y-71660657D02*
X14914910Y-70589228D01*
X14914910Y-70589228D02*
X14914910Y-72089228D01*
X16486339Y-71946371D02*
X16414911Y-72017800D01*
X16414911Y-72017800D02*
X16200625Y-72089228D01*
X16200625Y-72089228D02*
X16057768Y-72089228D01*
X16057768Y-72089228D02*
X15843482Y-72017800D01*
X15843482Y-72017800D02*
X15700625Y-71874942D01*
X15700625Y-71874942D02*
X15629196Y-71732085D01*
X15629196Y-71732085D02*
X15557768Y-71446371D01*
X15557768Y-71446371D02*
X15557768Y-71232085D01*
X15557768Y-71232085D02*
X15629196Y-70946371D01*
X15629196Y-70946371D02*
X15700625Y-70803514D01*
X15700625Y-70803514D02*
X15843482Y-70660657D01*
X15843482Y-70660657D02*
X16057768Y-70589228D01*
X16057768Y-70589228D02*
X16200625Y-70589228D01*
X16200625Y-70589228D02*
X16414911Y-70660657D01*
X16414911Y-70660657D02*
X16486339Y-70732085D01*
X17843482Y-72089228D02*
X17129196Y-72089228D01*
X17129196Y-72089228D02*
X17129196Y-70589228D01*
X18343482Y-72089228D02*
X18343482Y-70589228D01*
X19200625Y-72089228D02*
X18557768Y-71232085D01*
X19200625Y-70589228D02*
X18343482Y-71446371D01*
X19772054Y-71660657D02*
X20486340Y-71660657D01*
X19629197Y-72089228D02*
X20129197Y-70589228D01*
X20129197Y-70589228D02*
X20629197Y-72089228D01*
D12*
D13*
X46223710Y-99953028D02*
X46223710Y-98453028D01*
X46223710Y-98453028D02*
X46723710Y-99524457D01*
X46723710Y-99524457D02*
X47223710Y-98453028D01*
X47223710Y-98453028D02*
X47223710Y-99953028D01*
X48795139Y-99810171D02*
X48723711Y-99881600D01*
X48723711Y-99881600D02*
X48509425Y-99953028D01*
X48509425Y-99953028D02*
X48366568Y-99953028D01*
X48366568Y-99953028D02*
X48152282Y-99881600D01*
X48152282Y-99881600D02*
X48009425Y-99738742D01*
X48009425Y-99738742D02*
X47937996Y-99595885D01*
X47937996Y-99595885D02*
X47866568Y-99310171D01*
X47866568Y-99310171D02*
X47866568Y-99095885D01*
X47866568Y-99095885D02*
X47937996Y-98810171D01*
X47937996Y-98810171D02*
X48009425Y-98667314D01*
X48009425Y-98667314D02*
X48152282Y-98524457D01*
X48152282Y-98524457D02*
X48366568Y-98453028D01*
X48366568Y-98453028D02*
X48509425Y-98453028D01*
X48509425Y-98453028D02*
X48723711Y-98524457D01*
X48723711Y-98524457D02*
X48795139Y-98595885D01*
X50152282Y-99953028D02*
X49437996Y-99953028D01*
X49437996Y-99953028D02*
X49437996Y-98453028D01*
X50652282Y-99953028D02*
X50652282Y-98453028D01*
X51509425Y-99953028D02*
X50866568Y-99095885D01*
X51509425Y-98453028D02*
X50652282Y-99310171D01*
X52080854Y-99524457D02*
X52795140Y-99524457D01*
X51937997Y-99953028D02*
X52437997Y-98453028D01*
X52437997Y-98453028D02*
X52937997Y-99953028D01*
D12*
D13*
X14340253Y-98022628D02*
X13840253Y-97308342D01*
X13483110Y-98022628D02*
X13483110Y-96522628D01*
X13483110Y-96522628D02*
X14054539Y-96522628D01*
X14054539Y-96522628D02*
X14197396Y-96594057D01*
X14197396Y-96594057D02*
X14268825Y-96665485D01*
X14268825Y-96665485D02*
X14340253Y-96808342D01*
X14340253Y-96808342D02*
X14340253Y-97022628D01*
X14340253Y-97022628D02*
X14268825Y-97165485D01*
X14268825Y-97165485D02*
X14197396Y-97236914D01*
X14197396Y-97236914D02*
X14054539Y-97308342D01*
X14054539Y-97308342D02*
X13483110Y-97308342D01*
X15840253Y-97879771D02*
X15768825Y-97951200D01*
X15768825Y-97951200D02*
X15554539Y-98022628D01*
X15554539Y-98022628D02*
X15411682Y-98022628D01*
X15411682Y-98022628D02*
X15197396Y-97951200D01*
X15197396Y-97951200D02*
X15054539Y-97808342D01*
X15054539Y-97808342D02*
X14983110Y-97665485D01*
X14983110Y-97665485D02*
X14911682Y-97379771D01*
X14911682Y-97379771D02*
X14911682Y-97165485D01*
X14911682Y-97165485D02*
X14983110Y-96879771D01*
X14983110Y-96879771D02*
X15054539Y-96736914D01*
X15054539Y-96736914D02*
X15197396Y-96594057D01*
X15197396Y-96594057D02*
X15411682Y-96522628D01*
X15411682Y-96522628D02*
X15554539Y-96522628D01*
X15554539Y-96522628D02*
X15768825Y-96594057D01*
X15768825Y-96594057D02*
X15840253Y-96665485D01*
X17197396Y-98022628D02*
X16483110Y-98022628D01*
X16483110Y-98022628D02*
X16483110Y-96522628D01*
X17697396Y-98022628D02*
X17697396Y-96522628D01*
X18554539Y-98022628D02*
X17911682Y-97165485D01*
X18554539Y-96522628D02*
X17697396Y-97379771D01*
X19697396Y-97236914D02*
X19911682Y-97308342D01*
X19911682Y-97308342D02*
X19983111Y-97379771D01*
X19983111Y-97379771D02*
X20054539Y-97522628D01*
X20054539Y-97522628D02*
X20054539Y-97736914D01*
X20054539Y-97736914D02*
X19983111Y-97879771D01*
X19983111Y-97879771D02*
X19911682Y-97951200D01*
X19911682Y-97951200D02*
X19768825Y-98022628D01*
X19768825Y-98022628D02*
X19197396Y-98022628D01*
X19197396Y-98022628D02*
X19197396Y-96522628D01*
X19197396Y-96522628D02*
X19697396Y-96522628D01*
X19697396Y-96522628D02*
X19840254Y-96594057D01*
X19840254Y-96594057D02*
X19911682Y-96665485D01*
X19911682Y-96665485D02*
X19983111Y-96808342D01*
X19983111Y-96808342D02*
X19983111Y-96951200D01*
X19983111Y-96951200D02*
X19911682Y-97094057D01*
X19911682Y-97094057D02*
X19840254Y-97165485D01*
X19840254Y-97165485D02*
X19697396Y-97236914D01*
X19697396Y-97236914D02*
X19197396Y-97236914D01*
D12*
D13*
X14067310Y-92814228D02*
X14067310Y-94028514D01*
X14067310Y-94028514D02*
X14138739Y-94171371D01*
X14138739Y-94171371D02*
X14210168Y-94242800D01*
X14210168Y-94242800D02*
X14353025Y-94314228D01*
X14353025Y-94314228D02*
X14638739Y-94314228D01*
X14638739Y-94314228D02*
X14781596Y-94242800D01*
X14781596Y-94242800D02*
X14853025Y-94171371D01*
X14853025Y-94171371D02*
X14924453Y-94028514D01*
X14924453Y-94028514D02*
X14924453Y-92814228D01*
X16353025Y-94314228D02*
X15638739Y-94314228D01*
X15638739Y-94314228D02*
X15638739Y-92814228D01*
X16853025Y-94314228D02*
X16853025Y-92814228D01*
X16853025Y-92814228D02*
X17710168Y-94314228D01*
X17710168Y-94314228D02*
X17710168Y-92814228D01*
X19210169Y-94314228D02*
X18353026Y-94314228D01*
X18781597Y-94314228D02*
X18781597Y-92814228D01*
X18781597Y-92814228D02*
X18638740Y-93028514D01*
X18638740Y-93028514D02*
X18495883Y-93171371D01*
X18495883Y-93171371D02*
X18353026Y-93242800D01*
X20138740Y-92814228D02*
X20281597Y-92814228D01*
X20281597Y-92814228D02*
X20424454Y-92885657D01*
X20424454Y-92885657D02*
X20495883Y-92957085D01*
X20495883Y-92957085D02*
X20567311Y-93099942D01*
X20567311Y-93099942D02*
X20638740Y-93385657D01*
X20638740Y-93385657D02*
X20638740Y-93742800D01*
X20638740Y-93742800D02*
X20567311Y-94028514D01*
X20567311Y-94028514D02*
X20495883Y-94171371D01*
X20495883Y-94171371D02*
X20424454Y-94242800D01*
X20424454Y-94242800D02*
X20281597Y-94314228D01*
X20281597Y-94314228D02*
X20138740Y-94314228D01*
X20138740Y-94314228D02*
X19995883Y-94242800D01*
X19995883Y-94242800D02*
X19924454Y-94171371D01*
X19924454Y-94171371D02*
X19853025Y-94028514D01*
X19853025Y-94028514D02*
X19781597Y-93742800D01*
X19781597Y-93742800D02*
X19781597Y-93385657D01*
X19781597Y-93385657D02*
X19853025Y-93099942D01*
X19853025Y-93099942D02*
X19924454Y-92957085D01*
X19924454Y-92957085D02*
X19995883Y-92885657D01*
X19995883Y-92885657D02*
X20138740Y-92814228D01*
D14*
%TO.P,R17,1*%
%TO.N,Net-(JP5-B)*%
X129209800Y-44450000D03*
D15*
%TO.P,R17,2*%
%TO.N,Net-(JP6-B)*%
X129209800Y-34290000D03*
%TD*%
D14*
%TO.P,JP6,1,A*%
%TO.N,+5V*%
X73812400Y-71882000D03*
%TO.P,JP6,2,B*%
%TO.N,Net-(JP6-B)*%
X129362200Y-31165800D03*
%TD*%
D16*
%TO.P,J2,1,Pin_1*%
%TO.N,/MOTOR4*%
X92156600Y-92989400D03*
D17*
%TO.P,J2,2,Pin_2*%
%TO.N,/MOTOR3*%
X92156600Y-90449400D03*
%TO.P,J2,3,Pin_3*%
%TO.N,/MOTOR2*%
X92156600Y-87909400D03*
%TO.P,J2,4,Pin_4*%
%TO.N,/MOTOR1*%
X92156600Y-85369400D03*
%TO.P,J2,5,Pin_5*%
%TO.N,+5V*%
X92156600Y-82829400D03*
%TD*%
D14*
%TO.P,JP21,1,A*%
%TO.N,Net-(JP21-A)*%
X93141800Y-63550800D03*
%TO.P,JP21,2,B*%
%TO.N,GND*%
X93141800Y-76987400D03*
%TD*%
%TO.P,JP20,1,A*%
%TO.N,+5V*%
X52984400Y-69088000D03*
%TO.P,JP20,2,B*%
%TO.N,/CLK_VCC*%
X110058200Y-37719000D03*
%TD*%
%TO.P,JP19,2,B*%
%TO.N,+5V*%
X49276000Y-68884800D03*
%TO.P,JP19,1,A*%
%TO.N,Net-(D2-A)*%
X78282800Y-40741600D03*
%TD*%
%TO.P,C10,1*%
%TO.N,/CLK_VCC*%
X97352800Y-47244000D03*
%TO.P,C10,2*%
%TO.N,GND*%
X94852800Y-47244000D03*
%TD*%
%TO.P,JP17,2,B*%
%TO.N,Net-(D33-K)*%
X22509800Y-81915000D03*
%TO.P,JP17,1,A*%
%TO.N,/F2*%
X71805800Y-87833200D03*
%TD*%
%TO.P,JP16,1,A*%
%TO.N,/F3*%
X71907400Y-90474800D03*
%TO.P,JP16,2,B*%
%TO.N,Net-(D17-K)*%
X22509800Y-79171800D03*
%TD*%
%TO.P,JP15,2,B*%
%TO.N,/F1*%
X22509800Y-76123800D03*
%TO.P,JP15,1,A*%
%TO.N,Net-(JP15-A)*%
X71805800Y-85140800D03*
%TD*%
%TO.P,JP14,2,B*%
%TO.N,Net-(D12-A)*%
X22509800Y-93599000D03*
%TO.P,JP14,1,A*%
%TO.N,/F_RESET*%
X87249000Y-100584000D03*
%TD*%
%TO.P,JP13,2,B*%
%TO.N,Net-(D32-K)*%
X72263000Y-95554800D03*
%TO.P,JP13,1,A*%
%TO.N,Net-(D15-K)*%
X22509800Y-87249000D03*
%TD*%
%TO.P,JP10,1,A*%
%TO.N,/R_RESET*%
X55864600Y-80391000D03*
%TO.P,JP10,2,B*%
%TO.N,Net-(JP10-B)*%
X87888600Y-98069400D03*
%TD*%
%TO.P,JP9,2,B*%
%TO.N,/LOAD*%
X55813800Y-77800200D03*
%TO.P,JP9,1,A*%
%TO.N,Net-(JP9-A)*%
X87888600Y-95605600D03*
%TD*%
%TO.P,JP8,2,B*%
%TO.N,/"R" CLOCK B*%
X107467400Y-73075800D03*
%TO.P,JP8,1,A*%
%TO.N,Net-(D11-A)*%
X22509800Y-97256600D03*
%TD*%
%TO.P,JP7,1,A*%
%TO.N,/"R" CLOCK A*%
X103840600Y-73152000D03*
%TO.P,JP7,2,B*%
%TO.N,Net-(JP7-B)*%
X72263000Y-98196400D03*
%TD*%
D18*
%TO.P,U2,1,CP*%
%TO.N,/MOTOR_CLOCK_B*%
X43881600Y-75268400D03*
D15*
%TO.P,U2,2,Q4*%
%TO.N,Net-(D30-A)*%
X43881600Y-77808400D03*
%TO.P,U2,3,Q3*%
%TO.N,Net-(D17-A)*%
X43881600Y-80348400D03*
%TO.P,U2,4,Q2*%
%TO.N,Net-(D15-A)*%
X43881600Y-82888400D03*
%TO.P,U2,5,Q1*%
%TO.N,Net-(D14-A)*%
X43881600Y-85428400D03*
%TO.P,U2,6,MR*%
%TO.N,Net-(D11-K)*%
X43881600Y-87968400D03*
%TO.P,U2,7,D*%
%TO.N,/LOAD*%
X43881600Y-90508400D03*
%TO.P,U2,8,Vss*%
%TO.N,GND*%
X43881600Y-93048400D03*
%TO.P,U2,9,CP*%
%TO.N,Net-(JP11-A)*%
X51501600Y-93048400D03*
%TO.P,U2,10,Q4*%
%TO.N,Net-(D27-A)*%
X51501600Y-90508400D03*
%TO.P,U2,11,Q3*%
%TO.N,Net-(D29-A)*%
X51501600Y-87968400D03*
%TO.P,U2,12,Q2*%
%TO.N,Net-(D31-A)*%
X51501600Y-85428400D03*
%TO.P,U2,13,Q1*%
%TO.N,Net-(D28-A)*%
X51501600Y-82888400D03*
%TO.P,U2,14,MR*%
%TO.N,/R_RESET*%
X51501600Y-80348400D03*
%TO.P,U2,15,D*%
%TO.N,/LOAD*%
X51501600Y-77808400D03*
%TO.P,U2,16,Vdd*%
%TO.N,+5V*%
X51501600Y-75268400D03*
%TD*%
D14*
%TO.P,R23,1*%
%TO.N,Net-(Q1-C)*%
X74884600Y-107086400D03*
D15*
%TO.P,R23,2*%
%TO.N,+5V*%
X85044600Y-107086400D03*
%TD*%
D14*
%TO.P,R22,1*%
%TO.N,/F_RESET*%
X103764400Y-93014800D03*
D15*
%TO.P,R22,2*%
%TO.N,+5V*%
X103764400Y-82854800D03*
%TD*%
D14*
%TO.P,R20,1*%
%TO.N,Net-(D11-K)*%
X39070600Y-90352400D03*
D15*
%TO.P,R20,2*%
%TO.N,GND*%
X28910600Y-90352400D03*
%TD*%
D14*
%TO.P,R2,1*%
%TO.N,Net-(U5-Q5)*%
X108077000Y-59309000D03*
D15*
%TO.P,R2,2*%
%TO.N,/"R" CLOCK B*%
X108077000Y-69469000D03*
%TD*%
D19*
%TO.P,Q1,1,C*%
%TO.N,Net-(Q1-C)*%
X70947600Y-106827400D03*
D20*
%TO.P,Q1,2,E*%
%TO.N,GND*%
X70947600Y-109367400D03*
%TD*%
D18*
%TO.P,D12,1,K*%
%TO.N,Net-(D11-K)*%
X39223000Y-93655800D03*
D15*
%TO.P,D12,2,A*%
%TO.N,Net-(D12-A)*%
X26523000Y-93655800D03*
%TD*%
D18*
%TO.P,D11,1,K*%
%TO.N,Net-(D11-K)*%
X39223000Y-97205800D03*
D15*
%TO.P,D11,2,A*%
%TO.N,Net-(D11-A)*%
X26523000Y-97205800D03*
%TD*%
D14*
%TO.P,R8,1*%
%TO.N,Net-(D18-A)*%
X84269000Y-67242000D03*
D15*
%TO.P,R8,2*%
%TO.N,+5V*%
X74109000Y-67242000D03*
%TD*%
D14*
%TO.P,R5,1*%
%TO.N,/Q0*%
X60266000Y-40699000D03*
D15*
%TO.P,R5,2*%
%TO.N,Net-(D2-K)*%
X70426000Y-40699000D03*
%TD*%
D18*
%TO.P,D31,1,K*%
%TO.N,/F3*%
X68534600Y-90703400D03*
D15*
%TO.P,D31,2,A*%
%TO.N,Net-(D31-A)*%
X55834600Y-90703400D03*
%TD*%
D14*
%TO.P,C8,1*%
%TO.N,+5V*%
X62806000Y-69127000D03*
%TO.P,C8,2*%
%TO.N,GND*%
X62806000Y-66627000D03*
%TD*%
D19*
%TO.P,D26,1,K*%
%TO.N,GND*%
X111773000Y-76827000D03*
D20*
%TO.P,D26,2,A*%
%TO.N,Net-(D26-A)*%
X111773000Y-74287000D03*
%TD*%
D18*
%TO.P,D33,1,K*%
%TO.N,Net-(D33-K)*%
X26370600Y-81940400D03*
D15*
%TO.P,D33,2,A*%
%TO.N,Net-(D15-A)*%
X39070600Y-81940400D03*
%TD*%
D14*
%TO.P,C11,1*%
%TO.N,+5V*%
X66959800Y-75082400D03*
%TO.P,C11,2*%
%TO.N,GND*%
X66959800Y-77582400D03*
%TD*%
%TO.P,R9,1*%
%TO.N,Net-(JP2-A)*%
X90982800Y-40741600D03*
D15*
%TO.P,R9,2*%
%TO.N,Net-(D2-A)*%
X80822800Y-40741600D03*
%TD*%
D19*
%TO.P,D25,1,K*%
%TO.N,GND*%
X116726000Y-76827000D03*
D20*
%TO.P,D25,2,A*%
%TO.N,Net-(D25-A)*%
X116726000Y-74287000D03*
%TD*%
D18*
%TO.P,U11,1,Q12*%
%TO.N,unconnected-(U11-Q12-Pad1)*%
X38539000Y-62660000D03*
D15*
%TO.P,U11,2,Q13*%
%TO.N,unconnected-(U11-Q13-Pad2)*%
X38539000Y-60120000D03*
%TO.P,U11,3,Q14*%
%TO.N,Net-(U11-Q14)*%
X38539000Y-57580000D03*
%TO.P,U11,4,Q6*%
%TO.N,unconnected-(U11-Q6-Pad4)*%
X38539000Y-55040000D03*
%TO.P,U11,5,Q5*%
%TO.N,unconnected-(U11-Q5-Pad5)*%
X38539000Y-52500000D03*
%TO.P,U11,6,Q7*%
%TO.N,unconnected-(U11-Q7-Pad6)*%
X38539000Y-49960000D03*
%TO.P,U11,7,Q4*%
%TO.N,unconnected-(U11-Q4-Pad7)*%
X38539000Y-47420000D03*
%TO.P,U11,8,VSS*%
%TO.N,GND*%
X38539000Y-44880000D03*
%TO.P,U11,9,(PHI)O*%
%TO.N,Net-(C25-Pad1)*%
X30919000Y-44880000D03*
%TO.P,U11,10,(PHI)O*%
%TO.N,Net-(C24-Pad1)*%
X30919000Y-47420000D03*
%TO.P,U11,11,(PHI)I*%
%TO.N,unconnected-(U11-(PHI)I-Pad11)*%
X30919000Y-49960000D03*
%TO.P,U11,12,RESET*%
%TO.N,GND*%
X30919000Y-52500000D03*
%TO.P,U11,13,Q9*%
%TO.N,unconnected-(U11-Q9-Pad13)*%
X30919000Y-55040000D03*
%TO.P,U11,14,Q8*%
%TO.N,Net-(U11-Q8)*%
X30919000Y-57580000D03*
%TO.P,U11,15,Q10*%
%TO.N,unconnected-(U11-Q10-Pad15)*%
X30919000Y-60120000D03*
%TO.P,U11,16,VDD*%
%TO.N,+5V*%
X30919000Y-62660000D03*
%TD*%
D14*
%TO.P,JP3,1,A*%
%TO.N,Net-(D18-A)*%
X89222000Y-67369000D03*
%TO.P,JP3,2,B*%
%TO.N,Net-(D19-A)*%
X43629000Y-65718000D03*
%TD*%
%TO.P,R10,1*%
%TO.N,Net-(D23-A)*%
X123893000Y-69650000D03*
D15*
%TO.P,R10,2*%
%TO.N,Net-(U5-Q1)*%
X123893000Y-59490000D03*
%TD*%
D14*
%TO.P,JP5,1,A*%
%TO.N,Net-(JP2-A)*%
X101160000Y-54923000D03*
%TO.P,JP5,2,B*%
%TO.N,Net-(JP5-B)*%
X122369000Y-43874000D03*
%TD*%
D21*
%TO.P,C15,1*%
%TO.N,Net-(JP1-B)*%
X57053800Y-105457000D03*
D22*
%TO.P,C15,2*%
%TO.N,GND*%
X57053800Y-100457000D03*
%TD*%
D23*
%TO.P,Y1,1,1*%
%TO.N,Net-(C25-Pad1)*%
X27246000Y-45190000D03*
%TO.P,Y1,2,2*%
%TO.N,Net-(C24-Pad1)*%
X27246000Y-47090000D03*
%TD*%
D18*
%TO.P,D4,1,K*%
%TO.N,Net-(D4-K)*%
X84269000Y-46541000D03*
D15*
%TO.P,D4,2,A*%
%TO.N,Net-(D4-A)*%
X71569000Y-46541000D03*
%TD*%
D14*
%TO.P,JP11,1,A*%
%TO.N,Net-(JP11-A)*%
X51485800Y-96926400D03*
%TO.P,JP11,2,B*%
%TO.N,/MOTOR_CLOCK_A*%
X22758400Y-71653400D03*
%TD*%
D24*
%TO.P,RV1,1,1*%
%TO.N,unconnected-(RV1-Pad1)*%
X38566400Y-105435400D03*
%TO.P,RV1,2,2*%
%TO.N,GND*%
X41066400Y-101635400D03*
%TO.P,RV1,3,3*%
%TO.N,Net-(JP1-B)*%
X43566400Y-105435400D03*
%TD*%
D14*
%TO.P,C27,1*%
%TO.N,+5V*%
X33342000Y-69127000D03*
%TO.P,C27,2*%
%TO.N,GND*%
X33342000Y-66627000D03*
%TD*%
D18*
%TO.P,D30,1,K*%
%TO.N,/F1*%
X26370600Y-76098400D03*
D15*
%TO.P,D30,2,A*%
%TO.N,Net-(D30-A)*%
X39070600Y-76098400D03*
%TD*%
D14*
%TO.P,R3,1*%
%TO.N,Net-(U5-Q0)*%
X129989000Y-47811000D03*
D15*
%TO.P,R3,2*%
%TO.N,Net-(D22-A)*%
X129989000Y-57971000D03*
%TD*%
D18*
%TO.P,D5,1,K*%
%TO.N,Net-(D4-K)*%
X84269000Y-49716000D03*
D15*
%TO.P,D5,2,A*%
%TO.N,Net-(D5-A)*%
X71569000Y-49716000D03*
%TD*%
D14*
%TO.P,C6,1*%
%TO.N,+5V*%
X109631800Y-88569800D03*
%TO.P,C6,2*%
%TO.N,GND*%
X112131800Y-88569800D03*
%TD*%
D25*
%TO.P,U8,3,VO*%
%TO.N,+5V*%
X109758800Y-99618800D03*
%TO.P,U8,2,GND*%
%TO.N,GND*%
X112298800Y-99618800D03*
D26*
%TO.P,U8,1,VI*%
%TO.N,+8V*%
X114838800Y-99618800D03*
%TD*%
D18*
%TO.P,D9,1,K*%
%TO.N,Net-(D10-K)*%
X43756000Y-56701000D03*
D15*
%TO.P,D9,2,A*%
%TO.N,/Q7*%
X56456000Y-56701000D03*
%TD*%
D14*
%TO.P,C26,1*%
%TO.N,+5V*%
X38295000Y-69147000D03*
%TO.P,C26,2*%
%TO.N,GND*%
X38295000Y-66647000D03*
%TD*%
D18*
%TO.P,D28,1,K*%
%TO.N,/F4*%
X68534600Y-82829400D03*
D15*
%TO.P,D28,2,A*%
%TO.N,Net-(D28-A)*%
X55834600Y-82829400D03*
%TD*%
D27*
%TO.P,Q7,1,G*%
%TO.N,Net-(JP1-B)*%
X64409600Y-108785900D03*
%TO.P,Q7,2,S*%
%TO.N,GND*%
X66309600Y-108785900D03*
%TO.P,Q7,3,D*%
%TO.N,Net-(Q1-C)*%
X65359600Y-106910900D03*
%TD*%
D14*
%TO.P,R21,1*%
%TO.N,Net-(U5-Q6)*%
X109669000Y-43991000D03*
D15*
%TO.P,R21,2*%
%TO.N,Net-(U5-Reset)*%
X119829000Y-43991000D03*
%TD*%
D16*
%TO.P,J1,1,Pin_1*%
%TO.N,+5V*%
X87838600Y-82829400D03*
D17*
%TO.P,J1,2,Pin_2*%
%TO.N,/MOTOR1*%
X87838600Y-85369400D03*
%TO.P,J1,3,Pin_3*%
%TO.N,/MOTOR2*%
X87838600Y-87909400D03*
%TO.P,J1,4,Pin_4*%
%TO.N,/MOTOR3*%
X87838600Y-90449400D03*
%TO.P,J1,5,Pin_5*%
%TO.N,/MOTOR4*%
X87838600Y-92989400D03*
%TD*%
D14*
%TO.P,JP2,1,A*%
%TO.N,Net-(JP2-A)*%
X89509600Y-48514000D03*
%TO.P,JP2,2,B*%
%TO.N,Net-(JP2-B)*%
X56837000Y-50097000D03*
%TD*%
D18*
%TO.P,D3,1,K*%
%TO.N,Net-(D10-K)*%
X43756000Y-44890000D03*
D15*
%TO.P,D3,2,A*%
%TO.N,/Q0*%
X56456000Y-44890000D03*
%TD*%
D19*
%TO.P,D24,1,K*%
%TO.N,GND*%
X121425000Y-76827000D03*
D20*
%TO.P,D24,2,A*%
%TO.N,Net-(D24-A)*%
X121425000Y-74287000D03*
%TD*%
D19*
%TO.P,Q5,1,C*%
%TO.N,Net-(JP7-B)*%
X68407600Y-101493400D03*
D20*
%TO.P,Q5,2,E*%
%TO.N,GND*%
X68407600Y-104033400D03*
%TD*%
D19*
%TO.P,D22,1,K*%
%TO.N,GND*%
X128778000Y-66624200D03*
D20*
%TO.P,D22,2,A*%
%TO.N,Net-(D22-A)*%
X128778000Y-64084200D03*
%TD*%
D19*
%TO.P,D1,1,K*%
%TO.N,GND*%
X122351800Y-35174000D03*
D20*
%TO.P,D1,2,A*%
%TO.N,/CLK_VCC*%
X122351800Y-37714000D03*
%TD*%
D18*
%TO.P,U1,1,Q11*%
%TO.N,Net-(D18-K)*%
X68003000Y-62807000D03*
D15*
%TO.P,U1,2,Q5*%
%TO.N,Net-(D7-A)*%
X68003000Y-60267000D03*
%TO.P,U1,3,Q4*%
%TO.N,Net-(D21-K)*%
X68003000Y-57727000D03*
%TO.P,U1,4,Q6*%
%TO.N,Net-(D8-A)*%
X68003000Y-55187000D03*
%TO.P,U1,5,Q3*%
%TO.N,Net-(D6-A)*%
X68003000Y-52647000D03*
%TO.P,U1,6,Q2*%
%TO.N,Net-(D5-A)*%
X68003000Y-50107000D03*
%TO.P,U1,7,Q1*%
%TO.N,Net-(D4-A)*%
X68003000Y-47567000D03*
%TO.P,U1,8,VSS*%
%TO.N,GND*%
X68003000Y-45027000D03*
%TO.P,U1,9,Q0*%
%TO.N,/Q0*%
X60383000Y-45027000D03*
%TO.P,U1,10,CLK*%
%TO.N,Net-(U1-CLK)*%
X60383000Y-47567000D03*
%TO.P,U1,11,Reset*%
%TO.N,Net-(JP2-B)*%
X60383000Y-50107000D03*
%TO.P,U1,12,Q8*%
%TO.N,/Q8*%
X60383000Y-52647000D03*
%TO.P,U1,13,Q7*%
%TO.N,/Q7*%
X60383000Y-55187000D03*
%TO.P,U1,14,Q9*%
%TO.N,Net-(D20-K)*%
X60383000Y-57727000D03*
%TO.P,U1,15,Q10*%
%TO.N,Net-(D19-K)*%
X60383000Y-60267000D03*
%TO.P,U1,16,VDD*%
%TO.N,+5V*%
X60383000Y-62807000D03*
%TD*%
D14*
%TO.P,JP4,1,A*%
%TO.N,Net-(D10-K)*%
X43662600Y-40843200D03*
%TO.P,JP4,2,B*%
%TO.N,Net-(D4-K)*%
X84251800Y-43484800D03*
%TD*%
D18*
%TO.P,D20,1,K*%
%TO.N,Net-(D20-K)*%
X56456000Y-59241000D03*
D15*
%TO.P,D20,2,A*%
%TO.N,Net-(D19-A)*%
X43756000Y-59241000D03*
%TD*%
D14*
%TO.P,C7,1*%
%TO.N,+5V*%
X68013000Y-69127000D03*
%TO.P,C7,2*%
%TO.N,GND*%
X68013000Y-66627000D03*
%TD*%
D19*
%TO.P,D13,1,K*%
%TO.N,GND*%
X115366800Y-35179000D03*
D20*
%TO.P,D13,2,A*%
%TO.N,/CLK_VCC*%
X115366800Y-37719000D03*
%TD*%
D18*
%TO.P,D32,1,K*%
%TO.N,Net-(D32-K)*%
X68534600Y-95986600D03*
D15*
%TO.P,D32,2,A*%
%TO.N,Net-(D31-A)*%
X55834600Y-95986600D03*
%TD*%
D18*
%TO.P,D7,1,K*%
%TO.N,Net-(D4-K)*%
X84269000Y-60384000D03*
D15*
%TO.P,D7,2,A*%
%TO.N,Net-(D7-A)*%
X71569000Y-60384000D03*
%TD*%
D14*
%TO.P,R18,1*%
%TO.N,Net-(D26-A)*%
X112082000Y-69650000D03*
D15*
%TO.P,R18,2*%
%TO.N,Net-(U5-Q4)*%
X112082000Y-59490000D03*
%TD*%
D14*
%TO.P,R1,1*%
%TO.N,Net-(JP9-A)*%
X95966600Y-93218000D03*
D15*
%TO.P,R1,2*%
%TO.N,+5V*%
X95966600Y-83058000D03*
%TD*%
D14*
%TO.P,C1,1*%
%TO.N,/CLK_VCC*%
X106073000Y-37651000D03*
%TO.P,C1,2*%
%TO.N,GND*%
X103573000Y-37651000D03*
%TD*%
D18*
%TO.P,D29,1,K*%
%TO.N,/F2*%
X68534600Y-87909400D03*
D15*
%TO.P,D29,2,A*%
%TO.N,Net-(D29-A)*%
X55834600Y-87909400D03*
%TD*%
D14*
%TO.P,C3,2*%
%TO.N,GND*%
X116713000Y-92760800D03*
%TO.P,C3,1*%
%TO.N,+8V*%
X119213000Y-92760800D03*
%TD*%
%TO.P,R12,1*%
%TO.N,Net-(D25-A)*%
X116781000Y-69650000D03*
D15*
%TO.P,R12,2*%
%TO.N,Net-(U5-Q3)*%
X116781000Y-59490000D03*
%TD*%
D14*
%TO.P,R4,1*%
%TO.N,+5V*%
X89349000Y-69655000D03*
D15*
%TO.P,R4,2*%
%TO.N,/REF2.5*%
X99509000Y-69655000D03*
%TD*%
D14*
%TO.P,R16,1*%
%TO.N,Net-(U11-Q8)*%
X26974800Y-57632600D03*
D15*
%TO.P,R16,2*%
%TO.N,/MOTOR_CLOCK_B*%
X26974800Y-67792600D03*
%TD*%
D14*
%TO.P,R11,1*%
%TO.N,Net-(D24-A)*%
X120337000Y-69650000D03*
D15*
%TO.P,R11,2*%
%TO.N,Net-(U5-Q2)*%
X120337000Y-59490000D03*
%TD*%
D14*
%TO.P,R33,1*%
%TO.N,Net-(U1-CLK)*%
X53916000Y-48065000D03*
D15*
%TO.P,R33,2*%
%TO.N,Net-(U11-Q14)*%
X43756000Y-48065000D03*
%TD*%
D14*
%TO.P,C9,1*%
%TO.N,/CLK_VCC*%
X97332800Y-41910000D03*
%TO.P,C9,2*%
%TO.N,GND*%
X94832800Y-41910000D03*
%TD*%
D15*
%TO.P,R13,2*%
%TO.N,+5V*%
X99903600Y-82905600D03*
D14*
%TO.P,R13,1*%
%TO.N,Net-(JP10-B)*%
X99903600Y-93065600D03*
%TD*%
D18*
%TO.P,D19,1,K*%
%TO.N,Net-(D19-K)*%
X56456000Y-61908000D03*
D15*
%TO.P,D19,2,A*%
%TO.N,Net-(D19-A)*%
X43756000Y-61908000D03*
%TD*%
D14*
%TO.P,C4,1*%
%TO.N,+8V*%
X119213000Y-87426800D03*
%TO.P,C4,2*%
%TO.N,GND*%
X116713000Y-87426800D03*
%TD*%
D18*
%TO.P,D21,1,K*%
%TO.N,Net-(D21-K)*%
X71569000Y-57844000D03*
D15*
%TO.P,D21,2,A*%
%TO.N,Net-(D18-A)*%
X84269000Y-57844000D03*
%TD*%
D18*
%TO.P,U5,1,Q11*%
%TO.N,unconnected-(U5-Q11-Pad1)*%
X107155000Y-55371000D03*
D15*
%TO.P,U5,2,Q5*%
%TO.N,Net-(U5-Q5)*%
X109695000Y-55371000D03*
%TO.P,U5,3,Q4*%
%TO.N,Net-(U5-Q4)*%
X112235000Y-55371000D03*
%TO.P,U5,4,Q6*%
%TO.N,Net-(U5-Q6)*%
X114775000Y-55371000D03*
%TO.P,U5,5,Q3*%
%TO.N,Net-(U5-Q3)*%
X117315000Y-55371000D03*
%TO.P,U5,6,Q2*%
%TO.N,Net-(U5-Q2)*%
X119855000Y-55371000D03*
%TO.P,U5,7,Q1*%
%TO.N,Net-(U5-Q1)*%
X122395000Y-55371000D03*
%TO.P,U5,8,VSS*%
%TO.N,GND*%
X124935000Y-55371000D03*
%TO.P,U5,9,Q0*%
%TO.N,Net-(U5-Q0)*%
X124935000Y-47751000D03*
%TO.P,U5,10,CLK*%
%TO.N,Net-(JP5-B)*%
X122395000Y-47751000D03*
%TO.P,U5,11,Reset*%
%TO.N,Net-(U5-Reset)*%
X119855000Y-47751000D03*
%TO.P,U5,12,Q8*%
%TO.N,unconnected-(U5-Q8-Pad12)*%
X117315000Y-47751000D03*
%TO.P,U5,13,Q7*%
%TO.N,unconnected-(U5-Q7-Pad13)*%
X114775000Y-47751000D03*
%TO.P,U5,14,Q9*%
%TO.N,unconnected-(U5-Q9-Pad14)*%
X112235000Y-47751000D03*
%TO.P,U5,16,VDD*%
%TO.N,/CLK_VCC*%
X107155000Y-47751000D03*
%TD*%
D18*
%TO.P,U10,1,I1*%
%TO.N,Net-(JP15-A)*%
X75631600Y-85428400D03*
D15*
%TO.P,U10,2,I2*%
%TO.N,/F2*%
X75631600Y-87968400D03*
%TO.P,U10,3,I3*%
%TO.N,/F3*%
X75631600Y-90508400D03*
%TO.P,U10,4,I4*%
%TO.N,/F4*%
X75631600Y-93048400D03*
%TO.P,U10,5,I5*%
%TO.N,Net-(D32-K)*%
X75631600Y-95588400D03*
%TO.P,U10,6,I6*%
%TO.N,Net-(JP7-B)*%
X75631600Y-98128400D03*
%TO.P,U10,7,I7*%
%TO.N,Net-(Q1-C)*%
X75631600Y-100668400D03*
%TO.P,U10,8,GND*%
%TO.N,GND*%
X75631600Y-103208400D03*
%TO.P,U10,9,COM*%
%TO.N,unconnected-(U10-COM-Pad9)*%
X83251600Y-103208400D03*
%TO.P,U10,10,O7*%
%TO.N,/F_RESET*%
X83251600Y-100668400D03*
%TO.P,U10,11,O6*%
%TO.N,Net-(JP10-B)*%
X83251600Y-98128400D03*
%TO.P,U10,12,O5*%
%TO.N,Net-(JP9-A)*%
X83251600Y-95588400D03*
%TO.P,U10,13,O4*%
%TO.N,/MOTOR4*%
X83251600Y-93048400D03*
%TO.P,U10,14,O3*%
%TO.N,/MOTOR3*%
X83251600Y-90508400D03*
%TO.P,U10,15,O2*%
%TO.N,/MOTOR2*%
X83251600Y-87968400D03*
%TO.P,U10,16,O1*%
%TO.N,/MOTOR1*%
X83251600Y-85428400D03*
%TD*%
D18*
%TO.P,D8,1,K*%
%TO.N,Net-(D4-K)*%
X84269000Y-54923000D03*
D15*
%TO.P,D8,2,A*%
%TO.N,Net-(D8-A)*%
X71569000Y-54923000D03*
%TD*%
D14*
%TO.P,C5,2*%
%TO.N,GND*%
X112131800Y-82727800D03*
%TO.P,C5,1*%
%TO.N,+5V*%
X109631800Y-82727800D03*
%TD*%
%TO.P,R15,1*%
%TO.N,Net-(U11-Q8)*%
X22834600Y-57632600D03*
D15*
%TO.P,R15,2*%
%TO.N,/MOTOR_CLOCK_A*%
X22834600Y-67792600D03*
%TD*%
D18*
%TO.P,D10,1,K*%
%TO.N,Net-(D10-K)*%
X43756000Y-53018000D03*
D15*
%TO.P,D10,2,A*%
%TO.N,/Q8*%
X56456000Y-53018000D03*
%TD*%
D14*
%TO.P,C12,1*%
%TO.N,+5V*%
X61016200Y-75046200D03*
%TO.P,C12,2*%
%TO.N,GND*%
X61016200Y-77546200D03*
%TD*%
D17*
%TO.P,J3,2,Pin_2*%
%TO.N,+8V*%
X119233000Y-82981800D03*
D16*
%TO.P,J3,1,Pin_1*%
%TO.N,GND*%
X116693000Y-82981800D03*
%TD*%
D18*
%TO.P,U9,1*%
%TO.N,Net-(JP2-A)*%
X89465000Y-52361000D03*
D15*
%TO.P,U9,2,-*%
%TO.N,Net-(D4-K)*%
X89465000Y-54901000D03*
%TO.P,U9,3,+*%
%TO.N,/REF2.5*%
X89465000Y-57441000D03*
%TO.P,U9,4,V-*%
%TO.N,Net-(JP21-A)*%
X89465000Y-59981000D03*
%TO.P,U9,5,+*%
%TO.N,Net-(D18-A)*%
X97085000Y-59981000D03*
%TO.P,U9,6,-*%
%TO.N,/REF2.5*%
X97085000Y-57441000D03*
%TO.P,U9,7*%
%TO.N,Net-(JP2-A)*%
X97085000Y-54901000D03*
%TO.P,U9,8,V+*%
%TO.N,/CLK_VCC*%
X97085000Y-52361000D03*
%TD*%
D18*
%TO.P,D18,1,K*%
%TO.N,Net-(D18-K)*%
X71569000Y-63178000D03*
D15*
%TO.P,D18,2,A*%
%TO.N,Net-(D18-A)*%
X84269000Y-63178000D03*
%TD*%
D14*
%TO.P,C2,1*%
%TO.N,/CLK_VCC*%
X106113000Y-42604000D03*
%TO.P,C2,2*%
%TO.N,GND*%
X103613000Y-42604000D03*
%TD*%
D15*
%TO.P,R14,2*%
%TO.N,/"R" CLOCK A*%
X104267000Y-69469000D03*
D14*
%TO.P,R14,1*%
%TO.N,Net-(U5-Q5)*%
X104267000Y-59309000D03*
%TD*%
%TO.P,R6,1*%
%TO.N,Net-(C24-Pad1)*%
X22801000Y-51347000D03*
D15*
%TO.P,R6,2*%
%TO.N,Net-(C25-Pad1)*%
X22801000Y-41187000D03*
%TD*%
D14*
%TO.P,C24,1*%
%TO.N,Net-(C24-Pad1)*%
X27246000Y-50839000D03*
%TO.P,C24,2*%
%TO.N,GND*%
X27246000Y-53339000D03*
%TD*%
D18*
%TO.P,D6,1,K*%
%TO.N,Net-(D4-K)*%
X84269000Y-52383000D03*
D15*
%TO.P,D6,2,A*%
%TO.N,Net-(D6-A)*%
X71569000Y-52383000D03*
%TD*%
D19*
%TO.P,D2,1,K*%
%TO.N,Net-(D2-K)*%
X73101200Y-40741600D03*
D20*
%TO.P,D2,2,A*%
%TO.N,Net-(D2-A)*%
X75641200Y-40741600D03*
%TD*%
D14*
%TO.P,R7,1*%
%TO.N,GND*%
X89281000Y-73660000D03*
D15*
%TO.P,R7,2*%
%TO.N,/REF2.5*%
X99441000Y-73660000D03*
%TD*%
D14*
%TO.P,JP1,1,A*%
%TO.N,+5V*%
X82276000Y-81178400D03*
%TO.P,JP1,2,B*%
%TO.N,Net-(JP1-B)*%
X49637000Y-105511600D03*
%TD*%
D18*
%TO.P,D15,1,K*%
%TO.N,Net-(D15-K)*%
X26370600Y-87274400D03*
D15*
%TO.P,D15,2,A*%
%TO.N,Net-(D15-A)*%
X39070600Y-87274400D03*
%TD*%
D14*
%TO.P,C25,1*%
%TO.N,Net-(C25-Pad1)*%
X27246000Y-41929000D03*
%TO.P,C25,2*%
%TO.N,GND*%
X27246000Y-39429000D03*
%TD*%
D19*
%TO.P,D23,1,K*%
%TO.N,GND*%
X126378000Y-76827000D03*
D20*
%TO.P,D23,2,A*%
%TO.N,Net-(D23-A)*%
X126378000Y-74287000D03*
%TD*%
D18*
%TO.P,D17,1,K*%
%TO.N,Net-(D17-K)*%
X26370600Y-79146400D03*
D15*
%TO.P,D17,2,A*%
%TO.N,Net-(D17-A)*%
X39070600Y-79146400D03*
%TD*%
D18*
%TO.P,D14,1,K*%
%TO.N,/F1*%
X26370600Y-84734400D03*
D15*
%TO.P,D14,2,A*%
%TO.N,Net-(D14-A)*%
X39070600Y-84734400D03*
%TD*%
D18*
%TO.P,D27,1,K*%
%TO.N,/F4*%
X68534600Y-93243400D03*
D15*
%TO.P,D27,2,A*%
%TO.N,Net-(D27-A)*%
X55834600Y-93243400D03*
%TD*%
D28*
%TO.N,Net-(JP6-B)*%
X129362200Y-31165800D02*
X129362200Y-33548600D01*
%TO.N,+5V*%
X73812400Y-70206399D02*
X73812400Y-71882000D01*
X74091800Y-69926999D02*
X73812400Y-70206399D01*
X74091800Y-69926999D02*
X85548001Y-69926999D01*
X73787000Y-69926999D02*
X74091800Y-69926999D01*
%TO.N,Net-(JP5-B)*%
X124265625Y-45200519D02*
X129209800Y-45200519D01*
X122939106Y-43874000D02*
X124265625Y-45200519D01*
X122369000Y-43874000D02*
X122939106Y-43874000D01*
%TO.N,Net-(D31-A)*%
X56906970Y-85428400D02*
X51501600Y-85428400D01*
X56965970Y-85369400D02*
X56906970Y-85428400D01*
%TO.N,Net-(D4-K)*%
X84251800Y-46523800D02*
X84269000Y-46541000D01*
X84251800Y-43484800D02*
X84251800Y-46523800D01*
%TO.N,Net-(D10-K)*%
X43764200Y-44881800D02*
X43756000Y-44890000D01*
X43764200Y-40970200D02*
X43764200Y-44881800D01*
%TO.N,Net-(JP7-B)*%
X75563600Y-98196400D02*
X75631600Y-98128400D01*
X72263000Y-98196400D02*
X75563600Y-98196400D01*
X71704600Y-98196400D02*
X72263000Y-98196400D01*
X68407600Y-101493400D02*
X71704600Y-98196400D01*
%TO.N,Net-(JP15-A)*%
X75344000Y-85140800D02*
X75631600Y-85428400D01*
X72263000Y-85140800D02*
X75344000Y-85140800D01*
%TO.N,/MOTOR_CLOCK_A*%
X22834600Y-71176223D02*
X22672211Y-71338612D01*
X22834600Y-67792600D02*
X22834600Y-71176223D01*
%TO.N,/MOTOR_CLOCK_B*%
X30859337Y-71677137D02*
X43872863Y-71677137D01*
X43872863Y-71677137D02*
X43896600Y-71653400D01*
X26974800Y-67792600D02*
X30859337Y-71677137D01*
%TO.N,Net-(D22-A)*%
X129989000Y-62873200D02*
X129989000Y-57971000D01*
X128778000Y-64084200D02*
X129989000Y-62873200D01*
%TO.N,/CLK_VCC*%
X110058200Y-37719000D02*
X122346800Y-37719000D01*
%TO.N,GND*%
X66395600Y-108950010D02*
X66434655Y-108910955D01*
X66395600Y-111099600D02*
X66395600Y-108950010D01*
X66395600Y-111099600D02*
X36352800Y-111099600D01*
X70668200Y-111099600D02*
X66395600Y-111099600D01*
X110413800Y-111099600D02*
X80142400Y-111099600D01*
X112298800Y-99618800D02*
X112298800Y-109214600D01*
X112298800Y-109214600D02*
X110413800Y-111099600D01*
X38539000Y-43764200D02*
X38539000Y-35496200D01*
X64516000Y-35351000D02*
X38684200Y-35351000D01*
X38539000Y-35496200D02*
X38684200Y-35351000D01*
X38539000Y-43764200D02*
X38539000Y-44880000D01*
X38539000Y-43209000D02*
X38539000Y-43764200D01*
X64584000Y-35419000D02*
X64516000Y-35351000D01*
X64584000Y-44907200D02*
X64584000Y-35419000D01*
X94869000Y-35351000D02*
X64516000Y-35351000D01*
X94832800Y-35387200D02*
X94869000Y-35351000D01*
X94832800Y-41910000D02*
X94832800Y-35387200D01*
X103403400Y-35351000D02*
X94869000Y-35351000D01*
X103573000Y-37651000D02*
X103573000Y-35520600D01*
X103573000Y-35520600D02*
X103403400Y-35351000D01*
X131896400Y-35351000D02*
X103403400Y-35351000D01*
X132638800Y-36093400D02*
X131896400Y-35351000D01*
X132638800Y-57023000D02*
X132638800Y-36093400D01*
X132638800Y-66167000D02*
X132638800Y-57023000D01*
X132638800Y-57023000D02*
X132638800Y-56487600D01*
X132638800Y-56487600D02*
X131522200Y-55371000D01*
X132181600Y-66624200D02*
X132638800Y-66167000D01*
X128778000Y-66624200D02*
X132181600Y-66624200D01*
X128778000Y-76327000D02*
X128778000Y-66624200D01*
X128278000Y-76827000D02*
X128778000Y-76327000D01*
X126378000Y-76827000D02*
X128278000Y-76827000D01*
X112131800Y-82727800D02*
X112131800Y-77185800D01*
X64703800Y-45027000D02*
X68003000Y-45027000D01*
X64584000Y-44907200D02*
X64703800Y-45027000D01*
X64584000Y-44907200D02*
X64584000Y-66627000D01*
%TO.N,+5V*%
X66959800Y-70180200D02*
X68013000Y-69127000D01*
X66959800Y-75082400D02*
X66959800Y-70180200D01*
%TO.N,GND*%
X43881600Y-101483400D02*
X44074400Y-101676200D01*
X43881600Y-93048400D02*
X43881600Y-101483400D01*
X44074400Y-101676200D02*
X55834600Y-101676200D01*
X35896400Y-101676200D02*
X44074400Y-101676200D01*
X35896400Y-101676200D02*
X35896400Y-90478600D01*
X35896400Y-110643200D02*
X35896400Y-101676200D01*
X55834600Y-101676200D02*
X57053800Y-100457000D01*
X35896400Y-90478600D02*
X36022600Y-90352400D01*
X36022600Y-90352400D02*
X28910600Y-90352400D01*
X35896400Y-110643200D02*
X36352800Y-111099600D01*
X70947600Y-109367400D02*
X70947600Y-110820200D01*
X80142400Y-111099600D02*
X70668200Y-111099600D01*
X70947600Y-110820200D02*
X70668200Y-111099600D01*
X75631600Y-103208400D02*
X79702400Y-103208400D01*
X80015400Y-102895400D02*
X80015400Y-110972600D01*
X79702400Y-103208400D02*
X80015400Y-102895400D01*
X80015400Y-83032600D02*
X80015400Y-102895400D01*
X80015400Y-110972600D02*
X80142400Y-111099600D01*
X72878000Y-83032600D02*
X80015400Y-83032600D01*
X67427800Y-77582400D02*
X72878000Y-83032600D01*
X66959800Y-77582400D02*
X67427800Y-77582400D01*
X112298800Y-92593800D02*
X112298800Y-99618800D01*
X112385800Y-92506800D02*
X112298800Y-92593800D01*
X112385800Y-92506800D02*
X112385800Y-82981800D01*
X112385800Y-92837000D02*
X112385800Y-92506800D01*
%TO.N,+5V*%
X109530200Y-99314000D02*
X109530200Y-103022400D01*
X109530200Y-98369000D02*
X109530200Y-99314000D01*
X109530200Y-103022400D02*
X106609200Y-103022400D01*
X87203600Y-103124000D02*
X106507600Y-103124000D01*
X106609200Y-103022400D02*
X106507600Y-103124000D01*
X109631800Y-98267400D02*
X109530200Y-98369000D01*
X85044600Y-105283000D02*
X85044600Y-107086400D01*
X87203600Y-103124000D02*
X85044600Y-105283000D01*
X109631800Y-82727800D02*
X109631800Y-98267400D01*
%TO.N,GND*%
X112462000Y-92760800D02*
X116713000Y-92760800D01*
%TO.N,+8V*%
X119060400Y-99537400D02*
X119233000Y-99364800D01*
X115981800Y-99537400D02*
X119060400Y-99537400D01*
%TO.N,Net-(JP1-B)*%
X54259800Y-105457000D02*
X57053800Y-105457000D01*
X43566400Y-105435400D02*
X54238200Y-105435400D01*
X54238200Y-105435400D02*
X54259800Y-105457000D01*
%TO.N,+5V*%
X103764400Y-82854800D02*
X109504800Y-82854800D01*
X99903600Y-82905600D02*
X103713600Y-82905600D01*
%TO.N,/F_RESET*%
X103866000Y-100431600D02*
X103866000Y-93116400D01*
X83251600Y-100668400D02*
X103629200Y-100668400D01*
X103629200Y-100668400D02*
X103866000Y-100431600D01*
%TO.N,Net-(JP10-B)*%
X99700400Y-98221800D02*
X99700400Y-93268800D01*
X83251600Y-98128400D02*
X99607000Y-98128400D01*
%TO.N,Net-(JP9-A)*%
X96042800Y-95808800D02*
X96042800Y-93294200D01*
X95822400Y-95588400D02*
X96042800Y-95808800D01*
X83251600Y-95588400D02*
X95822400Y-95588400D01*
%TO.N,/MOTOR4*%
X87838600Y-92989400D02*
X92156600Y-92989400D01*
%TO.N,/MOTOR3*%
X87838600Y-90449400D02*
X92156600Y-90449400D01*
%TO.N,/MOTOR2*%
X87838600Y-87909400D02*
X92156600Y-87909400D01*
%TO.N,/MOTOR1*%
X87838600Y-85369400D02*
X92156600Y-85369400D01*
%TO.N,+5V*%
X89778800Y-82919600D02*
X99813400Y-82919600D01*
X89688600Y-82829400D02*
X89778800Y-82919600D01*
X67943800Y-75082400D02*
X66959800Y-75082400D01*
X73894000Y-81032600D02*
X67943800Y-75082400D01*
X86041800Y-81032600D02*
X73894000Y-81032600D01*
X87838600Y-82829400D02*
X86041800Y-81032600D01*
%TO.N,GND*%
X112385800Y-92837000D02*
X112462000Y-92760800D01*
X61016200Y-77546200D02*
X66923600Y-77546200D01*
%TO.N,+5V*%
X53568600Y-75082400D02*
X66959800Y-75082400D01*
X53382600Y-75268400D02*
X53568600Y-75082400D01*
%TO.N,Net-(JP21-A)*%
X89572800Y-63550800D02*
X93141800Y-63550800D01*
X89465000Y-63443000D02*
X89572800Y-63550800D01*
X89465000Y-59981000D02*
X89465000Y-63443000D01*
%TO.N,Net-(D23-A)*%
X123893000Y-69650000D02*
X123893000Y-71802000D01*
X123893000Y-71802000D02*
X126378000Y-74287000D01*
%TO.N,Net-(D24-A)*%
X120337000Y-73199000D02*
X121425000Y-74287000D01*
X120337000Y-69650000D02*
X120337000Y-73199000D01*
%TO.N,Net-(D25-A)*%
X116781000Y-69650000D02*
X116781000Y-74232000D01*
%TO.N,Net-(D26-A)*%
X112082000Y-73978000D02*
X111773000Y-74287000D01*
X112082000Y-69650000D02*
X112082000Y-73978000D01*
%TO.N,GND*%
X93167200Y-76962000D02*
X126243000Y-76962000D01*
X89865200Y-73660000D02*
X93167200Y-76962000D01*
X89281000Y-73660000D02*
X89865200Y-73660000D01*
%TO.N,/CLK_VCC*%
X106073000Y-37651000D02*
X109990200Y-37651000D01*
%TO.N,Net-(JP2-A)*%
X89465000Y-42259400D02*
X90982800Y-40741600D01*
X89465000Y-52361000D02*
X89465000Y-42259400D01*
%TO.N,Net-(D2-A)*%
X78282800Y-40741600D02*
X80822800Y-40741600D01*
X75641200Y-40741600D02*
X78282800Y-40741600D01*
%TO.N,Net-(D2-K)*%
X70426000Y-40699000D02*
X73058600Y-40699000D01*
%TO.N,GND*%
X131522200Y-55371000D02*
X124935000Y-55371000D01*
%TO.N,/CLK_VCC*%
X97352800Y-52093200D02*
X97085000Y-52361000D01*
X97352800Y-47244000D02*
X97352800Y-52093200D01*
X106648000Y-47244000D02*
X107155000Y-47751000D01*
X97352800Y-47244000D02*
X106648000Y-47244000D01*
X97332800Y-41910000D02*
X97332800Y-47224000D01*
%TO.N,GND*%
X94852800Y-47244000D02*
X94852800Y-41930000D01*
%TO.N,/CLK_VCC*%
X106073000Y-37651000D02*
X106073000Y-42564000D01*
%TO.N,+5V*%
X87838600Y-82829400D02*
X89688600Y-82829400D01*
%TO.N,Net-(Q1-C)*%
X70947600Y-106827400D02*
X70947600Y-102133400D01*
X70947600Y-102133400D02*
X72412600Y-100668400D01*
X72412600Y-100668400D02*
X75631600Y-100668400D01*
%TO.N,GND*%
X60630200Y-104033400D02*
X68407600Y-104033400D01*
X57053800Y-100457000D02*
X60630200Y-104033400D01*
%TO.N,Net-(JP1-B)*%
X57053800Y-108387277D02*
X57485600Y-108819077D01*
X57053800Y-105457000D02*
X57053800Y-108387277D01*
%TO.N,Net-(D11-K)*%
X39070600Y-90352400D02*
X39070600Y-97053400D01*
%TO.N,Net-(D12-A)*%
X23068600Y-93599000D02*
X26466200Y-93599000D01*
%TO.N,Net-(D11-A)*%
X23119400Y-97256600D02*
X26472200Y-97256600D01*
%TO.N,Net-(D11-K)*%
X39245292Y-90352400D02*
X41629292Y-87968400D01*
X43881600Y-87968400D02*
X41629292Y-87968400D01*
%TO.N,Net-(D15-K)*%
X22967000Y-87249000D02*
X26345200Y-87249000D01*
%TO.N,+5V*%
X51501600Y-75268400D02*
X53382600Y-75268400D01*
%TO.N,Net-(JP15-A)*%
X75318600Y-85115400D02*
X75631600Y-85428400D01*
%TO.N,Net-(D33-K)*%
X23221000Y-81915000D02*
X26345200Y-81915000D01*
%TO.N,Net-(D17-K)*%
X23170200Y-79171800D02*
X26345200Y-79171800D01*
%TO.N,/F1*%
X23170200Y-76123800D02*
X26345200Y-76123800D01*
X28670600Y-76598400D02*
X28670600Y-84240400D01*
X28176600Y-84734400D02*
X26370600Y-84734400D01*
X28170600Y-76098400D02*
X28670600Y-76598400D01*
X26370600Y-76098400D02*
X28170600Y-76098400D01*
X28670600Y-84240400D02*
X28176600Y-84734400D01*
%TO.N,Net-(D32-K)*%
X68932800Y-95588400D02*
X75631600Y-95588400D01*
X68534600Y-95986600D02*
X68932800Y-95588400D01*
%TO.N,Net-(D31-A)*%
X58450800Y-90703400D02*
X58501600Y-90754200D01*
X55834600Y-90703400D02*
X58450800Y-90703400D01*
X58501600Y-90754200D02*
X58501600Y-95758000D01*
X58501600Y-86905030D02*
X58501600Y-90754200D01*
X58273000Y-95986600D02*
X55834600Y-95986600D01*
X58501600Y-95758000D02*
X58273000Y-95986600D01*
X56965970Y-85369400D02*
X58501600Y-86905030D01*
%TO.N,/LOAD*%
X51501600Y-77808400D02*
X55775600Y-77808400D01*
%TO.N,/R_RESET*%
X51501600Y-80348400D02*
X55792000Y-80348400D01*
%TO.N,/"R" CLOCK B*%
X108077000Y-69469000D02*
X108077000Y-73152000D01*
%TO.N,/"R" CLOCK A*%
X104267000Y-69469000D02*
X104267000Y-73152000D01*
%TO.N,Net-(Q1-C)*%
X65359600Y-106910900D02*
X70864100Y-106910900D01*
%TO.N,Net-(JP1-B)*%
X57485600Y-108819077D02*
X64192667Y-108819077D01*
X64192667Y-108819077D02*
X64284545Y-108910955D01*
%TO.N,Net-(D14-A)*%
X40895970Y-85428400D02*
X43881600Y-85428400D01*
X40201970Y-84734400D02*
X40895970Y-85428400D01*
X39070600Y-84734400D02*
X40201970Y-84734400D01*
%TO.N,Net-(D15-A)*%
X38611908Y-81940400D02*
X39070600Y-81940400D01*
X36770600Y-86105770D02*
X36770600Y-83781708D01*
X37939230Y-87274400D02*
X36770600Y-86105770D01*
X39070600Y-87274400D02*
X37939230Y-87274400D01*
X36770600Y-83781708D02*
X38611908Y-81940400D01*
X41335114Y-82888400D02*
X43881600Y-82888400D01*
X40387114Y-81940400D02*
X41335114Y-82888400D01*
X39070600Y-81940400D02*
X40387114Y-81940400D01*
%TO.N,Net-(D17-A)*%
X41623542Y-80348400D02*
X43881600Y-80348400D01*
X40421542Y-79146400D02*
X41623542Y-80348400D01*
X39070600Y-79146400D02*
X40421542Y-79146400D01*
%TO.N,Net-(D30-A)*%
X41911970Y-77808400D02*
X43881600Y-77808400D01*
X40201970Y-76098400D02*
X41911970Y-77808400D01*
X39070600Y-76098400D02*
X40201970Y-76098400D01*
%TO.N,Net-(Q1-C)*%
X74625600Y-106827400D02*
X70947600Y-106827400D01*
X74884600Y-107086400D02*
X74625600Y-106827400D01*
%TO.N,+8V*%
X119233000Y-82981800D02*
X119233000Y-99364800D01*
%TO.N,GND*%
X38295000Y-66647000D02*
X34612000Y-66647000D01*
X29787630Y-52500000D02*
X28948630Y-53339000D01*
X34612000Y-66647000D02*
X33362000Y-66647000D01*
X103573000Y-37651000D02*
X103573000Y-42564000D01*
X29966308Y-41396616D02*
X27756692Y-39187000D01*
X34612000Y-42580000D02*
X29966308Y-42580000D01*
X34348000Y-52500000D02*
X34612000Y-52236000D01*
X37914000Y-42584000D02*
X38539000Y-43209000D01*
X62806000Y-66627000D02*
X64584000Y-66627000D01*
X64584000Y-66627000D02*
X68013000Y-66627000D01*
X36239000Y-42580000D02*
X36243000Y-42584000D01*
X30919000Y-52500000D02*
X29787630Y-52500000D01*
X27756692Y-39187000D02*
X27246000Y-39187000D01*
X34612000Y-52236000D02*
X34612000Y-66647000D01*
X27559000Y-39116000D02*
X27246000Y-39429000D01*
X29966308Y-42580000D02*
X29966308Y-41396616D01*
X34612000Y-42580000D02*
X34612000Y-52236000D01*
X36243000Y-42584000D02*
X37914000Y-42584000D01*
X30919000Y-52500000D02*
X34348000Y-52500000D01*
X36239000Y-42580000D02*
X34612000Y-42580000D01*
X28948630Y-53339000D02*
X27246000Y-53339000D01*
X116693000Y-82981800D02*
X116693000Y-92740800D01*
X112385800Y-82981800D02*
X112131800Y-82727800D01*
%TO.N,/CLK_VCC*%
X107155000Y-47751000D02*
X107155000Y-43646000D01*
X107155000Y-43646000D02*
X106113000Y-42604000D01*
%TO.N,Net-(D10-K)*%
X43756000Y-56701000D02*
X43756000Y-53018000D01*
X46296000Y-45630000D02*
X46296000Y-51621000D01*
X43756000Y-53018000D02*
X44899000Y-53018000D01*
X44899000Y-53018000D02*
X46296000Y-51621000D01*
X43756000Y-44890000D02*
X45556000Y-44890000D01*
X45556000Y-44890000D02*
X46296000Y-45630000D01*
%TO.N,Net-(D4-A)*%
X68003000Y-47567000D02*
X70543000Y-47567000D01*
X70543000Y-47567000D02*
X71569000Y-46541000D01*
%TO.N,Net-(D5-A)*%
X68003000Y-50107000D02*
X71178000Y-50107000D01*
X71178000Y-50107000D02*
X71569000Y-49716000D01*
%TO.N,Net-(D6-A)*%
X69398370Y-52383000D02*
X71569000Y-52383000D01*
X69134370Y-52647000D02*
X69398370Y-52383000D01*
X68003000Y-52647000D02*
X69134370Y-52647000D01*
%TO.N,Net-(D7-A)*%
X68003000Y-60267000D02*
X71452000Y-60267000D01*
%TO.N,Net-(D8-A)*%
X71305000Y-55187000D02*
X71569000Y-54923000D01*
X68003000Y-55187000D02*
X71305000Y-55187000D01*
%TO.N,Net-(C24-Pad1)*%
X23309000Y-50839000D02*
X27246000Y-50839000D01*
X22801000Y-51347000D02*
X23309000Y-50839000D01*
X30589000Y-47090000D02*
X30919000Y-47420000D01*
X27246000Y-47090000D02*
X27246000Y-50839000D01*
X27246000Y-47090000D02*
X30589000Y-47090000D01*
%TO.N,/MOTOR1*%
X83251600Y-85428400D02*
X87779600Y-85428400D01*
%TO.N,/MOTOR2*%
X83251600Y-87968400D02*
X87779600Y-87968400D01*
%TO.N,/MOTOR3*%
X83251600Y-90508400D02*
X87779600Y-90508400D01*
%TO.N,/MOTOR4*%
X83251600Y-93048400D02*
X87779600Y-93048400D01*
%TO.N,/LOAD*%
X45012970Y-90508400D02*
X47935600Y-87585770D01*
X49723600Y-77808400D02*
X51501600Y-77808400D01*
X43881600Y-90508400D02*
X45012970Y-90508400D01*
X47935600Y-87585770D02*
X47935600Y-79596400D01*
X47935600Y-79596400D02*
X49723600Y-77808400D01*
%TO.N,Net-(C25-Pad1)*%
X27246000Y-41929000D02*
X27246000Y-45090000D01*
X27246000Y-41929000D02*
X23543000Y-41929000D01*
X30609000Y-45190000D02*
X30919000Y-44880000D01*
X23543000Y-41929000D02*
X22801000Y-41187000D01*
X27246000Y-45190000D02*
X30609000Y-45190000D01*
%TO.N,/F3*%
X68265600Y-90508400D02*
X75631600Y-90508400D01*
%TO.N,Net-(D18-K)*%
X71198000Y-62807000D02*
X71569000Y-63178000D01*
X68003000Y-62807000D02*
X71198000Y-62807000D01*
%TO.N,Net-(D18-A)*%
X86569000Y-58084000D02*
X86329000Y-57844000D01*
X84269000Y-63178000D02*
X85400370Y-63178000D01*
X85400370Y-63178000D02*
X86569000Y-62009370D01*
X86329000Y-57844000D02*
X84269000Y-57844000D01*
X86569000Y-62009370D02*
X86569000Y-58084000D01*
X84269000Y-63178000D02*
X84269000Y-67242000D01*
X97085000Y-66607000D02*
X97085000Y-59981000D01*
X84269000Y-67242000D02*
X96450000Y-67242000D01*
X96450000Y-67242000D02*
X97085000Y-66607000D01*
%TO.N,Net-(D19-K)*%
X59251630Y-60267000D02*
X60383000Y-60267000D01*
X56456000Y-61908000D02*
X57610630Y-61908000D01*
X57610630Y-61908000D02*
X59251630Y-60267000D01*
%TO.N,Net-(D20-K)*%
X57449202Y-59241000D02*
X58963202Y-57727000D01*
X56456000Y-59241000D02*
X57449202Y-59241000D01*
X58963202Y-57727000D02*
X60383000Y-57727000D01*
%TO.N,Net-(D21-K)*%
X68003000Y-57727000D02*
X71452000Y-57727000D01*
%TO.N,/F4*%
X66121600Y-92890400D02*
X66474600Y-93243400D01*
X66474600Y-93243400D02*
X68534600Y-93243400D01*
X66474600Y-82829400D02*
X66121600Y-83182400D01*
X68534600Y-82829400D02*
X66474600Y-82829400D01*
X66121600Y-83182400D02*
X66121600Y-92890400D01*
X66477600Y-93312400D02*
X75607600Y-93312400D01*
%TO.N,Net-(D27-A)*%
X54949292Y-93243400D02*
X52214292Y-90508400D01*
X55834600Y-93243400D02*
X54949292Y-93243400D01*
X52214292Y-90508400D02*
X51501600Y-90508400D01*
%TO.N,Net-(D28-A)*%
X55301600Y-82898400D02*
X51511600Y-82898400D01*
%TO.N,/F2*%
X68011600Y-87968400D02*
X75631600Y-87968400D01*
%TO.N,Net-(D29-A)*%
X55301600Y-87978400D02*
X51511600Y-87978400D01*
%TO.N,Net-(U5-Q0)*%
X124935000Y-47751000D02*
X129929000Y-47751000D01*
%TO.N,Net-(U5-Q1)*%
X123893000Y-59490000D02*
X122395000Y-57992000D01*
X122395000Y-57992000D02*
X122395000Y-55371000D01*
%TO.N,Net-(U5-Q2)*%
X120337000Y-59490000D02*
X119855000Y-59008000D01*
X119855000Y-59008000D02*
X119855000Y-55371000D01*
%TO.N,Net-(U5-Q3)*%
X116781000Y-59490000D02*
X117315000Y-58956000D01*
X117315000Y-58956000D02*
X117315000Y-55371000D01*
%TO.N,Net-(U5-Q4)*%
X112082000Y-59490000D02*
X112082000Y-55524000D01*
%TO.N,Net-(U5-Q6)*%
X114775000Y-54658308D02*
X114775000Y-55371000D01*
X109669000Y-49552308D02*
X114775000Y-54658308D01*
X109669000Y-43991000D02*
X109669000Y-49552308D01*
%TO.N,Net-(U5-Reset)*%
X119855000Y-47751000D02*
X119855000Y-44022000D01*
%TO.N,Net-(U1-CLK)*%
X54414000Y-47567000D02*
X60383000Y-47567000D01*
X53916000Y-48065000D02*
X54414000Y-47567000D01*
%TO.N,Net-(U11-Q14)*%
X38539000Y-57580000D02*
X39670370Y-57580000D01*
X41343000Y-55907370D02*
X41343000Y-50478000D01*
X41343000Y-50478000D02*
X43756000Y-48065000D01*
X39670370Y-57580000D02*
X41343000Y-55907370D01*
%TO.N,Net-(U5-Q5)*%
X109695000Y-57413000D02*
X109695000Y-55371000D01*
X103827000Y-59231000D02*
X107877000Y-59231000D01*
X107877000Y-59231000D02*
X109695000Y-57413000D01*
%TO.N,/REF2.5*%
X99509000Y-69655000D02*
X99509000Y-73592000D01*
X99509000Y-58809628D02*
X99509000Y-69655000D01*
X89465000Y-57441000D02*
X97085000Y-57441000D01*
X98216370Y-57441000D02*
X97085000Y-57441000D01*
X99546999Y-58771629D02*
X98216370Y-57441000D01*
X99546999Y-58771629D02*
X99509000Y-58809628D01*
%TO.N,Net-(JP2-A)*%
X95213000Y-54901000D02*
X97085000Y-54901000D01*
X97085000Y-54901000D02*
X98504798Y-54901000D01*
X98504798Y-54901000D02*
X98526798Y-54923000D01*
X98526798Y-54923000D02*
X101160000Y-54923000D01*
X89465000Y-52361000D02*
X92673000Y-52361000D01*
X92673000Y-52361000D02*
X95213000Y-54901000D01*
%TO.N,Net-(JP2-B)*%
X56837000Y-50097000D02*
X60373000Y-50097000D01*
%TO.N,Net-(D19-A)*%
X43756000Y-59241000D02*
X43756000Y-60892000D01*
X43883000Y-65718000D02*
X43883000Y-61019000D01*
X43883000Y-61019000D02*
X43756000Y-60892000D01*
X43756000Y-60892000D02*
X43756000Y-61908000D01*
%TO.N,/Q0*%
X60383000Y-45027000D02*
X60383000Y-40816000D01*
X56456000Y-44890000D02*
X60246000Y-44890000D01*
%TO.N,Net-(D4-K)*%
X84269000Y-54923000D02*
X82469000Y-54923000D01*
X84269000Y-54923000D02*
X84269000Y-52383000D01*
X82469000Y-54923000D02*
X81969000Y-55423000D01*
X84269000Y-46541000D02*
X84269000Y-52383000D01*
X84269000Y-54923000D02*
X89443000Y-54923000D01*
X81969000Y-55423000D02*
X81969000Y-59884000D01*
X81969000Y-59884000D02*
X82469000Y-60384000D01*
X82469000Y-60384000D02*
X84269000Y-60384000D01*
%TO.N,/Q7*%
X57970000Y-55187000D02*
X60383000Y-55187000D01*
X56456000Y-56701000D02*
X57970000Y-55187000D01*
%TO.N,/Q8*%
X56827000Y-52647000D02*
X60383000Y-52647000D01*
X56456000Y-53018000D02*
X56827000Y-52647000D01*
%TO.N,Net-(JP5-B)*%
X122369000Y-47012308D02*
X122395000Y-47038308D01*
X122395000Y-47038308D02*
X122395000Y-47751000D01*
X122369000Y-43874000D02*
X122369000Y-47012308D01*
%TO.N,+5V*%
X30919000Y-67835370D02*
X30919000Y-62660000D01*
X60383000Y-62807000D02*
X60383000Y-68892000D01*
X51943000Y-69088000D02*
X60579000Y-69088000D01*
X74109000Y-67242000D02*
X74109000Y-69604999D01*
X33342000Y-69127000D02*
X32210630Y-69127000D01*
X85806000Y-69669000D02*
X89349000Y-69669000D01*
X33342000Y-69127000D02*
X38275000Y-69127000D01*
X60579000Y-69088000D02*
X67974000Y-69088000D01*
X85548001Y-69926999D02*
X85806000Y-69669000D01*
X32210630Y-69127000D02*
X30919000Y-67835370D01*
X51884000Y-69147000D02*
X51943000Y-69088000D01*
X74109000Y-69604999D02*
X73787000Y-69926999D01*
X68812999Y-69926999D02*
X73787000Y-69926999D01*
X60383000Y-68892000D02*
X60579000Y-69088000D01*
X38295000Y-69147000D02*
X51884000Y-69147000D01*
X68013000Y-69127000D02*
X68812999Y-69926999D01*
%TO.N,Net-(JP11-A)*%
X51501600Y-93048400D02*
X51501600Y-96784400D01*
%TO.N,/MOTOR_CLOCK_B*%
X43896600Y-71653400D02*
X43896600Y-75253400D01*
%TO.N,Net-(U11-Q8)*%
X22674000Y-57443000D02*
X30782000Y-57443000D01*
%TD*%
D14*
%TO.P,R17,1*%
%TO.N,Net-(JP5-B)*%
X129209800Y-44450000D03*
D15*
%TO.P,R17,2*%
%TO.N,Net-(JP6-B)*%
X129209800Y-34290000D03*
%TD*%
D14*
%TO.P,JP6,1,A*%
%TO.N,+5V*%
X73812400Y-71882000D03*
%TO.P,JP6,2,B*%
%TO.N,Net-(JP6-B)*%
X129362200Y-31165800D03*
%TD*%
D16*
%TO.P,J2,1,Pin_1*%
%TO.N,/MOTOR4*%
X92156600Y-92989400D03*
D17*
%TO.P,J2,2,Pin_2*%
%TO.N,/MOTOR3*%
X92156600Y-90449400D03*
%TO.P,J2,3,Pin_3*%
%TO.N,/MOTOR2*%
X92156600Y-87909400D03*
%TO.P,J2,4,Pin_4*%
%TO.N,/MOTOR1*%
X92156600Y-85369400D03*
%TO.P,J2,5,Pin_5*%
%TO.N,+5V*%
X92156600Y-82829400D03*
%TD*%
D14*
%TO.P,JP21,1,A*%
%TO.N,Net-(JP21-A)*%
X93141800Y-63550800D03*
%TO.P,JP21,2,B*%
%TO.N,GND*%
X93141800Y-76987400D03*
%TD*%
%TO.P,JP20,1,A*%
%TO.N,+5V*%
X52984400Y-69088000D03*
%TO.P,JP20,2,B*%
%TO.N,/CLK_VCC*%
X110058200Y-37719000D03*
%TD*%
%TO.P,JP19,2,B*%
%TO.N,+5V*%
X49276000Y-68884800D03*
%TO.P,JP19,1,A*%
%TO.N,Net-(D2-A)*%
X78282800Y-40741600D03*
%TD*%
%TO.P,C10,1*%
%TO.N,/CLK_VCC*%
X97352800Y-47244000D03*
%TO.P,C10,2*%
%TO.N,GND*%
X94852800Y-47244000D03*
%TD*%
%TO.P,JP17,2,B*%
%TO.N,Net-(D33-K)*%
X22509800Y-81915000D03*
%TO.P,JP17,1,A*%
%TO.N,/F2*%
X71805800Y-87833200D03*
%TD*%
%TO.P,JP16,1,A*%
%TO.N,/F3*%
X71907400Y-90474800D03*
%TO.P,JP16,2,B*%
%TO.N,Net-(D17-K)*%
X22509800Y-79171800D03*
%TD*%
%TO.P,JP15,2,B*%
%TO.N,/F1*%
X22509800Y-76123800D03*
%TO.P,JP15,1,A*%
%TO.N,Net-(JP15-A)*%
X71805800Y-85140800D03*
%TD*%
%TO.P,JP14,2,B*%
%TO.N,Net-(D12-A)*%
X22509800Y-93599000D03*
%TO.P,JP14,1,A*%
%TO.N,/F_RESET*%
X87249000Y-100584000D03*
%TD*%
%TO.P,JP13,2,B*%
%TO.N,Net-(D32-K)*%
X72263000Y-95554800D03*
%TO.P,JP13,1,A*%
%TO.N,Net-(D15-K)*%
X22509800Y-87249000D03*
%TD*%
%TO.P,JP10,1,A*%
%TO.N,/R_RESET*%
X55864600Y-80391000D03*
%TO.P,JP10,2,B*%
%TO.N,Net-(JP10-B)*%
X87888600Y-98069400D03*
%TD*%
%TO.P,JP9,2,B*%
%TO.N,/LOAD*%
X55813800Y-77800200D03*
%TO.P,JP9,1,A*%
%TO.N,Net-(JP9-A)*%
X87888600Y-95605600D03*
%TD*%
%TO.P,JP8,2,B*%
%TO.N,/"R" CLOCK B*%
X107467400Y-73075800D03*
%TO.P,JP8,1,A*%
%TO.N,Net-(D11-A)*%
X22509800Y-97256600D03*
%TD*%
%TO.P,JP7,1,A*%
%TO.N,/"R" CLOCK A*%
X103840600Y-73152000D03*
%TO.P,JP7,2,B*%
%TO.N,Net-(JP7-B)*%
X72263000Y-98196400D03*
%TD*%
D18*
%TO.P,U2,1,CP*%
%TO.N,/MOTOR_CLOCK_B*%
X43881600Y-75268400D03*
D15*
%TO.P,U2,2,Q4*%
%TO.N,Net-(D30-A)*%
X43881600Y-77808400D03*
%TO.P,U2,3,Q3*%
%TO.N,Net-(D17-A)*%
X43881600Y-80348400D03*
%TO.P,U2,4,Q2*%
%TO.N,Net-(D15-A)*%
X43881600Y-82888400D03*
%TO.P,U2,5,Q1*%
%TO.N,Net-(D14-A)*%
X43881600Y-85428400D03*
%TO.P,U2,6,MR*%
%TO.N,Net-(D11-K)*%
X43881600Y-87968400D03*
%TO.P,U2,7,D*%
%TO.N,/LOAD*%
X43881600Y-90508400D03*
%TO.P,U2,8,Vss*%
%TO.N,GND*%
X43881600Y-93048400D03*
%TO.P,U2,9,CP*%
%TO.N,Net-(JP11-A)*%
X51501600Y-93048400D03*
%TO.P,U2,10,Q4*%
%TO.N,Net-(D27-A)*%
X51501600Y-90508400D03*
%TO.P,U2,11,Q3*%
%TO.N,Net-(D29-A)*%
X51501600Y-87968400D03*
%TO.P,U2,12,Q2*%
%TO.N,Net-(D31-A)*%
X51501600Y-85428400D03*
%TO.P,U2,13,Q1*%
%TO.N,Net-(D28-A)*%
X51501600Y-82888400D03*
%TO.P,U2,14,MR*%
%TO.N,/R_RESET*%
X51501600Y-80348400D03*
%TO.P,U2,15,D*%
%TO.N,/LOAD*%
X51501600Y-77808400D03*
%TO.P,U2,16,Vdd*%
%TO.N,+5V*%
X51501600Y-75268400D03*
%TD*%
D14*
%TO.P,R23,1*%
%TO.N,Net-(Q1-C)*%
X74884600Y-107086400D03*
D15*
%TO.P,R23,2*%
%TO.N,+5V*%
X85044600Y-107086400D03*
%TD*%
D14*
%TO.P,R22,1*%
%TO.N,/F_RESET*%
X103764400Y-93014800D03*
D15*
%TO.P,R22,2*%
%TO.N,+5V*%
X103764400Y-82854800D03*
%TD*%
D14*
%TO.P,R20,1*%
%TO.N,Net-(D11-K)*%
X39070600Y-90352400D03*
D15*
%TO.P,R20,2*%
%TO.N,GND*%
X28910600Y-90352400D03*
%TD*%
D14*
%TO.P,R2,1*%
%TO.N,Net-(U5-Q5)*%
X108077000Y-59309000D03*
D15*
%TO.P,R2,2*%
%TO.N,/"R" CLOCK B*%
X108077000Y-69469000D03*
%TD*%
D19*
%TO.P,Q1,1,C*%
%TO.N,Net-(Q1-C)*%
X70947600Y-106827400D03*
D20*
%TO.P,Q1,2,E*%
%TO.N,GND*%
X70947600Y-109367400D03*
%TD*%
D18*
%TO.P,D12,1,K*%
%TO.N,Net-(D11-K)*%
X39223000Y-93655800D03*
D15*
%TO.P,D12,2,A*%
%TO.N,Net-(D12-A)*%
X26523000Y-93655800D03*
%TD*%
D18*
%TO.P,D11,1,K*%
%TO.N,Net-(D11-K)*%
X39223000Y-97205800D03*
D15*
%TO.P,D11,2,A*%
%TO.N,Net-(D11-A)*%
X26523000Y-97205800D03*
%TD*%
D14*
%TO.P,R8,1*%
%TO.N,Net-(D18-A)*%
X84269000Y-67242000D03*
D15*
%TO.P,R8,2*%
%TO.N,+5V*%
X74109000Y-67242000D03*
%TD*%
D14*
%TO.P,R5,1*%
%TO.N,/Q0*%
X60266000Y-40699000D03*
D15*
%TO.P,R5,2*%
%TO.N,Net-(D2-K)*%
X70426000Y-40699000D03*
%TD*%
D18*
%TO.P,D31,1,K*%
%TO.N,/F3*%
X68534600Y-90703400D03*
D15*
%TO.P,D31,2,A*%
%TO.N,Net-(D31-A)*%
X55834600Y-90703400D03*
%TD*%
D14*
%TO.P,C8,1*%
%TO.N,+5V*%
X62806000Y-69127000D03*
%TO.P,C8,2*%
%TO.N,GND*%
X62806000Y-66627000D03*
%TD*%
D19*
%TO.P,D26,1,K*%
%TO.N,GND*%
X111773000Y-76827000D03*
D20*
%TO.P,D26,2,A*%
%TO.N,Net-(D26-A)*%
X111773000Y-74287000D03*
%TD*%
D18*
%TO.P,D33,1,K*%
%TO.N,Net-(D33-K)*%
X26370600Y-81940400D03*
D15*
%TO.P,D33,2,A*%
%TO.N,Net-(D15-A)*%
X39070600Y-81940400D03*
%TD*%
D14*
%TO.P,C11,1*%
%TO.N,+5V*%
X66959800Y-75082400D03*
%TO.P,C11,2*%
%TO.N,GND*%
X66959800Y-77582400D03*
%TD*%
%TO.P,R9,1*%
%TO.N,Net-(JP2-A)*%
X90982800Y-40741600D03*
D15*
%TO.P,R9,2*%
%TO.N,Net-(D2-A)*%
X80822800Y-40741600D03*
%TD*%
D19*
%TO.P,D25,1,K*%
%TO.N,GND*%
X116726000Y-76827000D03*
D20*
%TO.P,D25,2,A*%
%TO.N,Net-(D25-A)*%
X116726000Y-74287000D03*
%TD*%
D18*
%TO.P,U11,1,Q12*%
%TO.N,unconnected-(U11-Q12-Pad1)*%
X38539000Y-62660000D03*
D15*
%TO.P,U11,2,Q13*%
%TO.N,unconnected-(U11-Q13-Pad2)*%
X38539000Y-60120000D03*
%TO.P,U11,3,Q14*%
%TO.N,Net-(U11-Q14)*%
X38539000Y-57580000D03*
%TO.P,U11,4,Q6*%
%TO.N,unconnected-(U11-Q6-Pad4)*%
X38539000Y-55040000D03*
%TO.P,U11,5,Q5*%
%TO.N,unconnected-(U11-Q5-Pad5)*%
X38539000Y-52500000D03*
%TO.P,U11,6,Q7*%
%TO.N,unconnected-(U11-Q7-Pad6)*%
X38539000Y-49960000D03*
%TO.P,U11,7,Q4*%
%TO.N,unconnected-(U11-Q4-Pad7)*%
X38539000Y-47420000D03*
%TO.P,U11,8,VSS*%
%TO.N,GND*%
X38539000Y-44880000D03*
%TO.P,U11,9,(PHI)O*%
%TO.N,Net-(C25-Pad1)*%
X30919000Y-44880000D03*
%TO.P,U11,10,(PHI)O*%
%TO.N,Net-(C24-Pad1)*%
X30919000Y-47420000D03*
%TO.P,U11,11,(PHI)I*%
%TO.N,unconnected-(U11-(PHI)I-Pad11)*%
X30919000Y-49960000D03*
%TO.P,U11,12,RESET*%
%TO.N,GND*%
X30919000Y-52500000D03*
%TO.P,U11,13,Q9*%
%TO.N,unconnected-(U11-Q9-Pad13)*%
X30919000Y-55040000D03*
%TO.P,U11,14,Q8*%
%TO.N,Net-(U11-Q8)*%
X30919000Y-57580000D03*
%TO.P,U11,15,Q10*%
%TO.N,unconnected-(U11-Q10-Pad15)*%
X30919000Y-60120000D03*
%TO.P,U11,16,VDD*%
%TO.N,+5V*%
X30919000Y-62660000D03*
%TD*%
D14*
%TO.P,JP3,1,A*%
%TO.N,Net-(D18-A)*%
X89222000Y-67369000D03*
%TO.P,JP3,2,B*%
%TO.N,Net-(D19-A)*%
X43629000Y-65718000D03*
%TD*%
%TO.P,R10,1*%
%TO.N,Net-(D23-A)*%
X123893000Y-69650000D03*
D15*
%TO.P,R10,2*%
%TO.N,Net-(U5-Q1)*%
X123893000Y-59490000D03*
%TD*%
D14*
%TO.P,JP5,1,A*%
%TO.N,Net-(JP2-A)*%
X101160000Y-54923000D03*
%TO.P,JP5,2,B*%
%TO.N,Net-(JP5-B)*%
X122369000Y-43874000D03*
%TD*%
D21*
%TO.P,C15,1*%
%TO.N,Net-(JP1-B)*%
X57053800Y-105457000D03*
D22*
%TO.P,C15,2*%
%TO.N,GND*%
X57053800Y-100457000D03*
%TD*%
D23*
%TO.P,Y1,1,1*%
%TO.N,Net-(C25-Pad1)*%
X27246000Y-45190000D03*
%TO.P,Y1,2,2*%
%TO.N,Net-(C24-Pad1)*%
X27246000Y-47090000D03*
%TD*%
D18*
%TO.P,D4,1,K*%
%TO.N,Net-(D4-K)*%
X84269000Y-46541000D03*
D15*
%TO.P,D4,2,A*%
%TO.N,Net-(D4-A)*%
X71569000Y-46541000D03*
%TD*%
D14*
%TO.P,JP11,1,A*%
%TO.N,Net-(JP11-A)*%
X51485800Y-96926400D03*
%TO.P,JP11,2,B*%
%TO.N,/MOTOR_CLOCK_A*%
X22758400Y-71653400D03*
%TD*%
D24*
%TO.P,RV1,1,1*%
%TO.N,unconnected-(RV1-Pad1)*%
X38566400Y-105435400D03*
%TO.P,RV1,2,2*%
%TO.N,GND*%
X41066400Y-101635400D03*
%TO.P,RV1,3,3*%
%TO.N,Net-(JP1-B)*%
X43566400Y-105435400D03*
%TD*%
D14*
%TO.P,C27,1*%
%TO.N,+5V*%
X33342000Y-69127000D03*
%TO.P,C27,2*%
%TO.N,GND*%
X33342000Y-66627000D03*
%TD*%
D18*
%TO.P,D30,1,K*%
%TO.N,/F1*%
X26370600Y-76098400D03*
D15*
%TO.P,D30,2,A*%
%TO.N,Net-(D30-A)*%
X39070600Y-76098400D03*
%TD*%
D14*
%TO.P,R3,1*%
%TO.N,Net-(U5-Q0)*%
X129989000Y-47811000D03*
D15*
%TO.P,R3,2*%
%TO.N,Net-(D22-A)*%
X129989000Y-57971000D03*
%TD*%
D18*
%TO.P,D5,1,K*%
%TO.N,Net-(D4-K)*%
X84269000Y-49716000D03*
D15*
%TO.P,D5,2,A*%
%TO.N,Net-(D5-A)*%
X71569000Y-49716000D03*
%TD*%
D14*
%TO.P,C6,1*%
%TO.N,+5V*%
X109631800Y-88569800D03*
%TO.P,C6,2*%
%TO.N,GND*%
X112131800Y-88569800D03*
%TD*%
D25*
%TO.P,U8,3,VO*%
%TO.N,+5V*%
X109758800Y-99618800D03*
%TO.P,U8,2,GND*%
%TO.N,GND*%
X112298800Y-99618800D03*
D26*
%TO.P,U8,1,VI*%
%TO.N,+8V*%
X114838800Y-99618800D03*
%TD*%
D18*
%TO.P,D9,1,K*%
%TO.N,Net-(D10-K)*%
X43756000Y-56701000D03*
D15*
%TO.P,D9,2,A*%
%TO.N,/Q7*%
X56456000Y-56701000D03*
%TD*%
D14*
%TO.P,C26,1*%
%TO.N,+5V*%
X38295000Y-69147000D03*
%TO.P,C26,2*%
%TO.N,GND*%
X38295000Y-66647000D03*
%TD*%
D18*
%TO.P,D28,1,K*%
%TO.N,/F4*%
X68534600Y-82829400D03*
D15*
%TO.P,D28,2,A*%
%TO.N,Net-(D28-A)*%
X55834600Y-82829400D03*
%TD*%
D14*
%TO.P,R21,1*%
%TO.N,Net-(U5-Q6)*%
X109669000Y-43991000D03*
D15*
%TO.P,R21,2*%
%TO.N,Net-(U5-Reset)*%
X119829000Y-43991000D03*
%TD*%
D16*
%TO.P,J1,1,Pin_1*%
%TO.N,+5V*%
X87838600Y-82829400D03*
D17*
%TO.P,J1,2,Pin_2*%
%TO.N,/MOTOR1*%
X87838600Y-85369400D03*
%TO.P,J1,3,Pin_3*%
%TO.N,/MOTOR2*%
X87838600Y-87909400D03*
%TO.P,J1,4,Pin_4*%
%TO.N,/MOTOR3*%
X87838600Y-90449400D03*
%TO.P,J1,5,Pin_5*%
%TO.N,/MOTOR4*%
X87838600Y-92989400D03*
%TD*%
D14*
%TO.P,JP2,1,A*%
%TO.N,Net-(JP2-A)*%
X89509600Y-48514000D03*
%TO.P,JP2,2,B*%
%TO.N,Net-(JP2-B)*%
X56837000Y-50097000D03*
%TD*%
D18*
%TO.P,D3,1,K*%
%TO.N,Net-(D10-K)*%
X43756000Y-44890000D03*
D15*
%TO.P,D3,2,A*%
%TO.N,/Q0*%
X56456000Y-44890000D03*
%TD*%
D19*
%TO.P,D24,1,K*%
%TO.N,GND*%
X121425000Y-76827000D03*
D20*
%TO.P,D24,2,A*%
%TO.N,Net-(D24-A)*%
X121425000Y-74287000D03*
%TD*%
D19*
%TO.P,Q5,1,C*%
%TO.N,Net-(JP7-B)*%
X68407600Y-101493400D03*
D20*
%TO.P,Q5,2,E*%
%TO.N,GND*%
X68407600Y-104033400D03*
%TD*%
D19*
%TO.P,D22,1,K*%
%TO.N,GND*%
X128778000Y-66624200D03*
D20*
%TO.P,D22,2,A*%
%TO.N,Net-(D22-A)*%
X128778000Y-64084200D03*
%TD*%
D19*
%TO.P,D1,1,K*%
%TO.N,GND*%
X122351800Y-35174000D03*
D20*
%TO.P,D1,2,A*%
%TO.N,/CLK_VCC*%
X122351800Y-37714000D03*
%TD*%
D18*
%TO.P,U1,1,Q11*%
%TO.N,Net-(D18-K)*%
X68003000Y-62807000D03*
D15*
%TO.P,U1,2,Q5*%
%TO.N,Net-(D7-A)*%
X68003000Y-60267000D03*
%TO.P,U1,3,Q4*%
%TO.N,Net-(D21-K)*%
X68003000Y-57727000D03*
%TO.P,U1,4,Q6*%
%TO.N,Net-(D8-A)*%
X68003000Y-55187000D03*
%TO.P,U1,5,Q3*%
%TO.N,Net-(D6-A)*%
X68003000Y-52647000D03*
%TO.P,U1,6,Q2*%
%TO.N,Net-(D5-A)*%
X68003000Y-50107000D03*
%TO.P,U1,7,Q1*%
%TO.N,Net-(D4-A)*%
X68003000Y-47567000D03*
%TO.P,U1,8,VSS*%
%TO.N,GND*%
X68003000Y-45027000D03*
%TO.P,U1,9,Q0*%
%TO.N,/Q0*%
X60383000Y-45027000D03*
%TO.P,U1,10,CLK*%
%TO.N,Net-(U1-CLK)*%
X60383000Y-47567000D03*
%TO.P,U1,11,Reset*%
%TO.N,Net-(JP2-B)*%
X60383000Y-50107000D03*
%TO.P,U1,12,Q8*%
%TO.N,/Q8*%
X60383000Y-52647000D03*
%TO.P,U1,13,Q7*%
%TO.N,/Q7*%
X60383000Y-55187000D03*
%TO.P,U1,14,Q9*%
%TO.N,Net-(D20-K)*%
X60383000Y-57727000D03*
%TO.P,U1,15,Q10*%
%TO.N,Net-(D19-K)*%
X60383000Y-60267000D03*
%TO.P,U1,16,VDD*%
%TO.N,+5V*%
X60383000Y-62807000D03*
%TD*%
D14*
%TO.P,JP4,1,A*%
%TO.N,Net-(D10-K)*%
X43662600Y-40843200D03*
%TO.P,JP4,2,B*%
%TO.N,Net-(D4-K)*%
X84251800Y-43484800D03*
%TD*%
D18*
%TO.P,D20,1,K*%
%TO.N,Net-(D20-K)*%
X56456000Y-59241000D03*
D15*
%TO.P,D20,2,A*%
%TO.N,Net-(D19-A)*%
X43756000Y-59241000D03*
%TD*%
D14*
%TO.P,C7,1*%
%TO.N,+5V*%
X68013000Y-69127000D03*
%TO.P,C7,2*%
%TO.N,GND*%
X68013000Y-66627000D03*
%TD*%
D19*
%TO.P,D13,1,K*%
%TO.N,GND*%
X115366800Y-35179000D03*
D20*
%TO.P,D13,2,A*%
%TO.N,/CLK_VCC*%
X115366800Y-37719000D03*
%TD*%
D18*
%TO.P,D32,1,K*%
%TO.N,Net-(D32-K)*%
X68534600Y-95986600D03*
D15*
%TO.P,D32,2,A*%
%TO.N,Net-(D31-A)*%
X55834600Y-95986600D03*
%TD*%
D18*
%TO.P,D7,1,K*%
%TO.N,Net-(D4-K)*%
X84269000Y-60384000D03*
D15*
%TO.P,D7,2,A*%
%TO.N,Net-(D7-A)*%
X71569000Y-60384000D03*
%TD*%
D14*
%TO.P,R18,1*%
%TO.N,Net-(D26-A)*%
X112082000Y-69650000D03*
D15*
%TO.P,R18,2*%
%TO.N,Net-(U5-Q4)*%
X112082000Y-59490000D03*
%TD*%
D14*
%TO.P,R1,1*%
%TO.N,Net-(JP9-A)*%
X95966600Y-93218000D03*
D15*
%TO.P,R1,2*%
%TO.N,+5V*%
X95966600Y-83058000D03*
%TD*%
D14*
%TO.P,C1,1*%
%TO.N,/CLK_VCC*%
X106073000Y-37651000D03*
%TO.P,C1,2*%
%TO.N,GND*%
X103573000Y-37651000D03*
%TD*%
D18*
%TO.P,D29,1,K*%
%TO.N,/F2*%
X68534600Y-87909400D03*
D15*
%TO.P,D29,2,A*%
%TO.N,Net-(D29-A)*%
X55834600Y-87909400D03*
%TD*%
D14*
%TO.P,C3,2*%
%TO.N,GND*%
X116713000Y-92760800D03*
%TO.P,C3,1*%
%TO.N,+8V*%
X119213000Y-92760800D03*
%TD*%
%TO.P,R12,1*%
%TO.N,Net-(D25-A)*%
X116781000Y-69650000D03*
D15*
%TO.P,R12,2*%
%TO.N,Net-(U5-Q3)*%
X116781000Y-59490000D03*
%TD*%
D14*
%TO.P,R4,1*%
%TO.N,+5V*%
X89349000Y-69655000D03*
D15*
%TO.P,R4,2*%
%TO.N,/REF2.5*%
X99509000Y-69655000D03*
%TD*%
D14*
%TO.P,R16,1*%
%TO.N,Net-(U11-Q8)*%
X26974800Y-57632600D03*
D15*
%TO.P,R16,2*%
%TO.N,/MOTOR_CLOCK_B*%
X26974800Y-67792600D03*
%TD*%
D14*
%TO.P,R11,1*%
%TO.N,Net-(D24-A)*%
X120337000Y-69650000D03*
D15*
%TO.P,R11,2*%
%TO.N,Net-(U5-Q2)*%
X120337000Y-59490000D03*
%TD*%
D14*
%TO.P,R33,1*%
%TO.N,Net-(U1-CLK)*%
X53916000Y-48065000D03*
D15*
%TO.P,R33,2*%
%TO.N,Net-(U11-Q14)*%
X43756000Y-48065000D03*
%TD*%
D14*
%TO.P,C9,1*%
%TO.N,/CLK_VCC*%
X97332800Y-41910000D03*
%TO.P,C9,2*%
%TO.N,GND*%
X94832800Y-41910000D03*
%TD*%
D15*
%TO.P,R13,2*%
%TO.N,+5V*%
X99903600Y-82905600D03*
D14*
%TO.P,R13,1*%
%TO.N,Net-(JP10-B)*%
X99903600Y-93065600D03*
%TD*%
D18*
%TO.P,D19,1,K*%
%TO.N,Net-(D19-K)*%
X56456000Y-61908000D03*
D15*
%TO.P,D19,2,A*%
%TO.N,Net-(D19-A)*%
X43756000Y-61908000D03*
%TD*%
D14*
%TO.P,C4,1*%
%TO.N,+8V*%
X119213000Y-87426800D03*
%TO.P,C4,2*%
%TO.N,GND*%
X116713000Y-87426800D03*
%TD*%
D18*
%TO.P,D21,1,K*%
%TO.N,Net-(D21-K)*%
X71569000Y-57844000D03*
D15*
%TO.P,D21,2,A*%
%TO.N,Net-(D18-A)*%
X84269000Y-57844000D03*
%TD*%
D18*
%TO.P,U5,1,Q11*%
%TO.N,unconnected-(U5-Q11-Pad1)*%
X107155000Y-55371000D03*
D15*
%TO.P,U5,2,Q5*%
%TO.N,Net-(U5-Q5)*%
X109695000Y-55371000D03*
%TO.P,U5,3,Q4*%
%TO.N,Net-(U5-Q4)*%
X112235000Y-55371000D03*
%TO.P,U5,4,Q6*%
%TO.N,Net-(U5-Q6)*%
X114775000Y-55371000D03*
%TO.P,U5,5,Q3*%
%TO.N,Net-(U5-Q3)*%
X117315000Y-55371000D03*
%TO.P,U5,6,Q2*%
%TO.N,Net-(U5-Q2)*%
X119855000Y-55371000D03*
%TO.P,U5,7,Q1*%
%TO.N,Net-(U5-Q1)*%
X122395000Y-55371000D03*
%TO.P,U5,8,VSS*%
%TO.N,GND*%
X124935000Y-55371000D03*
%TO.P,U5,9,Q0*%
%TO.N,Net-(U5-Q0)*%
X124935000Y-47751000D03*
%TO.P,U5,10,CLK*%
%TO.N,Net-(JP5-B)*%
X122395000Y-47751000D03*
%TO.P,U5,11,Reset*%
%TO.N,Net-(U5-Reset)*%
X119855000Y-47751000D03*
%TO.P,U5,12,Q8*%
%TO.N,unconnected-(U5-Q8-Pad12)*%
X117315000Y-47751000D03*
%TO.P,U5,13,Q7*%
%TO.N,unconnected-(U5-Q7-Pad13)*%
X114775000Y-47751000D03*
%TO.P,U5,14,Q9*%
%TO.N,unconnected-(U5-Q9-Pad14)*%
X112235000Y-47751000D03*
%TO.P,U5,16,VDD*%
%TO.N,/CLK_VCC*%
X107155000Y-47751000D03*
%TD*%
D18*
%TO.P,U10,1,I1*%
%TO.N,Net-(JP15-A)*%
X75631600Y-85428400D03*
D15*
%TO.P,U10,2,I2*%
%TO.N,/F2*%
X75631600Y-87968400D03*
%TO.P,U10,3,I3*%
%TO.N,/F3*%
X75631600Y-90508400D03*
%TO.P,U10,4,I4*%
%TO.N,/F4*%
X75631600Y-93048400D03*
%TO.P,U10,5,I5*%
%TO.N,Net-(D32-K)*%
X75631600Y-95588400D03*
%TO.P,U10,6,I6*%
%TO.N,Net-(JP7-B)*%
X75631600Y-98128400D03*
%TO.P,U10,7,I7*%
%TO.N,Net-(Q1-C)*%
X75631600Y-100668400D03*
%TO.P,U10,8,GND*%
%TO.N,GND*%
X75631600Y-103208400D03*
%TO.P,U10,9,COM*%
%TO.N,unconnected-(U10-COM-Pad9)*%
X83251600Y-103208400D03*
%TO.P,U10,10,O7*%
%TO.N,/F_RESET*%
X83251600Y-100668400D03*
%TO.P,U10,11,O6*%
%TO.N,Net-(JP10-B)*%
X83251600Y-98128400D03*
%TO.P,U10,12,O5*%
%TO.N,Net-(JP9-A)*%
X83251600Y-95588400D03*
%TO.P,U10,13,O4*%
%TO.N,/MOTOR4*%
X83251600Y-93048400D03*
%TO.P,U10,14,O3*%
%TO.N,/MOTOR3*%
X83251600Y-90508400D03*
%TO.P,U10,15,O2*%
%TO.N,/MOTOR2*%
X83251600Y-87968400D03*
%TO.P,U10,16,O1*%
%TO.N,/MOTOR1*%
X83251600Y-85428400D03*
%TD*%
D18*
%TO.P,D8,1,K*%
%TO.N,Net-(D4-K)*%
X84269000Y-54923000D03*
D15*
%TO.P,D8,2,A*%
%TO.N,Net-(D8-A)*%
X71569000Y-54923000D03*
%TD*%
D14*
%TO.P,C5,2*%
%TO.N,GND*%
X112131800Y-82727800D03*
%TO.P,C5,1*%
%TO.N,+5V*%
X109631800Y-82727800D03*
%TD*%
%TO.P,R15,1*%
%TO.N,Net-(U11-Q8)*%
X22834600Y-57632600D03*
D15*
%TO.P,R15,2*%
%TO.N,/MOTOR_CLOCK_A*%
X22834600Y-67792600D03*
%TD*%
D18*
%TO.P,D10,1,K*%
%TO.N,Net-(D10-K)*%
X43756000Y-53018000D03*
D15*
%TO.P,D10,2,A*%
%TO.N,/Q8*%
X56456000Y-53018000D03*
%TD*%
D14*
%TO.P,C12,1*%
%TO.N,+5V*%
X61016200Y-75046200D03*
%TO.P,C12,2*%
%TO.N,GND*%
X61016200Y-77546200D03*
%TD*%
D17*
%TO.P,J3,2,Pin_2*%
%TO.N,+8V*%
X119233000Y-82981800D03*
D16*
%TO.P,J3,1,Pin_1*%
%TO.N,GND*%
X116693000Y-82981800D03*
%TD*%
D18*
%TO.P,U9,1*%
%TO.N,Net-(JP2-A)*%
X89465000Y-52361000D03*
D15*
%TO.P,U9,2,-*%
%TO.N,Net-(D4-K)*%
X89465000Y-54901000D03*
%TO.P,U9,3,+*%
%TO.N,/REF2.5*%
X89465000Y-57441000D03*
%TO.P,U9,4,V-*%
%TO.N,Net-(JP21-A)*%
X89465000Y-59981000D03*
%TO.P,U9,5,+*%
%TO.N,Net-(D18-A)*%
X97085000Y-59981000D03*
%TO.P,U9,6,-*%
%TO.N,/REF2.5*%
X97085000Y-57441000D03*
%TO.P,U9,7*%
%TO.N,Net-(JP2-A)*%
X97085000Y-54901000D03*
%TO.P,U9,8,V+*%
%TO.N,/CLK_VCC*%
X97085000Y-52361000D03*
%TD*%
D18*
%TO.P,D18,1,K*%
%TO.N,Net-(D18-K)*%
X71569000Y-63178000D03*
D15*
%TO.P,D18,2,A*%
%TO.N,Net-(D18-A)*%
X84269000Y-63178000D03*
%TD*%
D14*
%TO.P,C2,1*%
%TO.N,/CLK_VCC*%
X106113000Y-42604000D03*
%TO.P,C2,2*%
%TO.N,GND*%
X103613000Y-42604000D03*
%TD*%
D15*
%TO.P,R14,2*%
%TO.N,/"R" CLOCK A*%
X104267000Y-69469000D03*
D14*
%TO.P,R14,1*%
%TO.N,Net-(U5-Q5)*%
X104267000Y-59309000D03*
%TD*%
%TO.P,R6,1*%
%TO.N,Net-(C24-Pad1)*%
X22801000Y-51347000D03*
D15*
%TO.P,R6,2*%
%TO.N,Net-(C25-Pad1)*%
X22801000Y-41187000D03*
%TD*%
D14*
%TO.P,C24,1*%
%TO.N,Net-(C24-Pad1)*%
X27246000Y-50839000D03*
%TO.P,C24,2*%
%TO.N,GND*%
X27246000Y-53339000D03*
%TD*%
D18*
%TO.P,D6,1,K*%
%TO.N,Net-(D4-K)*%
X84269000Y-52383000D03*
D15*
%TO.P,D6,2,A*%
%TO.N,Net-(D6-A)*%
X71569000Y-52383000D03*
%TD*%
D19*
%TO.P,D2,1,K*%
%TO.N,Net-(D2-K)*%
X73101200Y-40741600D03*
D20*
%TO.P,D2,2,A*%
%TO.N,Net-(D2-A)*%
X75641200Y-40741600D03*
%TD*%
D14*
%TO.P,R7,1*%
%TO.N,GND*%
X89281000Y-73660000D03*
D15*
%TO.P,R7,2*%
%TO.N,/REF2.5*%
X99441000Y-73660000D03*
%TD*%
D14*
%TO.P,JP1,1,A*%
%TO.N,+5V*%
X82276000Y-81178400D03*
%TO.P,JP1,2,B*%
%TO.N,Net-(JP1-B)*%
X49637000Y-105511600D03*
%TD*%
D18*
%TO.P,D15,1,K*%
%TO.N,Net-(D15-K)*%
X26370600Y-87274400D03*
D15*
%TO.P,D15,2,A*%
%TO.N,Net-(D15-A)*%
X39070600Y-87274400D03*
%TD*%
D14*
%TO.P,C25,1*%
%TO.N,Net-(C25-Pad1)*%
X27246000Y-41929000D03*
%TO.P,C25,2*%
%TO.N,GND*%
X27246000Y-39429000D03*
%TD*%
D19*
%TO.P,D23,1,K*%
%TO.N,GND*%
X126378000Y-76827000D03*
D20*
%TO.P,D23,2,A*%
%TO.N,Net-(D23-A)*%
X126378000Y-74287000D03*
%TD*%
D18*
%TO.P,D17,1,K*%
%TO.N,Net-(D17-K)*%
X26370600Y-79146400D03*
D15*
%TO.P,D17,2,A*%
%TO.N,Net-(D17-A)*%
X39070600Y-79146400D03*
%TD*%
D18*
%TO.P,D14,1,K*%
%TO.N,/F1*%
X26370600Y-84734400D03*
D15*
%TO.P,D14,2,A*%
%TO.N,Net-(D14-A)*%
X39070600Y-84734400D03*
%TD*%
D18*
%TO.P,D27,1,K*%
%TO.N,/F4*%
X68534600Y-93243400D03*
D15*
%TO.P,D27,2,A*%
%TO.N,Net-(D27-A)*%
X55834600Y-93243400D03*
%TD*%
M02*
